<svg width="54" height="54" viewBox="0 0 54 54" fill="none" xmlns="http://www.w3.org/2000/svg">
<g filter="url(#filter0_di_67_3295)">
<path d="M25.625 4.19065C26.4714 3.65722 27.5252 3.67998 28.354 4.24045C30.3513 5.59114 34.5475 8.64948 40.8288 14.3214C46.8579 19.7656 50.3559 23.5919 52.0304 25.5547C52.7991 26.4557 52.8477 27.7215 52.1242 28.659C50.6072 30.6245 47.3861 34.4134 41.3647 40.0173C34.9199 46.0153 30.648 49.0512 28.6451 50.3432C27.8337 50.8667 26.8236 50.8633 26.0148 50.3358C24.0014 49.0228 19.6834 45.9292 13.1382 39.8261C6.93198 34.039 3.65289 30.1727 2.14387 28.218C1.45298 27.323 1.46482 26.1211 2.16858 25.2362C3.70486 23.3046 6.99418 19.5242 12.9649 14.133C19.2125 8.4918 23.5559 5.4946 25.625 4.19065Z" fill="url(#paint0_linear_67_3295)"/>
</g>
<g filter="url(#filter1_i_67_3295)">
<path d="M25.9423 9.97182C26.7812 9.42543 27.8349 9.44134 28.6604 10.0077C30.2782 11.1175 33.3395 13.3871 37.7683 17.3784C41.9742 21.1687 44.5454 23.9235 45.9079 25.4912C46.6858 26.3863 46.729 27.6519 45.9896 28.5789C44.722 30.168 42.2767 32.9593 37.9902 36.9541C33.3374 41.2901 30.1639 43.6216 28.5229 44.7169C27.7198 45.253 26.7064 45.2547 25.9022 44.7201C24.2659 43.6324 21.1078 41.3192 16.4837 37.0132C12.1471 32.9749 9.70791 30.1713 8.46795 28.6037C7.76689 27.7173 7.78353 26.518 8.4996 25.6437C9.78011 24.0803 12.2704 21.2979 16.5381 17.437C21.0423 13.3621 24.2527 11.0723 25.9423 9.97182Z" fill="url(#paint1_linear_67_3295)"/>
</g>
<g filter="url(#filter2_i_67_3295)">
<path d="M26.0937 12.4044C26.8127 11.9361 27.7159 11.9497 28.4235 12.4351C29.8102 13.3864 32.4341 15.3318 36.2303 18.7529C39.8353 22.0018 42.0392 24.363 43.2071 25.7068C43.8739 26.4739 43.9109 27.5588 43.277 28.3534C42.1906 29.7155 40.0946 32.108 36.4204 35.5321C32.4323 39.2487 29.7121 41.2471 28.3056 42.1859C27.6172 42.6454 26.7486 42.6469 26.0593 42.1887C24.6567 41.2564 21.9498 39.2736 17.9863 35.5827C14.2692 32.1213 12.1785 29.7183 11.1157 28.3746C10.5148 27.6148 10.529 26.5868 11.1428 25.8375C12.2404 24.4974 14.3749 22.1125 18.0329 18.8032C21.8937 15.3104 24.6455 13.3477 26.0937 12.4044Z" fill="url(#paint2_linear_67_3295)"/>
<path d="M26.0937 12.4044C26.8127 11.9361 27.7159 11.9497 28.4235 12.4351C29.8102 13.3864 32.4341 15.3318 36.2303 18.7529C39.8353 22.0018 42.0392 24.363 43.2071 25.7068C43.8739 26.4739 43.9109 27.5588 43.277 28.3534C42.1906 29.7155 40.0946 32.108 36.4204 35.5321C32.4323 39.2487 29.7121 41.2471 28.3056 42.1859C27.6172 42.6454 26.7486 42.6469 26.0593 42.1887C24.6567 41.2564 21.9498 39.2736 17.9863 35.5827C14.2692 32.1213 12.1785 29.7183 11.1157 28.3746C10.5148 27.6148 10.529 26.5868 11.1428 25.8375C12.2404 24.4974 14.3749 22.1125 18.0329 18.8032C21.8937 15.3104 24.6455 13.3477 26.0937 12.4044Z" fill="url(#paint3_radial_67_3295)" fill-opacity="0.2"/>
</g>
<path d="M35.757 23.7162C35.757 27.5449 31.1938 20.7973 27.3652 20.7973C23.5365 20.7973 18.6084 27.9098 18.6084 24.0811C18.6084 21.8919 23.5365 16.4189 27.3652 16.4189C31.1938 16.4189 35.757 21.1622 35.757 23.7162Z" fill="white" fill-opacity="0.5"/>
<defs>
<filter id="filter0_di_67_3295" x="1.63281" y="3.80469" width="51.0049" height="49.8476" filterUnits="userSpaceOnUse" color-interpolation-filters="sRGB">
<feFlood flood-opacity="0" result="BackgroundImageFix"/>
<feColorMatrix in="SourceAlpha" type="matrix" values="0 0 0 0 0 0 0 0 0 0 0 0 0 0 0 0 0 0 127 0" result="hardAlpha"/>
<feOffset dy="2.91892"/>
<feComposite in2="hardAlpha" operator="out"/>
<feColorMatrix type="matrix" values="0 0 0 0 0 0 0 0 0 0 0 0 0 0 0 0 0 0 0.25 0"/>
<feBlend mode="normal" in2="BackgroundImageFix" result="effect1_dropShadow_67_3295"/>
<feBlend mode="normal" in="SourceGraphic" in2="effect1_dropShadow_67_3295" result="shape"/>
<feColorMatrix in="SourceAlpha" type="matrix" values="0 0 0 0 0 0 0 0 0 0 0 0 0 0 0 0 0 0 127 0" result="hardAlpha"/>
<feOffset dy="1.45946"/>
<feComposite in2="hardAlpha" operator="arithmetic" k2="-1" k3="1"/>
<feColorMatrix type="matrix" values="0 0 0 0 1 0 0 0 0 1 0 0 0 0 1 0 0 0 0.5 0"/>
<feBlend mode="normal" in2="shape" result="effect2_innerShadow_67_3295"/>
</filter>
<filter id="filter1_i_67_3295" x="7.95215" y="9.57227" width="38.5664" height="35.5479" filterUnits="userSpaceOnUse" color-interpolation-filters="sRGB">
<feFlood flood-opacity="0" result="BackgroundImageFix"/>
<feBlend mode="normal" in="SourceGraphic" in2="BackgroundImageFix" result="shape"/>
<feColorMatrix in="SourceAlpha" type="matrix" values="0 0 0 0 0 0 0 0 0 0 0 0 0 0 0 0 0 0 127 0" result="hardAlpha"/>
<feOffset dy="-1.45946"/>
<feComposite in2="hardAlpha" operator="arithmetic" k2="-1" k3="1"/>
<feColorMatrix type="matrix" values="0 0 0 0 1 0 0 0 0 1 0 0 0 0 1 0 0 0 0.58 0"/>
<feBlend mode="normal" in2="shape" result="effect1_innerShadow_67_3295"/>
</filter>
<filter id="filter2_i_67_3295" x="10.6738" y="12.0615" width="33.0566" height="30.4697" filterUnits="userSpaceOnUse" color-interpolation-filters="sRGB">
<feFlood flood-opacity="0" result="BackgroundImageFix"/>
<feBlend mode="normal" in="SourceGraphic" in2="BackgroundImageFix" result="shape"/>
<feColorMatrix in="SourceAlpha" type="matrix" values="0 0 0 0 0 0 0 0 0 0 0 0 0 0 0 0 0 0 127 0" result="hardAlpha"/>
<feOffset dy="1.45946"/>
<feComposite in2="hardAlpha" operator="arithmetic" k2="-1" k3="1"/>
<feColorMatrix type="matrix" values="0 0 0 0 1 0 0 0 0 1 0 0 0 0 1 0 0 0 0.58 0"/>
<feBlend mode="normal" in2="shape" result="effect1_innerShadow_67_3295"/>
</filter>
<linearGradient id="paint0_linear_67_3295" x1="40.5059" y1="13.6739" x2="13.6741" y2="40.5058" gradientUnits="userSpaceOnUse">
<stop stop-color="#189EF5"/>
<stop offset="1" stop-color="#174D7E"/>
</linearGradient>
<linearGradient id="paint1_linear_67_3295" x1="26.9997" y1="6.56738" x2="26.9997" y2="48.162" gradientUnits="userSpaceOnUse">
<stop stop-color="#0E1622"/>
<stop offset="1" stop-color="#1C2243"/>
</linearGradient>
<linearGradient id="paint2_linear_67_3295" x1="27.0003" y1="9.48633" x2="27.0003" y2="44.5134" gradientUnits="userSpaceOnUse">
<stop stop-color="#23D913"/>
<stop offset="1" stop-color="#1C7C14"/>
</linearGradient>
<radialGradient id="paint3_radial_67_3295" cx="0" cy="0" r="1" gradientUnits="userSpaceOnUse" gradientTransform="translate(27.0003 23.3512) rotate(106.557) scale(14.084)">
<stop stop-color="white"/>
<stop offset="1" stop-color="white" stop-opacity="0"/>
</radialGradient>
</defs>
</svg>
