<svg width="415" height="118" viewBox="0 0 415 118" fill="none" xmlns="http://www.w3.org/2000/svg">
<g filter="url(#filter0_dd_67_1160)">
<path d="M34.1868 104.396L53.7848 25.7927H53.279L22.9253 42.9017L28.4498 20.7441L59.342 3.21435H85.7912L60.5638 104.396H34.1868ZM76.3177 104.396L120.827 53.7L120.967 53.1391L101.617 3.21435H132.547L143.166 37.4324H143.672L171.498 3.21435H200.91L155.223 53.4196L155.1 53.9104L175.394 104.396H145.62L133.568 71.5804H132.99L104.501 104.396H76.3177Z" fill="white"/>
<g filter="url(#filter1_d_67_1160)">
<path d="M250.521 24.9463C247.961 35.2131 239.843 41.493 228.805 41.493C216.854 41.493 211.444 34.3271 214.523 21.9757C217.564 9.7807 226.554 2.58876 238.263 2.58876C247.663 2.58876 253.354 7.98271 252.437 15.6437H242.689C242.554 12.3083 240.16 10.2758 236.373 10.2758C230.788 10.2758 226.425 14.5232 224.6 21.8454C222.742 29.298 225.27 33.8059 230.936 33.8059C235.394 33.8059 239.146 31.2523 240.357 27.4739L240.527 26.9006H233.437L235.074 20.3341H251.671L250.521 24.9463ZM275.266 40.8415L274.882 32.5812H262.206L257.676 40.8415H247.632L270.032 3.24021H282.09L285.74 40.8415H275.266ZM273.764 11.2139L265.828 25.702H274.663L273.979 11.2139H273.764ZM332.012 40.8415H323.338L329.191 17.3635H329.003L313.66 40.4507H308.02L304.216 17.3635H304.001L298.147 40.8415H289.473L298.848 3.24021H310.235L313.987 27.3957H314.202L330 3.24021H341.387L332.012 40.8415ZM366.349 33.1284L364.426 40.8415H337.866L347.241 3.24021H373.801L371.878 10.9533H355.174L353.31 18.4319H369.02L367.266 25.4675H351.555L349.645 33.1284H366.349ZM213.43 104.881H194.927L204.302 67.2797H222.322C229.949 67.2797 233.651 70.8496 232.202 76.6605C231.15 80.8819 227.035 84.2433 222.595 84.8166L222.543 85.025C227.722 85.2596 230.916 89.0379 229.668 94.041C228.024 100.634 221.729 104.881 213.43 104.881ZM212.469 74.0547L210.338 82.6017H215.413C218.985 82.6017 221.543 80.96 222.219 78.25C222.875 75.6182 221.331 74.0547 218.028 74.0547H212.469ZM206.472 98.106H212.326C216.382 98.106 219.066 96.3862 219.859 93.2072C220.626 90.1324 218.745 88.4126 214.69 88.4126H208.889L206.472 98.106ZM258.739 66.6283C270.475 66.6283 275.996 74.1068 273.007 86.0934C270.019 98.08 260.775 105.532 249.039 105.532C237.277 105.532 231.749 98.08 234.738 86.0934C237.727 74.1068 247.003 66.6283 258.739 66.6283ZM256.803 74.3935C251.298 74.3935 246.569 78.9275 244.782 86.0934C243.002 93.2332 245.443 97.7673 250.975 97.7673C256.481 97.7673 261.21 93.2332 262.99 86.0934C264.777 78.9275 262.308 74.3935 256.803 74.3935ZM296.682 104.881L296.298 96.6207H283.622L279.092 104.881H269.048L291.448 67.2797H303.506L307.156 104.881H296.682ZM295.18 75.2534L287.244 89.7415H296.079L295.395 75.2534H295.18ZM328.32 74.4977L325.656 85.1814H331.43C335.056 85.1814 337.717 83.1228 338.53 79.8656C339.329 76.6605 337.585 74.4977 334.067 74.4977H328.32ZM324.026 91.7219L320.745 104.881H310.889L320.264 67.2797H336.86C346.528 67.2797 350.582 71.918 348.646 79.6832C347.496 84.2954 344.053 88.5168 339.362 90.3148L343.491 104.881H332.427L329.048 91.7219H324.026ZM356.68 67.2797H372.417C384.126 67.2797 389.357 73.8723 386.369 85.8589C383.374 97.8715 374.724 104.881 363.042 104.881H347.305L356.68 67.2797ZM364.613 74.9928L359.084 97.168H363.676C370.095 97.168 374.474 93.3896 376.345 85.8849C378.106 78.8233 375.435 74.9928 369.205 74.9928H364.613Z" fill="#189EF5"/>
</g>
</g>
<defs>
<filter id="filter0_dd_67_1160" x="-6" y="0.588867" width="422.401" height="116.943" filterUnits="userSpaceOnUse" color-interpolation-filters="sRGB">
<feFlood flood-opacity="0" result="BackgroundImageFix"/>
<feColorMatrix in="SourceAlpha" type="matrix" values="0 0 0 0 0 0 0 0 0 0 0 0 0 0 0 0 0 0 127 0" result="hardAlpha"/>
<feOffset dy="5"/>
<feGaussianBlur stdDeviation="3.5"/>
<feComposite in2="hardAlpha" operator="out"/>
<feColorMatrix type="matrix" values="0 0 0 0 0 0 0 0 0 0 0 0 0 0 0 0 0 0 0.35 0"/>
<feBlend mode="normal" in2="BackgroundImageFix" result="effect1_dropShadow_67_1160"/>
<feColorMatrix in="SourceAlpha" type="matrix" values="0 0 0 0 0 0 0 0 0 0 0 0 0 0 0 0 0 0 127 0" result="hardAlpha"/>
<feOffset dy="4"/>
<feComposite in2="hardAlpha" operator="out"/>
<feColorMatrix type="matrix" values="0 0 0 0 0 0 0 0 0 0 0 0 0 0 0 0 0 0 0.35 0"/>
<feBlend mode="normal" in2="effect1_dropShadow_67_1160" result="effect2_dropShadow_67_1160"/>
<feBlend mode="normal" in="SourceGraphic" in2="effect2_dropShadow_67_1160" result="shape"/>
</filter>
<filter id="filter1_d_67_1160" x="193.69" y="2.58887" width="213.439" height="104.023" filterUnits="userSpaceOnUse" color-interpolation-filters="sRGB">
<feFlood flood-opacity="0" result="BackgroundImageFix"/>
<feColorMatrix in="SourceAlpha" type="matrix" values="0 0 0 0 0 0 0 0 0 0 0 0 0 0 0 0 0 0 127 0" result="hardAlpha"/>
<feOffset dy="1.08"/>
<feComposite in2="hardAlpha" operator="out"/>
<feColorMatrix type="matrix" values="0 0 0 0 1 0 0 0 0 1 0 0 0 0 1 0 0 0 0.5 0"/>
<feBlend mode="normal" in2="BackgroundImageFix" result="effect1_dropShadow_67_1160"/>
<feBlend mode="normal" in="SourceGraphic" in2="effect1_dropShadow_67_1160" result="shape"/>
</filter>
</defs>
</svg>
