<svg width="74" height="57" viewBox="0 0 74 57" fill="none" xmlns="http://www.w3.org/2000/svg">
<path d="M39.4429 40.7759C40.9711 40.616 42.2836 39.6411 42.8693 38.2336C44.5769 34.1259 48.0324 24.654 47.0486 17.2978C45.9549 9.12348 26.9433 2.16988 21.0987 0.217955C20.0302 -0.138666 18.8639 -0.0557539 17.8599 0.452706L6.50232 6.1956C4.83805 7.0377 3.9399 8.86976 4.30078 10.6868C5.41466 16.2999 8.01035 28.1503 11.1141 34.033C14.6543 40.7409 32.4562 41.5071 39.4429 40.7759Z" fill="url(#paint0_linear_67_84)"/>
<path opacity="0.81" d="M19.5927 2.48738C43.9288 9.35309 46.7603 19.0128 38.8483 34.7711C38.5509 35.3645 37.9682 35.764 37.3029 35.826C31.5743 36.3614 15.4658 34.887 13.7411 30.8852C8.67469 22.1865 7.55881 8.08344 18.1754 2.63223C18.6119 2.40747 19.121 2.35352 19.5927 2.48738Z" fill="#6EF3FF"/>
<path d="M13.736 35.4804C13.736 35.4804 22.1168 27.9504 23.4878 26.0245C24.8587 24.0985 20.1562 15.0582 20.1562 15.0582C20.1562 15.0582 10.3047 10.0455 5.81083 8.49512C5.81083 8.49512 5.73322 25.2283 13.736 35.4804Z" fill="#368ADD"/>
<path d="M46.6212 17.6367C46.6212 17.6367 48.2612 25.6252 42.1969 38.7942C42.1969 38.7942 41.7382 28.0916 42.3219 25.3565C42.9065 22.6214 46.6212 17.6367 46.6212 17.6367Z" fill="#368ADD"/>
<path d="M38.8919 8.85599C38.8919 8.85599 42.6478 10.6541 38.9029 11.4802C35.1581 12.3063 20.6686 14.2553 20.6686 14.2553C20.6686 14.2553 11.445 11.0047 6.01373 7.27569C6.01373 7.27569 16.8501 1.52479 19.5063 0.507869C22.1625 -0.509051 38.8919 8.85599 38.8919 8.85599Z" fill="#6EFFFF"/>
<path opacity="0.8" d="M42.0444 24.6442C43.4375 22.6144 42.7339 15.6778 39.107 11.665C39.107 11.665 27.6325 12.9207 20.7204 14.8427C20.7204 14.8427 23.9441 24.6233 24.3483 25.812C24.7515 27.0007 42.0444 24.6442 42.0444 24.6442Z" fill="url(#paint1_linear_67_84)"/>
<path opacity="0.9" d="M6.01386 7.27539C6.01386 7.27539 21.5921 13.9013 22.9973 13.2271C29.991 9.07547 39.0986 12.4689 39.0986 12.4689C29.3247 14.0082 20.7554 14.9312 20.7554 14.9312C20.8381 14.8523 20.9227 14.7794 21.0074 14.7035L20.7211 14.8423L6.01386 7.27539Z" fill="#6EFFFF"/>
<path opacity="0.55" d="M19.9593 29.1626C18.7658 29.71 13.1016 34.1673 14.1288 35.33C15.9221 37.3589 23.0086 39.9182 26.3059 39.3338C26.7888 39.2479 21.3091 28.5432 19.9593 29.1626Z" fill="#0978FF"/>
<path opacity="0.5" d="M5.81106 8.49512C5.35341 11.7287 6.71728 20.0958 7.4098 22.4723C8.10132 24.8497 14.331 36.5313 14.1304 35.3296C13.9288 34.1279 16.6656 33.2198 16.4509 32.6894C9.80187 16.3118 11.948 11.2222 10.7686 10.6548C8.22833 9.43312 5.81106 8.49512 5.81106 8.49512Z" fill="#368ADD"/>
<path d="M20.668 14.2548C20.668 14.2548 6.8125 7.34511 6.01313 7.27518C5.21275 7.20526 12.8779 11.9222 15.4756 13.0301C18.0733 14.1379 20.668 14.2548 20.668 14.2548Z" fill="#DBFFFF"/>
<path d="M27.7129 26.2627C27.7129 26.2627 25.9448 25.2998 25.0285 24.5975C23.9993 23.8093 23.5326 22.6935 23.1021 21.7765C22.3743 20.2262 23.4549 25.8362 23.6707 25.978C23.8864 26.1199 27.7129 26.2627 27.7129 26.2627Z" fill="#DBFFFF"/>
<path d="M25.8179 2.49865C25.8179 2.49865 26.2322 2.95617 24.5024 2.69245C22.6657 2.41175 21.9934 1.27297 21.9934 1.27297C21.9934 1.27297 24.074 1.12811 25.8179 2.49865Z" fill="#DBFFFF"/>
<path d="M39.8879 12.7961C40.404 12.9579 40.6712 10.8532 40.3798 10.7443C40.0885 10.6354 38.144 11.1468 37.4888 11.6513C36.9606 12.0579 39.8879 12.7961 39.8879 12.7961Z" fill="#DBFFFF"/>
<path d="M24.3477 25.8115C24.3477 25.8115 19.2571 32.2567 13.7361 35.4802C13.7361 35.4802 15.486 30.8971 24.3477 25.8115Z" fill="#6EFFFF"/>
<path opacity="0.5" d="M37.7148 39.6171C28.0589 40.2465 12.9373 34.5006 14.3677 35.8222C15.7991 37.1438 21.4068 40.1745 26.692 40.5651C31.9771 40.9547 37.7148 39.6171 37.7148 39.6171Z" fill="#368AC5"/>
<path d="M38.5073 24.8253C41.3852 24.3118 42.7743 19.391 42.1432 17.506C41.5122 15.62 43.9496 20.7606 42.0445 24.6435L42.3217 25.3547C42.3217 25.3547 43.0182 32.8867 42.1967 38.7924C42.1967 38.7924 40.4145 36.402 41.74 28.3435C41.736 28.3705 41.737 28.3545 41.741 28.3365C41.7693 28.1627 41.7995 27.9859 41.8318 27.8071C42.0858 25.6953 40.5919 25.6094 39.8711 26.029C37.8097 27.2567 34.7967 28.827 32.8451 28.822C29.6597 28.815 23.4885 26.023 23.4885 26.023C24.8847 25.6104 33.5235 25.095 38.5073 24.8253Z" fill="#6EFFFF"/>
<path opacity="0.5" d="M46.308 22.8809C46.1619 18.4636 42.2749 36.1798 42.1186 37.8011C41.9624 39.4204 46.6114 32.0512 46.308 22.8809Z" fill="#368ADD"/>
<path d="M46.9189 16.626C46.9189 16.626 43.8757 19.8785 42.4523 24.8692C42.4523 24.8692 46.4855 21.4149 46.9189 16.626Z" fill="#6EFFFF"/>
<path d="M8.17793 25.2539C8.17793 25.2539 20.7229 28.459 21.7509 28.5796C22.7799 28.7001 40.0449 32.1911 41.3389 32.1762C42.6329 32.1612 46.9199 23.8213 46.9199 23.8213L45.5359 31.7836C45.5359 31.7836 43.9999 38.7935 40.8859 40.272C37.7719 41.7505 22.7519 40.5291 22.7519 40.5291L9.20692 29.0598L8.17793 25.2539Z" fill="#003E8B"/>
<path d="M66.2123 54.501C67.3568 54.3255 68.4167 53.5337 68.9794 52.4338C70.621 49.2247 74.0482 41.8413 73.9995 36.2329C73.9448 30.0003 60.5321 25.3184 56.3909 24.021C55.6343 23.7836 54.7643 23.8883 53.9748 24.3122L45.0493 29.1058C43.7418 29.8078 42.9086 31.2448 43.008 32.625C43.3143 36.8921 44.1405 45.892 45.8924 50.2977C47.8919 55.3227 60.9805 55.3008 66.2123 54.501Z" fill="url(#paint2_linear_67_84)"/>
<path opacity="0.81" d="M55.0683 25.813C72.4253 30.2467 73.6274 37.5573 66.3264 49.9148C66.052 50.3795 65.5837 50.7066 65.0866 50.7774C60.8022 51.3837 49.031 50.8044 48.1243 47.7938C45.1812 41.2949 45.6565 30.5169 54.0074 25.9726C54.3504 25.7861 54.7312 25.7273 55.0683 25.813Z" fill="#6EF3FF"/>
<path d="M47.698 51.3187C47.698 51.3187 54.5873 45.2565 55.7785 43.7318C56.9696 42.2071 54.3268 35.4349 54.3268 35.4349C54.3268 35.4349 47.5071 31.9277 44.3274 30.8916C44.3274 30.8916 42.7267 43.7298 47.698 51.3187Z" fill="#368ADD"/>
<path d="M73.6523 36.5078C73.6523 36.5078 74.1286 42.5789 68.4314 52.8862C68.4314 52.8862 69.0787 44.693 69.7627 42.5749C70.4468 40.4578 73.6523 36.5078 73.6523 36.5078Z" fill="#368ADD"/>
<path opacity="0.8" d="M68.7486 30.0369C68.7486 30.0369 71.3596 31.2874 68.5149 32.0493C65.6703 32.8102 54.7801 34.8017 54.7801 34.8017C54.7801 34.8017 48.2616 32.6237 44.5898 29.9502C44.5898 29.9502 53.1306 25.1685 55.1877 24.2979C57.2449 23.4264 68.7486 30.0369 68.7486 30.0369Z" fill="#6EFFFF"/>
<path opacity="0.8" d="M69.6241 42.0381C70.8411 40.4336 70.9605 35.1374 68.6488 32.1836C68.6488 32.1836 60.0503 33.5398 54.7638 35.25C54.7638 35.25 56.2452 42.6414 56.4341 43.5399C56.623 44.4374 69.6241 42.0381 69.6241 42.0381Z" fill="url(#paint3_linear_67_84)"/>
<path opacity="0.9" d="M44.5885 29.9502C44.5885 29.9502 55.4937 34.4995 56.5944 33.9341C62.1464 30.5106 68.5664 32.8012 68.5664 32.8012C61.1988 34.316 54.7798 35.3172 54.7798 35.3172C54.8484 35.2544 54.918 35.1946 54.9866 35.1337L54.7619 35.2504L44.5885 29.9502Z" fill="#6EFFFF"/>
<path opacity="0.55" d="M62.6208 46.1551C63.1945 47.0247 67.3506 51.1402 68.1152 50.3833C69.4495 49.061 70.5163 43.8655 69.6443 41.4582C69.5181 41.1052 61.9725 45.1718 62.6208 46.1551Z" fill="#0978FF"/>
<path opacity="0.5" d="M44.3271 30.8926C43.6908 33.3886 43.9284 39.7589 44.2207 41.5588C44.513 43.3588 48.0417 52.1054 48.0029 51.19C47.9651 50.2755 50.072 49.4848 49.9616 49.0859C46.5562 36.7522 48.6124 32.7753 47.7921 32.3804C46.0283 31.5288 44.3271 30.8926 44.3271 30.8926Z" fill="#368ADD"/>
<path d="M54.7793 34.8018C54.7793 34.8018 45.1746 29.9763 44.589 29.9503C44.0044 29.9244 49.2352 33.2791 51.0538 34.0409C52.8723 34.8008 54.7793 34.8018 54.7793 34.8018Z" fill="#DBFFFF"/>
<path d="M58.8799 43.771C58.8799 43.771 57.6619 43.0929 57.0484 42.5853C56.3604 42.0159 56.1178 41.1762 55.8841 40.4871C55.4894 39.3234 55.7708 43.5885 55.917 43.6902C56.0631 43.7929 58.8799 43.771 58.8799 43.771Z" fill="#DBFFFF"/>
<path d="M59.6683 25.6081C59.6683 25.6081 59.9318 25.9449 58.678 25.8014C57.3467 25.649 56.954 24.7992 56.954 24.7992C56.954 24.7992 58.505 24.6178 59.6683 25.6081Z" fill="#DBFFFF"/>
<path d="M69.1218 33.0252C69.4886 33.1319 69.8804 31.5084 69.6746 31.4346C69.4698 31.3608 67.9853 31.8196 67.4544 32.2294C67.0258 32.5585 69.1218 33.0252 69.1218 33.0252Z" fill="#DBFFFF"/>
<path d="M56.4336 43.54C56.4336 43.54 52.0767 48.6578 47.6979 51.3193C47.6979 51.3193 49.414 47.7443 56.4336 43.54Z" fill="#6EFFFF"/>
<path opacity="0.44" d="M65.042 53.6712C57.8464 54.4849 47.1968 50.5947 48.1334 51.5591C49.069 52.5234 52.9357 54.6564 56.8064 54.7751C60.6771 54.8938 65.042 53.6712 65.042 53.6712Z" fill="#368AFF"/>
<path d="M66.9915 42.3001C69.166 41.8075 70.6465 37.9861 70.3541 36.5621C70.0618 35.1371 71.3892 38.9963 69.6233 42.0398L69.7625 42.5763C69.7625 42.5763 69.5826 48.3293 68.4312 52.8876C68.4312 52.8876 67.3345 51.1155 69.0566 44.8889C69.0954 44.7493 69.1342 44.6126 69.1739 44.475C69.5567 42.8466 68.4601 42.8316 67.8883 43.1776C66.2518 44.1898 63.8794 45.4972 62.4368 45.56C60.0823 45.6637 55.7781 43.7331 55.7781 43.7331C56.8489 43.3681 63.2829 42.677 66.9915 42.3001Z" fill="#6EFFFF"/>
<path opacity="0.5" d="M72.9379 40.5409C73.2372 37.1573 68.7301 50.8791 68.4656 52.1276C68.2002 53.3751 72.3165 47.5633 72.9379 40.5409Z" fill="#368ADD"/>
<path d="M73.9648 35.7227C73.9648 35.7227 71.4155 38.3214 69.9032 42.1976C69.9032 42.1976 73.2032 39.4094 73.9648 35.7227Z" fill="#6EFFFF"/>
<path d="M33.3415 43.6118C32.4645 36.3449 26.5955 29.8042 20.1655 28.7382C14.0385 27.723 7.18847 28.3397 5.01647 30.6581C1.58347 34.3224 -0.0965271 49.3146 1.77147 51.6947C4.11247 54.6786 24.6835 57.3367 31.0595 51.4945C33.2525 49.487 33.6995 46.5728 33.3415 43.6118Z" fill="url(#paint4_linear_67_84)"/>
<path opacity="0.81" d="M8.18674 32.2898C11.6757 28.9403 30.4987 29.2959 31.2727 42.1521C31.2747 42.1879 31.2787 42.2258 31.2837 42.2627C32.7777 52.926 14.0467 51.0799 6.35074 49.1042C5.49574 48.885 4.79774 47.9375 4.80174 46.999C4.82174 42.6014 6.50874 33.5013 8.18674 32.2898Z" fill="#6EF3FF"/>
<path d="M2.5076 51.5075C2.5076 51.5075 11.9566 47.4535 16.4446 46.5718C20.9326 45.6901 31.8916 49.2558 31.8916 49.2558C31.8916 49.2558 22.0616 58.9229 2.5076 51.5075Z" fill="#368ADD"/>
<path opacity="0.8" d="M32.3326 48.4132C32.3326 48.4132 34.5006 38.0498 24.0706 30.5377C24.0706 30.5377 16.0556 27.5807 6.79559 31.7841C6.79559 31.7841 12.5666 41.6424 16.7716 45.5369C16.7716 45.5369 25.7986 46.2751 32.3326 48.4132Z" fill="url(#paint5_linear_67_84)"/>
<path d="M16.7715 45.536C16.7715 45.536 11.8325 40.1022 6.79549 31.7832C6.79549 31.7832 7.00548 40.9451 16.7715 45.536Z" fill="#6EFFFF"/>
<path opacity="0.5" d="M22.6503 30.6395C17.2113 31.1496 12.2923 30.2311 12.9433 29.8854C13.5943 29.5396 18.1203 29.0276 20.1673 29.3165C22.2133 29.6054 24.4493 30.4712 22.6503 30.6395Z" fill="#6EF6FF"/>
<path d="M12.2022 41.9942C14.2932 43.1419 12.7392 46.1965 10.2992 44.999C7.85419 43.7985 10.1772 40.8823 12.2022 41.9942Z" fill="url(#paint6_linear_67_84)"/>
<path d="M12.2021 41.9944C14.2931 43.1421 12.8571 46.1479 10.4161 44.9504C7.97109 43.7508 10.1771 40.8825 12.2021 41.9944Z" fill="#368AA7"/>
<path d="M10.299 44.999C12.74 46.1965 14.293 43.1419 12.202 41.9942C12.159 41.9703 12.116 41.9494 12.073 41.9294C11.621 41.7212 11.17 41.7451 10.893 41.9394C10.155 42.4585 9.94297 43.7118 10.578 44.3195C11.309 45.0189 10.646 45.278 9.87797 44.741C9.99897 44.8326 10.138 44.9193 10.299 44.999Z" fill="#368AFF"/>
<path d="M10.2994 44.999C9.49544 44.6045 9.20843 44.0276 9.25343 43.4697C9.11543 44.2389 9.35844 45.0219 10.2334 45.4703C11.5274 46.1328 12.6054 45.3248 13.0234 44.2349C12.6424 45.0747 11.5994 45.6366 10.2994 44.999Z" fill="#6EF6FF"/>
<path opacity="0.67" d="M12.2022 41.9947C12.9622 42.4121 13.2382 43.0856 13.1662 43.7143C13.3152 42.8754 13.0772 41.9847 12.2722 41.5134C11.2022 40.8858 10.0002 41.6968 9.47918 42.7767C9.96518 41.9548 11.1292 41.4058 12.2022 41.9947Z" fill="url(#paint7_linear_67_84)"/>
<path d="M12.202 41.9945C11.414 41.5621 10.581 41.7405 10.001 42.1898C10.502 41.868 11.631 41.9995 11.768 42.935C11.919 43.9732 12.262 44.8848 12.855 44.5231C13.396 43.761 13.318 42.6063 12.202 41.9945Z" fill="#368AFF"/>
<path d="M9.25037 44.4552C9.33537 44.3566 9.74437 44.8468 9.98237 45.2094C10.2214 45.5721 8.96037 44.791 9.25037 44.4552Z" fill="#DBFFFF"/>
<path d="M32.332 48.413C32.332 48.413 24.429 45.0884 16.771 45.5367C16.771 45.5367 30.614 51.2853 32.332 48.413Z" fill="#6EFFFF"/>
<path d="M20.8262 46.0116C20.8262 46.0116 18.0452 45.4536 16.5042 44.5879C15.4992 44.024 14.5752 42.8653 13.9342 42.137C12.8512 40.9066 16.0732 45.4507 16.2792 45.5244C17.0562 45.8033 20.8262 46.0116 20.8262 46.0116Z" fill="#DBFFFF"/>
<path d="M8.94387 34.9356C8.94387 34.9356 9.04387 35.4965 7.95687 34.2362C6.80287 32.8982 6.80188 31.7275 6.80188 31.7275C6.80188 31.7275 8.29687 32.939 8.94387 34.9356Z" fill="#DBFFFF"/>
<path d="M31.0871 47.5888C30.7741 47.8339 31.8261 49.5406 32.0151 49.413C32.2031 49.2855 32.5871 47.6725 32.4821 46.9243C32.3961 46.3215 31.0871 47.5888 31.0871 47.5888Z" fill="#DBFFFF"/>
<path opacity="0.5" d="M21.5871 53.868C24.6911 52.7422 8.62609 52.5041 5.92809 50.0283C4.21408 48.4561 2.85908 39.2863 2.96808 37.5676C3.07708 35.849 -0.143908 49.8639 2.13609 51.3573C4.76809 53.0809 17.0191 55.5248 21.5871 53.868Z" fill="#368ADD"/>
<path d="M5.34879 31.4288C5.34879 31.4288 8.4076 42.7742 17.1423 47.2732C25.877 51.7721 31.6352 51.0809 31.8912 51.6064C32.1472 52.1319 25.5758 56.6991 18.0438 56.2197C10.5117 55.7403 1.5672 55.649 0.967888 50.1662C0.367571 44.6823 3.81387 29.4641 5.34879 31.4288Z" fill="#368ADD"/>
<path d="M44.7044 35.3064C46.4844 41.1397 51.4274 45.6997 52.9524 46.431C54.4774 47.1623 68.3724 51.8199 67.9954 52.8581C67.6194 53.8962 51.8574 56.6669 47.2214 52.1278C42.5844 47.5887 43.4024 31.0373 44.7044 35.3064Z" fill="#368ADD"/>
<defs>
<linearGradient id="paint0_linear_67_84" x1="32.0765" y1="4.52746" x2="17.168" y2="38.5082" gradientUnits="userSpaceOnUse">
<stop offset="0.0597" stop-color="#078ABB"/>
<stop offset="0.6367" stop-color="#279EFF"/>
<stop offset="0.7155" stop-color="#30A4FF"/>
<stop offset="0.8434" stop-color="#48B4FF"/>
<stop offset="1" stop-color="#6ECDFF"/>
</linearGradient>
<linearGradient id="paint1_linear_67_84" x1="41.5962" y1="15.8337" x2="23.2459" y2="22.9862" gradientUnits="userSpaceOnUse">
<stop stop-color="#6EFFFF"/>
<stop offset="1" stop-color="#6ECDFF"/>
</linearGradient>
<linearGradient id="paint2_linear_67_84" x1="64.1085" y1="26.9505" x2="52.1943" y2="54.4924" gradientUnits="userSpaceOnUse">
<stop offset="0.0597" stop-color="#078ADE"/>
<stop offset="0.6367" stop-color="#1F9EFF"/>
<stop offset="0.7095" stop-color="#28A3FF"/>
<stop offset="0.8278" stop-color="#40B2FF"/>
<stop offset="0.976" stop-color="#67C9FF"/>
<stop offset="1" stop-color="#6ECDFF"/>
</linearGradient>
<linearGradient id="paint3_linear_67_84" x1="70.2076" y1="35.252" x2="55.5416" y2="41.4229" gradientUnits="userSpaceOnUse">
<stop stop-color="#6EFFFF"/>
<stop offset="1" stop-color="#6ECDFF"/>
</linearGradient>
<linearGradient id="paint4_linear_67_84" x1="28.4936" y1="34.9465" x2="2.64728" y2="50.3367" gradientUnits="userSpaceOnUse">
<stop stop-color="#078AC7"/>
<stop offset="0.7038" stop-color="#1F9EFF"/>
<stop offset="1" stop-color="#6ECDFF"/>
</linearGradient>
<linearGradient id="paint5_linear_67_84" x1="34.2764" y1="43.6533" x2="6.5692" y2="32.3377" gradientUnits="userSpaceOnUse">
<stop stop-color="#6EFFFF"/>
<stop offset="1" stop-color="#6ECDFF"/>
</linearGradient>
<linearGradient id="paint6_linear_67_84" x1="11.5447" y1="45.2774" x2="11.6436" y2="41.7564" gradientUnits="userSpaceOnUse">
<stop stop-color="#6ECDFF"/>
<stop offset="0.3827" stop-color="#388AFF"/>
<stop offset="1" stop-color="#008AFF"/>
</linearGradient>
<linearGradient id="paint7_linear_67_84" x1="12.6219" y1="42.0948" x2="10.1104" y2="43.7694" gradientUnits="userSpaceOnUse">
<stop stop-color="#4FF9FF"/>
<stop offset="0.9004" stop-color="#6EFFFF"/>
</linearGradient>
</defs>
</svg>
