<svg width="31" height="32" viewBox="0 0 31 32" fill="none" xmlns="http://www.w3.org/2000/svg">
<path d="M23.2123 31.5752C24.3568 31.3997 25.4167 30.6079 25.9794 29.508C27.621 26.2989 31.0482 18.9155 30.9995 13.3072C30.9448 7.07453 17.5321 2.39258 13.3909 1.09519C12.6343 0.857855 11.7643 0.962555 10.9748 1.38637L2.04926 6.18002C0.741795 6.88206 -0.0914059 8.31905 0.0080204 9.6992C0.314257 13.9663 1.1405 22.9662 2.8924 27.3719C4.89189 32.3969 17.9805 32.375 23.2123 31.5752Z" fill="url(#paint0_linear_67_62)"/>
<path opacity="0.81" d="M12.0683 2.88723C29.4253 7.32088 30.6274 14.6315 23.3264 26.9891C23.052 27.4538 22.5837 27.7808 22.0866 27.8516C17.8022 28.458 6.03105 27.8786 5.12427 24.868C2.18122 18.3691 2.65649 7.59113 11.0074 3.04679C11.3504 2.86031 11.7312 2.80147 12.0683 2.88723Z" fill="#6EF3FF"/>
<path d="M4.69801 28.3929C4.69801 28.3929 11.5873 22.3308 12.7785 20.806C13.9696 19.2813 11.3268 12.5092 11.3268 12.5092C11.3268 12.5092 4.50711 9.00193 1.32743 7.96582C1.32743 7.96582 -0.27335 20.804 4.69801 28.3929Z" fill="#368ADD"/>
<path d="M30.6523 13.5811C30.6523 13.5811 31.1286 19.6521 25.4314 29.9594C25.4314 29.9594 26.0787 21.7662 26.7627 19.6481C27.4468 17.531 30.6523 13.5811 30.6523 13.5811Z" fill="#368ADD"/>
<path opacity="0.8" d="M25.7476 7.11115C25.7476 7.11115 28.3586 8.36167 25.514 9.12354C22.6694 9.88442 11.7791 11.8759 11.7791 11.8759C11.7791 11.8759 5.26064 9.69795 1.58879 7.0244C1.58879 7.0244 10.1296 2.24273 12.1867 1.37216C14.2439 0.500586 25.7476 7.11115 25.7476 7.11115Z" fill="#6EFFFF"/>
<path opacity="0.8" d="M26.6241 19.1133C27.8411 17.5088 27.9605 12.2126 25.6488 9.25879C25.6488 9.25879 17.0503 10.615 11.7638 12.3252C11.7638 12.3252 13.2452 19.7166 13.4341 20.6151C13.623 21.5126 26.6241 19.1133 26.6241 19.1133Z" fill="url(#paint1_linear_67_62)"/>
<path opacity="0.9" d="M1.58853 7.02441C1.58853 7.02441 12.4937 11.5737 13.5944 11.0083C19.1464 7.58485 25.5664 9.87546 25.5664 9.87546C18.1988 11.3902 11.7798 12.3915 11.7798 12.3915C11.8484 12.3286 11.918 12.2688 11.9866 12.208L11.7619 12.3246L1.58853 7.02441Z" fill="#6EFFFF"/>
<path opacity="0.55" d="M19.6208 23.2293C20.1945 24.0989 24.3506 28.2144 25.1152 27.4575C26.4495 26.1352 27.5163 20.9397 26.6443 18.5324C26.5181 18.1794 18.9725 22.246 19.6208 23.2293Z" fill="#0978FF"/>
<path opacity="0.5" d="M1.32611 7.9668C0.689778 10.4628 0.927415 16.8331 1.21973 18.6331C1.51205 20.433 5.04072 29.1797 5.00194 28.2642C4.96416 27.3498 7.07102 26.559 6.96065 26.1601C3.55527 13.8265 5.61143 9.84955 4.79115 9.45465C3.02731 8.60303 1.32611 7.9668 1.32611 7.9668Z" fill="#368ADD"/>
<path d="M11.7793 11.876C11.7793 11.876 2.17463 7.05049 1.589 7.02456C1.00437 6.99864 6.23524 10.3533 8.05376 11.1152C9.87229 11.875 11.7793 11.876 11.7793 11.876Z" fill="#DBFFFF"/>
<path d="M15.8799 20.8452C15.8799 20.8452 14.6619 20.1671 14.0484 19.6595C13.3604 19.0901 13.1178 18.2504 12.8841 17.5614C12.4894 16.3976 12.7708 20.6627 12.917 20.7644C13.0631 20.8671 15.8799 20.8452 15.8799 20.8452Z" fill="#DBFFFF"/>
<path d="M16.6693 2.68236C16.6693 2.68236 16.9328 3.01911 15.679 2.87565C14.3477 2.72321 13.9549 1.87338 13.9549 1.87338C13.9549 1.87338 15.506 1.69205 16.6693 2.68236Z" fill="#DBFFFF"/>
<path d="M26.1218 10.0994C26.4886 10.2061 26.8804 8.58265 26.6746 8.50885C26.4698 8.43506 24.9853 8.89379 24.4544 9.30365C24.0258 9.63273 26.1218 10.0994 26.1218 10.0994Z" fill="#DBFFFF"/>
<path d="M13.4336 20.6143C13.4336 20.6143 9.0767 25.732 4.69792 28.3936C4.69792 28.3936 6.41403 24.8185 13.4336 20.6143Z" fill="#6EFFFF"/>
<path opacity="0.44" d="M22.042 30.7454C14.8464 31.5591 4.19679 27.669 5.13339 28.6333C6.069 29.5976 9.93573 31.7306 13.8064 31.8493C17.6771 31.968 22.042 30.7454 22.042 30.7454Z" fill="#368AFF"/>
<path d="M23.9915 19.3743C26.166 18.8817 27.6465 15.0603 27.3541 13.6363C27.0618 12.2113 28.3892 16.0705 26.6233 19.114L26.7625 19.6505C26.7625 19.6505 26.5826 25.4035 25.4312 29.9618C25.4312 29.9618 24.3345 28.1897 26.0566 21.9631C26.0954 21.8235 26.1342 21.6869 26.1739 21.5492C26.5567 19.9208 25.4601 19.9058 24.8883 20.2519C23.2518 21.264 20.8794 22.5714 19.4368 22.6342C17.0823 22.7379 12.7781 20.8073 12.7781 20.8073C13.8489 20.4423 20.2829 19.7513 23.9915 19.3743Z" fill="#6EFFFF"/>
<path opacity="0.5" d="M29.9379 17.6151C30.2372 14.2316 25.7301 27.9533 25.4656 29.2018C25.2002 30.4494 29.3165 24.6376 29.9379 17.6151Z" fill="#368ADD"/>
<path d="M30.9648 12.7969C30.9648 12.7969 28.4155 15.3956 26.9032 19.2718C26.9032 19.2718 30.2032 16.4836 30.9648 12.7969Z" fill="#6EFFFF"/>
<path d="M1.87202 12.392C3.64183 18.2308 8.55652 22.795 10.0728 23.527C11.589 24.259 25.4045 28.9209 25.0296 29.96C24.6558 30.9992 8.98405 33.7724 4.37461 29.2291C-0.235834 24.6857 0.577482 8.11894 1.87202 12.392Z" fill="#368ADD"/>
<defs>
<linearGradient id="paint0_linear_67_62" x1="21.1085" y1="4.02475" x2="9.19433" y2="31.5666" gradientUnits="userSpaceOnUse">
<stop offset="0.0597" stop-color="#078ADE"/>
<stop offset="0.6367" stop-color="#1F9EFF"/>
<stop offset="0.7095" stop-color="#28A3FF"/>
<stop offset="0.8278" stop-color="#40B2FF"/>
<stop offset="0.976" stop-color="#67C9FF"/>
<stop offset="1" stop-color="#6ECDFF"/>
</linearGradient>
<linearGradient id="paint1_linear_67_62" x1="27.2076" y1="12.3272" x2="12.5416" y2="18.4981" gradientUnits="userSpaceOnUse">
<stop stop-color="#6EFFFF"/>
<stop offset="1" stop-color="#6ECDFF"/>
</linearGradient>
</defs>
</svg>
