<svg width="33" height="28" viewBox="0 0 33 28" fill="none" xmlns="http://www.w3.org/2000/svg">
<path d="M0.564201 16.2318C1.42891 8.8923 7.21566 2.28637 13.5556 1.2097C19.5967 0.184351 26.3507 0.807211 28.4923 3.14872C31.8771 6.84964 33.5336 21.9914 31.6918 24.3953C29.3836 27.409 9.10086 30.0936 2.81422 24.1931C0.651952 22.1655 0.211218 19.2223 0.564201 16.2318Z" fill="url(#paint0_linear_67_40)"/>
<path opacity="0.81" d="M25.3663 4.79692C21.9262 1.41396 3.367 1.77317 2.60385 14.7576C2.60187 14.7938 2.59793 14.8321 2.593 14.8693C1.11994 25.639 19.5884 23.7745 27.1766 21.7791C28.0196 21.5578 28.7078 20.6008 28.7039 19.6529C28.6842 15.2114 27.0208 6.0205 25.3663 4.79692Z" fill="#6EF3FF"/>
<path d="M30.9664 24.2066C30.9664 24.2066 21.6498 20.1122 17.2247 19.2217C12.7996 18.3312 1.99414 21.9325 1.99414 21.9325C1.99414 21.9325 11.6864 31.696 30.9664 24.2066Z" fill="#368ADD"/>
<path opacity="0.8" d="M1.55932 21.0811C1.55932 21.0811 -0.578292 10.6143 9.70554 3.02729C9.70554 3.02729 17.6082 0.0407786 26.7384 4.28608C26.7384 4.28608 21.0483 14.2428 16.9022 18.1761C16.9022 18.1761 8.00176 18.9218 1.55932 21.0811Z" fill="url(#paint1_linear_67_40)"/>
<path d="M16.9023 18.1752C16.9023 18.1752 21.7721 12.6872 26.7385 4.28516C26.7385 4.28516 26.5315 13.5385 16.9023 18.1752Z" fill="#6EFFFF"/>
<path opacity="0.5" d="M11.1051 3.12918C16.4678 3.64437 21.3179 2.71664 20.676 2.36747C20.0342 2.01831 15.5716 1.50111 13.5533 1.79292C11.5359 2.08472 9.33128 2.95913 11.1051 3.12918Z" fill="#6EF6FF"/>
<path d="M21.4071 14.5982C19.3454 15.7574 20.8777 18.8425 23.2835 17.633C25.6942 16.4205 23.4038 13.4753 21.4071 14.5982Z" fill="url(#paint2_linear_67_40)"/>
<path d="M21.4068 14.5985C19.3451 15.7576 20.761 18.7934 23.1678 17.584C25.5785 16.3724 23.4034 13.4755 21.4068 14.5985Z" fill="#368AA7"/>
<path d="M23.2827 17.6327C20.8759 18.8421 19.3447 15.757 21.4064 14.5979C21.4488 14.5737 21.4912 14.5526 21.5336 14.5325C21.9792 14.3221 22.4239 14.3463 22.697 14.5425C23.4247 15.0668 23.6337 16.3326 23.0076 16.9464C22.2869 17.6528 22.9406 17.9144 23.6978 17.372C23.5785 17.4646 23.4415 17.5522 23.2827 17.6327Z" fill="#368AFF"/>
<path d="M23.2835 17.6334C24.0762 17.235 24.3592 16.6524 24.3148 16.0889C24.4509 16.8657 24.2113 17.6566 23.3486 18.1094C22.0727 18.7785 21.0098 17.9625 20.5977 16.8616C20.9733 17.7099 22.0017 18.2774 23.2835 17.6334Z" fill="#6EF6FF"/>
<path opacity="0.67" d="M21.4068 14.5983C20.6574 15.0199 20.3853 15.7002 20.4563 16.3351C20.3094 15.4878 20.544 14.5883 21.3378 14.1123C22.3928 13.4784 23.5779 14.2975 24.0916 15.3882C23.6124 14.5581 22.4647 14.0036 21.4068 14.5983Z" fill="url(#paint3_linear_67_40)"/>
<path d="M21.4064 14.5986C22.1833 14.1619 23.0047 14.342 23.5765 14.7958C23.0826 14.4708 21.9694 14.6036 21.8343 15.5485C21.6854 16.597 21.3472 17.5176 20.7625 17.1524C20.2291 16.3826 20.306 15.2164 21.4064 14.5986Z" fill="#368AFF"/>
<path d="M24.3171 17.0833C24.2333 16.9837 23.83 17.4787 23.5953 17.845C23.3597 18.2113 24.603 17.4224 24.3171 17.0833Z" fill="#DBFFFF"/>
<path d="M1.55859 21.0808C1.55859 21.0808 9.35084 17.723 16.9015 18.1758C16.9015 18.1758 3.25252 23.9818 1.55859 21.0808Z" fill="#6EFFFF"/>
<path d="M12.9043 18.6559C12.9043 18.6559 15.6463 18.0924 17.1657 17.218C18.1566 16.6484 19.0677 15.4782 19.6997 14.7426C20.7675 13.4999 17.5907 18.0894 17.3876 18.1638C16.6215 18.4456 12.9043 18.6559 12.9043 18.6559Z" fill="#DBFFFF"/>
<path d="M24.6205 7.46859C24.6205 7.46859 24.5219 8.03509 25.5937 6.7622C26.7315 5.41083 26.7325 4.22852 26.7325 4.22852C26.7325 4.22852 25.2585 5.4521 24.6205 7.46859Z" fill="#DBFFFF"/>
<path d="M2.78662 20.2484C3.09523 20.496 2.05798 22.2197 1.87163 22.0909C1.68627 21.9621 1.30765 20.333 1.41117 19.5773C1.49597 18.9685 2.78662 20.2484 2.78662 20.2484Z" fill="#DBFFFF"/>
<path opacity="0.5" d="M12.1535 26.5897C9.09295 25.4527 24.9328 25.2122 27.593 22.7117C29.283 21.1239 30.619 11.8625 30.5115 10.1267C30.4041 8.39097 33.5799 22.5457 31.3319 24.054C28.7367 25.7948 16.6574 28.2631 12.1535 26.5897Z" fill="#368ADD"/>
<path d="M28.0629 3.91875C28.0629 3.91875 25.0586 14.8022 16.4795 19.1179C7.90047 23.4336 2.24486 22.7705 1.99344 23.2747C1.74201 23.7788 8.19627 28.1599 15.5941 27.7001C22.992 27.2402 31.7771 27.1527 32.3657 21.8931C32.9554 16.6325 29.5705 2.03408 28.0629 3.91875Z" fill="#368ADD"/>
<defs>
<linearGradient id="paint0_linear_67_40" x1="5.34416" y1="7.47995" x2="31.1453" y2="22.4783" gradientUnits="userSpaceOnUse">
<stop stop-color="#078AC7"/>
<stop offset="0.7038" stop-color="#1F9EFF"/>
<stop offset="1" stop-color="#6ECDFF"/>
</linearGradient>
<linearGradient id="paint1_linear_67_40" x1="-0.357266" y1="16.2738" x2="27.1462" y2="5.30815" gradientUnits="userSpaceOnUse">
<stop stop-color="#6EFFFF"/>
<stop offset="1" stop-color="#6ECDFF"/>
</linearGradient>
<linearGradient id="paint2_linear_67_40" x1="22.0554" y1="17.9142" x2="21.9531" y2="14.3582" gradientUnits="userSpaceOnUse">
<stop stop-color="#6ECDFF"/>
<stop offset="0.3827" stop-color="#388AFF"/>
<stop offset="1" stop-color="#008AFF"/>
</linearGradient>
<linearGradient id="paint3_linear_67_40" x1="20.9929" y1="14.6994" x2="23.5056" y2="16.335" gradientUnits="userSpaceOnUse">
<stop stop-color="#4FF9FF"/>
<stop offset="0.9004" stop-color="#6EFFFF"/>
</linearGradient>
</defs>
</svg>
