<?xml version="1.0" encoding="utf-8"?>
<!-- Generator: Adobe Illustrator 27.1.1, SVG Export Plug-In . SVG Version: 6.00 Build 0)  -->
<svg version="1.1" id="Слой_1" xmlns="http://www.w3.org/2000/svg" xmlns:xlink="http://www.w3.org/1999/xlink" x="0px" y="0px"
	 viewBox="0 0 216 54" style="enable-background:new 0 0 216 54;" xml:space="preserve">
<style type="text/css">
	.st0{fill:url(#SVGID_1_);}
	.st1{fill:url(#SVGID_00000023248355894843035800000010166078672341116838_);}
	.st2{fill:url(#SVGID_00000134240981130437758000000004069643757030942625_);}
</style>
<g>
	
		<linearGradient id="SVGID_1_" gradientUnits="userSpaceOnUse" x1="108" y1="55.999" x2="108" y2="10.999" gradientTransform="matrix(1 0 0 -1 0 56)">
		<stop  offset="0" style="stop-color:#347DAC"/>
		<stop  offset="1" style="stop-color:#2D7493"/>
	</linearGradient>
	<path class="st0" d="M0,8.8c0-1.5,0.6-2.9,1.6-3.9l3.5-3.4c1-1,2.4-1.5,3.8-1.5l198.4,0c1.4,0,2.8,0.6,3.8,1.6l3.3,3.3
		c1,1,1.6,2.4,1.6,3.8v7.5c0,0.3-0.2,0.5-0.5,0.5h-1.1l1.3,0.7c0.2,0.1,0.3,0.3,0.3,0.5v18c0,1.4-0.5,2.7-1.4,3.6l-3.4,3.7
		c-1,1.1-2.5,1.8-4,1.8L9,45c-1.5,0-2.9-0.6-3.9-1.7l-3.6-3.8c-1-1-1.5-2.3-1.5-3.7v-2.3c0-1,0.3-2,0.7-2.9c0.2-0.4,0.3-0.9,0.4-1.3
		c0.1-0.8-0.2-1.8-0.5-2.5C0.2,26,0,25.1,0,24.2V8.8z"/>
	
		<linearGradient id="SVGID_00000023248806039007141530000013142331187964056467_" gradientUnits="userSpaceOnUse" x1="108" y1="55.999" x2="108" y2="10.999" gradientTransform="matrix(1 0 0 -1 0 56)">
		<stop  offset="0" style="stop-color:#C2F1B2"/>
		<stop  offset="1" style="stop-color:#649D63"/>
	</linearGradient>
	<path style="fill:url(#SVGID_00000023248806039007141530000013142331187964056467_);" d="M0,8.8c0-1.5,0.6-2.9,1.6-3.9l3.5-3.4
		c1-1,2.4-1.5,3.8-1.5l198.4,0c1.4,0,2.8,0.6,3.8,1.6l3.3,3.3c1,1,1.6,2.4,1.6,3.8v7.5c0,0.3-0.2,0.5-0.5,0.5h-1.1l1.3,0.7
		c0.2,0.1,0.3,0.3,0.3,0.5v18c0,1.4-0.5,2.7-1.4,3.6l-3.4,3.7c-1,1.1-2.5,1.8-4,1.8L9,45c-1.5,0-2.9-0.6-3.9-1.7l-3.6-3.8
		c-1-1-1.5-2.3-1.5-3.7v-2.3c0-1,0.3-2,0.7-2.9c0.2-0.4,0.3-0.9,0.4-1.3c0.1-0.8-0.2-1.8-0.5-2.5C0.2,26,0,25.1,0,24.2V8.8z"/>
</g>
<g>
	
		<linearGradient id="SVGID_00000151504865706324431710000002981656106794750630_" gradientUnits="userSpaceOnUse" x1="108" y1="51" x2="108" y2="16" gradientTransform="matrix(1 0 0 -1 0 56)">
		<stop  offset="0" style="stop-color:#189EF5"/>
		<stop  offset="1" style="stop-color:#174D7E"/>
	</linearGradient>
	<path style="fill:url(#SVGID_00000151504865706324431710000002981656106794750630_);" d="M5,12.6c0-1.5,0.6-2.9,1.7-3.9L9,6.5
		c1-1,2.3-1.5,3.7-1.5l190.7,0c1.4,0,2.8,0.6,3.8,1.6l2.2,2.2c1,1,1.6,2.4,1.6,3.8v6.8v12.8c0,1.4-0.5,2.7-1.4,3.7l-2.3,2.5
		c-1,1.1-2.5,1.7-4,1.7L12.8,40c-1.5,0-2.9-0.6-3.9-1.7l-2.4-2.5c-1-1-1.5-2.3-1.5-3.7v-2.7L5,24V12.6z"/>
</g>
</svg>
