<?xml version="1.0" encoding="utf-8"?>
<!-- Generator: Adobe Illustrator 27.1.1, SVG Export Plug-In . SVG Version: 6.00 Build 0)  -->
<svg version="1.1" id="Слой_1" xmlns="http://www.w3.org/2000/svg" xmlns:xlink="http://www.w3.org/1999/xlink" x="0px" y="0px"
	 viewBox="0 0 451 250" style="enable-background:new 0 0 451 250;" xml:space="preserve">
<style type="text/css">
	.st0{fill:url(#SVGID_1_);}
	.st1{fill:#FFFFFF;filter:url(#Adobe_OpacityMaskFilter);}
	
		.st2{mask:url(#path-2-inside-1_67_7590_00000001627429633410305690000015049850456722526864_);fill:none;stroke:url(#SVGID_00000060744236807238103880000015052733255930409633_);stroke-width:16;}
	.st3{opacity:0.1;}
	.st4{fill:#FFFFFF;}
</style>
<g>
	<g>
		
			<linearGradient id="SVGID_1_" gradientUnits="userSpaceOnUse" x1="170.2999" y1="304.4366" x2="287.791" y2="-77.1431" gradientTransform="matrix(1 0 0 -1 0 252)">
			<stop  offset="0" style="stop-color:#153F5C"/>
			<stop  offset="1" style="stop-color:#13275B"/>
		</linearGradient>
		<path class="st0" d="M0,54.2c0-14.9,8.2-28.6,21.4-35.6L47.5,4.7C53.3,1.6,59.8,0,66.4,0h320c6.8,0,13.6,1.7,19.5,5.1l24.2,13.4
			c12.8,7.1,20.8,20.6,20.8,35.2v19.7c0,2.2-1.8,4-4,4h-2.1c-1.2,0-1.4,1.7-0.3,2l3.5,1c1.7,0.5,3,2.1,3,3.9v110.4
			c0,14.2-7.4,27.3-19.6,34.5l-25,15c-6.3,3.8-13.4,5.8-20.7,5.8H67.2c-7.1,0-14-1.9-20.1-5.4l-33.6-19.4C5.1,220.5,0,211.6,0,202
			c0-7.6,3.9-14.5,7.7-21.1c0.7-1.2,1.2-2.3,1.3-3.4c0.2-1.1,0.1-2.4-0.2-3.7C6.3,163.5,0,154,0,143.4V54.2z"/>
	</g>
	<defs>
		<filter id="Adobe_OpacityMaskFilter" filterUnits="userSpaceOnUse" x="-8" y="-8" width="467" height="266">
			<feColorMatrix  type="matrix" values="1 0 0 0 0  0 1 0 0 0  0 0 1 0 0  0 0 0 1 0"/>
		</filter>
	</defs>
	
		<mask maskUnits="userSpaceOnUse" x="-8" y="-8" width="467" height="266" id="path-2-inside-1_67_7590_00000001627429633410305690000015049850456722526864_">
		<path class="st1" d="M0,54.2c0-14.9,8.2-28.6,21.4-35.6L47.5,4.7C53.3,1.6,59.8,0,66.4,0h320c6.8,0,13.6,1.7,19.5,5.1l24.2,13.4
			c12.8,7.1,20.8,20.6,20.8,35.2v19.7c0,2.2-1.8,4-4,4h-2.1c-1.2,0-1.4,1.7-0.3,2l3.5,1c1.7,0.5,3,2.1,3,3.9v110.4
			c0,14.2-7.4,27.3-19.6,34.5l-25,15c-6.3,3.8-13.4,5.8-20.7,5.8H67.2c-7.1,0-14-1.9-20.1-5.4l-33.6-19.4C5.1,220.5,0,211.6,0,202
			c0-7.6,3.9-14.5,7.7-21.1c0.7-1.2,1.2-2.3,1.3-3.4c0.2-1.1,0.1-2.4-0.2-3.7C6.3,163.5,0,154,0,143.4V54.2z"/>
	</mask>
	
		<linearGradient id="SVGID_00000169520377850210155780000001083531331750498987_" gradientUnits="userSpaceOnUse" x1="225.5" y1="252" x2="225.5" y2="2" gradientTransform="matrix(1 0 0 -1 0 252)">
		<stop  offset="0" style="stop-color:#347DAC"/>
		<stop  offset="1" style="stop-color:#2D7493"/>
	</linearGradient>
	
		<path style="mask:url(#path-2-inside-1_67_7590_00000001627429633410305690000015049850456722526864_);fill:none;stroke:url(#SVGID_00000169520377850210155780000001083531331750498987_);stroke-width:16;" d="
		M0,54.2c0-14.9,8.2-28.6,21.4-35.6L47.5,4.7C53.3,1.6,59.8,0,66.4,0h320c6.8,0,13.6,1.7,19.5,5.1l24.2,13.4
		c12.8,7.1,20.8,20.6,20.8,35.2v19.7c0,2.2-1.8,4-4,4h-2.1c-1.2,0-1.4,1.7-0.3,2l3.5,1c1.7,0.5,3,2.1,3,3.9v110.4
		c0,14.2-7.4,27.3-19.6,34.5l-25,15c-6.3,3.8-13.4,5.8-20.7,5.8H67.2c-7.1,0-14-1.9-20.1-5.4l-33.6-19.4C5.1,220.5,0,211.6,0,202
		c0-7.6,3.9-14.5,7.7-21.1c0.7-1.2,1.2-2.3,1.3-3.4c0.2-1.1,0.1-2.4-0.2-3.7C6.3,163.5,0,154,0,143.4V54.2z"/>
	<g class="st3">
		<path class="st4" d="M224.5,131L260,241h-70L224.5,131z"/>
		<path class="st4" d="M224.5,131L260,8h-70L224.5,131z"/>
		<path class="st4" d="M224.5,131L443,160V90L224.5,131z"/>
		<path class="st4" d="M224.5,131L389,8l-59,0L224.5,131z"/>
		<path class="st4" d="M224.5,131L64,8l55,0L224.5,131z"/>
		<path class="st4" d="M224.5,131L8,92V52L224.5,131z"/>
		<path class="st4" d="M224.5,131L136,241.5H66L224.5,131z"/>
		<path class="st4" d="M224.5,131l88.7,110H383L224.5,131z"/>
		<path class="st4" d="M224.5,131L8,204c0,0-0.6-3.5,1.5-9c2.9-7.5,7.5-12.5,7.5-18c0-7-3-13-5-18c-4.8-12-4-16-4-16L224.5,131z"/>
	</g>
</g>
</svg>
