<svg width="246" height="250" viewBox="0 0 246 250" fill="none" xmlns="http://www.w3.org/2000/svg">
<path d="M150.366 28.5912L210.759 230.778L137.498 68.1818L150.366 28.5912Z" fill="#FFC368"/>
<path d="M41.4209 104.875L210.758 230.777L83.0251 106.323L41.4209 104.875Z" fill="#E7A86E"/>
<path d="M137.499 68.1824L164.21 92.6536L120.97 102.552L96.8797 139.799L83.0263 106.325L41.4202 104.88L76.0962 74.291L74.4717 36.145L109.762 50.7183L150.365 28.5957L137.499 68.1824Z" fill="#FFE145"/>
<path d="M120.971 102.547L210.758 230.777L96.8837 139.8L120.971 102.547Z" fill="url(#paint0_linear_67_7567)"/>
<path d="M164.216 92.6551L210.758 230.778L120.971 102.548L164.216 92.6551Z" fill="#F5982B"/>
<path d="M79.7217 76.2387L48.2167 101.851L88.4661 102.104L96.8797 139.799L83.0263 106.325L41.4202 104.88L76.0962 74.291L74.4717 36.145L79.7217 76.2387Z" fill="#F2E08F"/>
<defs>
<linearGradient id="paint0_linear_67_7567" x1="152.5" y1="144.5" x2="119.5" y2="167" gradientUnits="userSpaceOnUse">
<stop stop-color="#FFC179"/>
<stop offset="1" stop-color="#FFA842"/>
</linearGradient>
</defs>
</svg>
