<svg width="153" height="155" viewBox="0 0 153 155" fill="none" xmlns="http://www.w3.org/2000/svg">
<g filter="url(#filter0_d_67_8035)">
<path d="M43.112 60.5342C30.138 56.8139 22.608 43.2381 26.3262 30.2711C30.0444 17.3042 43.6243 9.78148 56.5983 13.5017C69.5724 17.222 77.1027 30.7979 73.3844 43.7648C69.6663 56.7315 56.086 64.2544 43.112 60.5342ZM54.7513 19.9433C45.3312 17.2421 35.4712 22.7043 32.7715 32.1193C30.0718 41.5342 35.5391 51.3912 44.9592 54.0923C54.3795 56.7936 64.2394 51.3316 66.9391 41.9167C69.6388 32.5017 64.1716 22.6445 54.7513 19.9433Z" fill="#F5982B"/>
<path d="M110.444 79.8408C97.47 76.1206 89.94 62.5447 93.6582 49.5777C97.3764 36.6108 110.956 29.0881 123.93 32.8084C136.904 36.5286 144.434 50.1045 140.716 63.0714C136.998 76.0381 123.418 83.561 110.444 79.8408ZM122.083 39.2499C112.663 36.5488 102.803 42.011 100.104 51.4259C97.4038 60.8409 102.871 70.6978 112.291 73.399C121.711 76.1001 131.571 70.6382 134.271 61.2232C136.97 51.8082 131.503 41.951 122.083 39.2499Z" fill="#F5982B"/>
<path d="M135.468 38.5206C129.012 61.0353 107.933 96.7295 80.021 97.7432L59.2234 91.7796C36.0033 76.0965 37.171 34.7002 43.627 12.1855L135.468 38.5206Z" fill="#FFE266"/>
<path d="M135.468 38.5206C129.012 61.0353 107.933 96.7295 80.021 97.7432L59.2234 91.7796C36.0033 76.0965 37.171 34.7002 43.627 12.1855L135.468 38.5206Z" fill="#FFE145"/>
<path d="M137.884 39.8339L40.8837 12.0194C38.2454 11.2629 36.7195 8.51197 37.4757 5.8751C38.2318 3.23824 40.9835 1.71388 43.6218 2.4704L140.623 30.285C143.261 31.0415 144.787 33.7925 144.031 36.4293C143.274 39.0664 140.523 40.5905 137.884 39.8339Z" fill="#F5982B"/>
<path d="M82.2285 145.659L32.0043 131.257C30.3882 130.794 29.4449 129.093 29.908 127.478L30.2136 126.412C30.6767 124.797 32.3779 123.855 33.994 124.318L84.2182 138.72C85.8343 139.183 86.7776 140.884 86.3145 142.499L86.0089 143.565C85.5458 145.18 83.8446 146.122 82.2285 145.659Z" fill="#FFE266"/>
<path d="M82.2285 145.659L32.0043 131.257C30.3882 130.794 29.4449 129.093 29.908 127.478L30.2136 126.412C30.6767 124.797 32.3779 123.855 33.994 124.318L84.2182 138.72C85.8343 139.183 86.7776 140.884 86.3145 142.499L86.0089 143.565C85.5458 145.18 83.8446 146.122 82.2285 145.659Z" fill="#FFE145"/>
<path d="M75.4933 101.929L60.8877 97.7412L53.6113 123.117L68.217 127.305L75.4933 101.929Z" fill="#FFE266"/>
<path d="M75.4933 101.929L60.8877 97.7412L53.6113 123.117L68.217 127.305L75.4933 101.929Z" fill="#FFE145"/>
<path d="M75.8948 136.333L42.5847 126.782C41.5793 126.493 40.9979 125.445 41.286 124.44L42.0515 121.771C42.3397 120.766 43.3883 120.185 44.3937 120.473L77.7037 130.025C78.7091 130.313 79.2906 131.361 79.0024 132.366L78.2369 135.036C77.9488 136.041 76.9002 136.621 75.8948 136.333Z" fill="#F5982B"/>
<path d="M78.2362 104.058L57.4348 98.0937C56.6293 97.8627 56.1634 97.0228 56.3943 96.2178L57.3672 92.8249C57.598 92.0198 58.4382 91.5544 59.2436 91.7854L80.0451 97.7501C80.8505 97.9811 81.3164 98.821 81.0856 99.626L80.1127 103.019C79.8818 103.824 79.0417 104.289 78.2362 104.058Z" fill="#F5982B"/>
<path d="M49.6482 58.6397C49.0984 58.482 48.6437 58.0472 48.4876 57.4544C44.0527 40.6033 48.1194 22.1444 48.2946 21.367C48.4981 20.4645 49.3948 19.8981 50.2979 20.1015C51.1912 20.2988 51.7683 21.2013 51.5654 22.1039C51.5241 22.2866 47.5074 40.5594 51.7296 56.6028C51.9653 57.4977 51.4304 58.4137 50.5351 58.649C50.2328 58.7284 49.9281 58.72 49.6482 58.6397Z" fill="white"/>
</g>
<defs>
<filter id="filter0_d_67_8035" x="25.376" y="2.27637" width="126.849" height="151.5" filterUnits="userSpaceOnUse" color-interpolation-filters="sRGB">
<feFlood flood-opacity="0" result="BackgroundImageFix"/>
<feColorMatrix in="SourceAlpha" type="matrix" values="0 0 0 0 0 0 0 0 0 0 0 0 0 0 0 0 0 0 127 0" result="hardAlpha"/>
<feOffset dx="4" dy="4"/>
<feGaussianBlur stdDeviation="2"/>
<feComposite in2="hardAlpha" operator="out"/>
<feColorMatrix type="matrix" values="0 0 0 0 0 0 0 0 0 0 0 0 0 0 0 0 0 0 0.25 0"/>
<feBlend mode="normal" in2="BackgroundImageFix" result="effect1_dropShadow_67_8035"/>
<feBlend mode="normal" in="SourceGraphic" in2="effect1_dropShadow_67_8035" result="shape"/>
</filter>
</defs>
</svg>
