<svg width="34" height="69" viewBox="0 0 34 69" fill="none" xmlns="http://www.w3.org/2000/svg">
<ellipse cx="17" cy="66" rx="14" ry="3" fill="black" fill-opacity="0.4"/>
<g filter="url(#filter0_i_67_38483)">
<path d="M13.6235 14.0326C4.92513 17.2944 3.4683 29.3598 4.92525 37.3683C5.92583 42.8683 21.4255 47.368 27.9255 38.3683C29.5609 36.104 28.4255 31.3688 27.9255 28.3687C26.6546 20.742 25.624 9.53266 13.6235 14.0326Z" fill="#A79BB0"/>
</g>
<g filter="url(#filter1_i_67_38483)">
<path d="M8.62695 65.0327C5.62695 60.0327 3.12714 53.0327 2.62664 40.0327C2.53046 37.5346 5.12224 36.5327 5.12224 36.5327C5.12224 36.5327 7.62224 42.6965 17.1222 42.5327C26.6222 42.3689 28.6222 36.5327 28.6222 36.5327C28.6222 36.5327 31.2525 37.6582 31.1222 39.0327C30.127 49.5327 28.127 58.0327 24.1276 65.0327C22.1921 68.4205 10.4888 68.1357 8.62695 65.0327Z" fill="url(#paint0_linear_67_38483)"/>
</g>
<path d="M26.624 34.6266C26.624 38.6987 21.624 42.5264 16.624 39.3665C13.0499 37.1077 11.624 33.0466 11.624 27.7802C11.624 23.7081 17.3285 24.62 21.624 24.62C25.9196 24.62 26.624 30.5545 26.624 34.6266Z" fill="#554A5E"/>
<path d="M26.2402 28.0327C25.7438 32.5005 24.125 37.0327 15.625 37.0327C12.9324 37.0327 10.6249 31.0327 11.625 28.0327C11.7989 27.511 10.4444 27.7915 10.1243 26.5327C9.72641 24.9675 10.388 23.5327 11.6247 23.5327C12.6232 23.5327 13.7428 24.5327 13.7428 24.5327C13.7428 24.5327 16.498 21.6135 19.7402 20.5327C21.8075 19.8436 23.8748 19.6294 24.9604 19.5628C25.4184 19.5347 25.8158 19.8436 25.9014 20.2944C26.1615 21.6644 26.6092 24.7125 26.2402 28.0327Z" fill="#D4CFD9"/>
<path d="M19.6245 24.578C18.1302 24.273 16.594 25.5532 16.6245 27.078C16.6635 29.0302 20.6245 28.5781 21.6245 27.078C22.3179 26.0376 20.8495 24.828 19.6245 24.578Z" fill="#8E7C97"/>
<path d="M26.624 26.896C26.2619 27.6202 24.624 26.5005 24.624 25.396C24.624 24.2914 26.2747 22.848 26.624 23.8959C27.124 25.3958 27.0745 25.9949 26.624 26.896Z" fill="#8E7C97"/>
<defs>
<filter id="filter0_i_67_38483" x="4.43262" y="13" width="24.3442" height="30.4917" filterUnits="userSpaceOnUse" color-interpolation-filters="sRGB">
<feFlood flood-opacity="0" result="BackgroundImageFix"/>
<feBlend mode="normal" in="SourceGraphic" in2="BackgroundImageFix" result="shape"/>
<feColorMatrix in="SourceAlpha" type="matrix" values="0 0 0 0 0 0 0 0 0 0 0 0 0 0 0 0 0 0 127 0" result="hardAlpha"/>
<feOffset dy="0.5"/>
<feComposite in2="hardAlpha" operator="arithmetic" k2="-1" k3="1"/>
<feColorMatrix type="matrix" values="0 0 0 0 1 0 0 0 0 1 0 0 0 0 1 0 0 0 0.5 0"/>
<feBlend mode="normal" in2="shape" result="effect1_innerShadow_67_38483"/>
</filter>
<filter id="filter1_i_67_38483" x="2.62402" y="36.5327" width="28.5029" height="30.9351" filterUnits="userSpaceOnUse" color-interpolation-filters="sRGB">
<feFlood flood-opacity="0" result="BackgroundImageFix"/>
<feBlend mode="normal" in="SourceGraphic" in2="BackgroundImageFix" result="shape"/>
<feColorMatrix in="SourceAlpha" type="matrix" values="0 0 0 0 0 0 0 0 0 0 0 0 0 0 0 0 0 0 127 0" result="hardAlpha"/>
<feOffset dy="0.5"/>
<feComposite in2="hardAlpha" operator="arithmetic" k2="-1" k3="1"/>
<feColorMatrix type="matrix" values="0 0 0 0 1 0 0 0 0 1 0 0 0 0 1 0 0 0 0.5 0"/>
<feBlend mode="normal" in2="shape" result="effect1_innerShadow_67_38483"/>
</filter>
<linearGradient id="paint0_linear_67_38483" x1="16.8755" y1="36.5327" x2="16.8755" y2="67.4679" gradientUnits="userSpaceOnUse">
<stop stop-color="#DB7CE3"/>
<stop offset="1" stop-color="#754A7C"/>
</linearGradient>
</defs>
</svg>
