<?xml version="1.0" encoding="utf-8"?>
<!-- Generator: Adobe Illustrator 27.1.1, SVG Export Plug-In . SVG Version: 6.00 Build 0)  -->
<svg version="1.1" id="Слой_1" xmlns="http://www.w3.org/2000/svg" xmlns:xlink="http://www.w3.org/1999/xlink" x="0px" y="0px"
	 viewBox="0 0 34 69" style="enable-background:new 0 0 34 69;" xml:space="preserve">
<style type="text/css">
	.st0{fill:#83560B;}
	.st1{fill-opacity:0.4;}
	.st2{fill:url(#SVGID_1_);}
	.st3{fill:#774406;}
	.st4{fill:#E1A164;}
	.st5{fill:#9B6A3F;}
</style>
<g>
	<path class="st0" d="M14.3,16.2c-6.5,1.5-10.5,12.5-9,20.5c1,5.5,16.5,10,23,1c1.6-2.3,0.5-7,0-10C27,20.1,22.1,14.4,14.3,16.2z"/>
</g>
<ellipse class="st1" cx="17" cy="66" rx="14" ry="3"/>
<g>
	
		<linearGradient id="SVGID_1_" gradientUnits="userSpaceOnUse" x1="17.2514" y1="34.103" x2="17.2514" y2="3.1678" gradientTransform="matrix(1 0 0 -1 0 70)">
		<stop  offset="0" style="stop-color:#F1C9B2"/>
		<stop  offset="1" style="stop-color:#996A4F"/>
		<stop  offset="1" style="stop-color:#9D7863"/>
	</linearGradient>
	<path class="st2" d="M9,64.4c-3-5-5.5-12-6-25c-0.1-2.5,2.5-3.5,2.5-3.5s2.5,6.2,12,6c9.5-0.2,11.5-6,11.5-6s2.6,1.1,2.5,2.5
		c-1,10.5-3,19-7,26C22.6,67.8,10.9,67.5,9,64.4z"/>
</g>
<path class="st3" d="M27,34c0,3.9-4.5,7.5-9,4.5c-3.2-2.1-4.5-6-4.5-11c0-3.9,5.1-3,9-3S27,30.1,27,34z"/>
<g>
	<path class="st4" d="M21.5,34.9c1.4-1.1,0.5-6,1.5-6s4,2.5,7,1.5c1.3-0.4,2.1-2.6,1-3.5c-2.2-1.7-4-4.1-4.4-4.8
		c-0.1-0.1-0.1-0.2-0.1-0.3c-0.1-0.5-0.6-2-1-2.9c-0.4-0.8-1.5-1.8-2.1-2.2c-0.2-0.2-0.4-0.5-0.4-0.8c-0.1-1.6-0.7-6.8-2-10.5
		c-1.8-5.3-2.4,6-2.5,8.5c0,0.3-0.2,0.5-0.5,0.5c-0.6,0-1-0.4-1-1c0-2-0.1-6.3-0.5-7.5c-0.5-1.6-3,2.3-3,4.5c0,8-0.6,18.1,0.5,21.5
		C15.8,37.4,19.5,36.4,21.5,34.9z"/>
</g>
<path class="st5" d="M23,21.8c-1.3,0.3-3.3,0-5-0.3c-1-0.2-1.5,0.8-0.7,1.4c1.2,0.9,2.9,1.8,4.7,1.9c1.3,0.1,3.9-0.6,4.5-1.8
	c0.5-1,0.1-1.9-0.5-3C25.4,18.9,24.4,21.5,23,21.8z"/>
<path class="st5" d="M15,15c0-1,0.2-10.3,1.5-9C17,6.5,17,11.5,17,13.5l0,0C17,14.3,15,15.8,15,15z"/>
<path class="st5" d="M31,29.5c0.6-0.3,0.8-0.9,0.5-1.5c-0.3-0.7-1.7-0.7-2,0C29.1,28.7,30.3,29.9,31,29.5z"/>
</svg>
