<svg width="34" height="69" viewBox="0 0 34 69" fill="none" xmlns="http://www.w3.org/2000/svg">
<ellipse cx="17" cy="66" rx="14" ry="3" fill="black" fill-opacity="0.4"/>
<g filter="url(#filter0_i_67_38482)">
<path d="M14.3011 16.3359C7.8009 17.8358 3.84454 28.827 5.30149 36.8356C6.30207 42.3356 21.8018 46.8353 28.3018 37.8356C29.9372 35.5712 28.8017 30.8361 28.3018 27.8359C27.0308 20.2093 22.1088 14.5344 14.3011 16.3359Z" fill="#599C39"/>
</g>
<g filter="url(#filter1_i_67_38482)">
<path d="M9.00293 64.5C6.00293 59.5 3.50312 52.5 3.00261 39.5C2.90643 37.0019 5.49822 36 5.49822 36C5.49822 36 7.99822 42.1638 17.4982 42C26.9982 41.8362 28.9982 36 28.9982 36C28.9982 36 31.6285 37.1254 31.4982 38.5C30.5029 49 28.5029 57.5 24.5036 64.5C22.568 67.8878 10.8647 67.603 9.00293 64.5Z" fill="url(#paint0_linear_67_38482)"/>
</g>
<path d="M26.5 35.583C26.5 39.449 20.7167 42.2275 17.5 40.083C14.2833 37.9385 13 34.083 13 29.0831C13 25.2171 18.134 26.0828 22 26.0828C25.866 26.0828 26.5 31.717 26.5 35.583Z" fill="#406F2A"/>
<g filter="url(#filter2_i_67_38482)">
<path d="M22.501 38C23.7208 37.0242 22.6329 34.7993 23.5 33.5C24.501 32 26.501 29.5 26.501 29.5C26.501 29.5 30.0417 33.1041 30.5 31.5C31.5 28 27.5 24.5 27.5 24.5C27.5 24.5 27 20 23.5 20C18 20 16.001 23.5 15 25.5C14.563 26.3731 15 23.5 13.5 23.5C12.501 23.5 11.9993 24.5 12 25.5C12.001 27 13.4993 27 13.5 28.5L13.5 28.5117C13.501 30.5155 13.5029 34.5039 15.001 36.5C16.502 38.5 20.626 39.5 22.501 38Z" fill="#8BE36C"/>
</g>
<path d="M21.4264 22.9634C20.2732 22.2296 18.8929 21.4968 17.9264 22.4633C16.9599 23.4298 16.677 24.9634 17.4267 25.4633C18.9265 26.4633 20.926 25.9635 22.9262 25.4634L22.9267 25.4633C24.1975 25.1456 22.5314 23.6666 21.4264 22.9634Z" fill="#52BE40"/>
<path d="M26.4295 23.9988C26.2137 23.3286 26.2852 22.1523 26.9773 22.2812C28.0763 22.486 28.4898 23.9279 28.2848 25.0272C28.133 25.8416 26.6834 24.7873 26.4295 23.9988Z" fill="#52BE40"/>
<g filter="url(#filter3_i_67_38482)">
<path d="M25.3261 27.5086C26.0294 26.4035 27.0218 26.1282 28.3261 26.0086C31.6317 25.7055 31.5 34 31.5 34C31.5 34 30.0815 31.8994 28.3261 31.5C26.9798 31.1937 25.3261 31.0086 25.3261 31.0086C25.3261 31.0086 24.5923 28.6617 25.3261 27.5086Z" fill="#52BE40"/>
</g>
<path d="M14 25.5C14 25.7761 13.7761 26.5 13.5 26.5C13.2239 26.5 13 25.7761 13 25.5C13 25.2239 13.2239 24.5 13.5 24.5C13.7761 24.5 14 25.2239 14 25.5Z" fill="#52BE40"/>
<defs>
<filter id="filter0_i_67_38482" x="5" y="16" width="24.1528" height="26.959" filterUnits="userSpaceOnUse" color-interpolation-filters="sRGB">
<feFlood flood-opacity="0" result="BackgroundImageFix"/>
<feBlend mode="normal" in="SourceGraphic" in2="BackgroundImageFix" result="shape"/>
<feColorMatrix in="SourceAlpha" type="matrix" values="0 0 0 0 0 0 0 0 0 0 0 0 0 0 0 0 0 0 127 0" result="hardAlpha"/>
<feOffset dy="0.5"/>
<feComposite in2="hardAlpha" operator="arithmetic" k2="-1" k3="1"/>
<feColorMatrix type="matrix" values="0 0 0 0 1 0 0 0 0 1 0 0 0 0 1 0 0 0 0.5 0"/>
<feBlend mode="normal" in2="shape" result="effect1_innerShadow_67_38482"/>
</filter>
<filter id="filter1_i_67_38482" x="3" y="36" width="28.5029" height="30.9351" filterUnits="userSpaceOnUse" color-interpolation-filters="sRGB">
<feFlood flood-opacity="0" result="BackgroundImageFix"/>
<feBlend mode="normal" in="SourceGraphic" in2="BackgroundImageFix" result="shape"/>
<feColorMatrix in="SourceAlpha" type="matrix" values="0 0 0 0 0 0 0 0 0 0 0 0 0 0 0 0 0 0 127 0" result="hardAlpha"/>
<feOffset dy="0.5"/>
<feComposite in2="hardAlpha" operator="arithmetic" k2="-1" k3="1"/>
<feColorMatrix type="matrix" values="0 0 0 0 1 0 0 0 0 1 0 0 0 0 1 0 0 0 0.5 0"/>
<feBlend mode="normal" in2="shape" result="effect1_innerShadow_67_38482"/>
</filter>
<filter id="filter2_i_67_38482" x="12" y="20" width="18.6606" height="18.7222" filterUnits="userSpaceOnUse" color-interpolation-filters="sRGB">
<feFlood flood-opacity="0" result="BackgroundImageFix"/>
<feBlend mode="normal" in="SourceGraphic" in2="BackgroundImageFix" result="shape"/>
<feColorMatrix in="SourceAlpha" type="matrix" values="0 0 0 0 0 0 0 0 0 0 0 0 0 0 0 0 0 0 127 0" result="hardAlpha"/>
<feOffset dy="0.5"/>
<feComposite in2="hardAlpha" operator="arithmetic" k2="-1" k3="1"/>
<feColorMatrix type="matrix" values="0 0 0 0 1 0 0 0 0 1 0 0 0 0 1 0 0 0 0.5 0"/>
<feBlend mode="normal" in2="shape" result="effect1_innerShadow_67_38482"/>
</filter>
<filter id="filter3_i_67_38482" x="25" y="26.0005" width="6.50049" height="7.99951" filterUnits="userSpaceOnUse" color-interpolation-filters="sRGB">
<feFlood flood-opacity="0" result="BackgroundImageFix"/>
<feBlend mode="normal" in="SourceGraphic" in2="BackgroundImageFix" result="shape"/>
<feColorMatrix in="SourceAlpha" type="matrix" values="0 0 0 0 0 0 0 0 0 0 0 0 0 0 0 0 0 0 127 0" result="hardAlpha"/>
<feOffset dx="-0.2"/>
<feComposite in2="hardAlpha" operator="arithmetic" k2="-1" k3="1"/>
<feColorMatrix type="matrix" values="0 0 0 0 1 0 0 0 0 1 0 0 0 0 1 0 0 0 0.5 0"/>
<feBlend mode="normal" in2="shape" result="effect1_innerShadow_67_38482"/>
</filter>
<linearGradient id="paint0_linear_67_38482" x1="17.2515" y1="36" x2="17.2515" y2="66.9352" gradientUnits="userSpaceOnUse">
<stop stop-color="#C2F1B2"/>
<stop offset="1" stop-color="#649D63"/>
</linearGradient>
</defs>
</svg>
