<?xml version="1.0" encoding="utf-8"?>
<!-- Generator: Adobe Illustrator 27.1.1, SVG Export Plug-In . SVG Version: 6.00 Build 0)  -->
<svg version="1.1" id="Слой_1" xmlns="http://www.w3.org/2000/svg" xmlns:xlink="http://www.w3.org/1999/xlink" x="0px" y="0px"
	 viewBox="0 0 313 103" style="enable-background:new 0 0 313 103;" xml:space="preserve">
<style type="text/css">
	.st0{fill:url(#SVGID_1_);}
	.st1{fill:url(#SVGID_00000043456670848810857340000010487431822649775772_);}
	.st2{fill-rule:evenodd;clip-rule:evenodd;fill-opacity:0.2;}
	.st3{fill:url(#SVGID_00000040532917293598833660000014047325949211592336_);}
	.st4{fill:#7AAAF3;}
	.st5{fill:#1F6DE1;}
	.st6{fill:#5A93E8;}
	.st7{fill:#13578B;}
</style>
<g>
	<g>
		
			<linearGradient id="SVGID_1_" gradientUnits="userSpaceOnUse" x1="156.5" y1="82" x2="156.5" y2="8" gradientTransform="matrix(1 0 0 -1 0 104)">
			<stop  offset="0" style="stop-color:#347DAC"/>
			<stop  offset="1" style="stop-color:#2D7493"/>
		</linearGradient>
		<path class="st0" d="M11,23c0-0.6,0.4-1,1-1h289c0.6,0,1,0.4,1,1v2.2c0,0.5-0.3,0.9-0.8,1c-1.9,0.4-6.4,1.6-8.7,3.8
			c-2.6,2.4-3.8,7.6-4.3,9.9c-0.1,0.6,0.3,1.1,1,1.1h11.6c0.7,0,1.1,0.6,1,1.2l-10.8,42.5c-1.7,6.6-7.7,11.3-14.5,11.3h-77.8H185
			h-13.5h-134c-6.8,0-12.7-4.6-14.5-11.1l-3.8-14.3c-0.1-0.4,0-0.8,0.3-1l3-2.6l-4,1.5l-7.2-26.2c-0.2-0.6,0.3-1.3,1-1.3h12.6
			c0.6,0,1-0.5,1-1c-0.2-2.2-1-7.4-3.4-10c-2.6-2.7-8.3-3.7-10.6-3.9c-0.5-0.1-0.9-0.5-0.9-1V23z"/>
	</g>
	<g>
		
			<linearGradient id="SVGID_00000116220445591420062980000015400009328759917219_" gradientUnits="userSpaceOnUse" x1="156.5" y1="79" x2="156.5" y2="15" gradientTransform="matrix(1 0 0 -1 0 104)">
			<stop  offset="0" style="stop-color:#189EF5"/>
			<stop  offset="1" style="stop-color:#174D7E"/>
		</linearGradient>
		<path style="fill:url(#SVGID_00000116220445591420062980000015400009328759917219_);" d="M18,26c0-0.6,0.4-1,1-1h275
			c0.6,0,1,0.4,1,1v1.2c0,0.6-0.6,1.1-1.2,1.1c-1.5-0.1-3.9,0.1-5.8,1.7c-2.6,2.3-5.2,11.4-6,14.8c-0.2,0.6,0.3,1.2,1,1.2h10.7
			c0.7,0,1.2,0.7,1,1.3L283.9,82c-1.3,4.2-5.2,7-9.6,7H39.5c-4.3,0-8.1-2.8-9.5-6.8L18.4,47.3c-0.2-0.6,0.3-1.3,0.9-1.3h11.7
			c0.6,0,1.1-0.6,1-1.2C31.4,41.5,29.4,32.3,27,30c-2.2-2.1-5.8-2-7.7-1.8c-0.6,0.1-1.3-0.4-1.3-1.1V26z"/>
	</g>
	<path class="st2" d="M91.5,24.1c2.3-2.5,6.7-0.4,10.2,0.5c2.2,0.6,3.7,2.4,5.6,3.6c2.8,1.7,6.8,1.9,8.2,4.9
		c1.8,3.8,3.1,9.4-0.1,11.9c-3.3,2.5-7.9-1.9-12.1-2.5c-2.9-0.4-6,1.6-8.3-0.2c-2.3-1.8-1.7-5.3-2.2-8.1
		C92.1,30.7,89.1,26.6,91.5,24.1z"/>
	<g>
		
			<linearGradient id="SVGID_00000145744476399433608480000001858350295782069660_" gradientUnits="userSpaceOnUse" x1="156.5" y1="82" x2="156.5" y2="74" gradientTransform="matrix(1 0 0 -1 0 104)">
			<stop  offset="0" style="stop-color:#347DAC"/>
			<stop  offset="1" style="stop-color:#2D7493"/>
		</linearGradient>
		<path style="fill:url(#SVGID_00000145744476399433608480000001858350295782069660_);" d="M12,22h289c0.6,0,1,0.4,1,1v6
			c0,0.6-0.4,1-1,1H12c-0.6,0-1-0.4-1-1v-6C11,22.4,11.4,22,12,22z"/>
	</g>
	<path class="st2" d="M267.6,35c5.1,0.2,6.6,4.7,9.4,7.6c1.9,2,3.8,3.9,4,6.3c0.2,2.5-0.7,4.9-2.9,7c-2.7,2.7-5.7,5.7-10.5,6.1
		c-5.1,0.5-10.1-1.5-13.7-4c-3.6-2.4-6.5-5.7-5.8-9.1c0.6-3.2,5.8-4.6,9-7C260.6,39.4,262.5,34.8,267.6,35z"/>
	<path class="st2" d="M59.8,63.2c3.2,2.6,3.2,8.5,0.8,11.9c-2.2,3.2-7.4,1.5-11,2.9c-3.3,1.3-5.3,5.7-8.8,5.1
		c-3.5-0.7-5.7-4.5-6.5-8c-0.7-3,1.8-5.5,2.7-8.4c1-3.4-0.8-9,2.7-9.8c3.7-0.8,4.4,6.4,8,7.5C51.7,65.7,56.6,60.5,59.8,63.2z"/>
	<path class="st4" d="M308.7,27.8c-0.1-0.2-0.2-0.4-0.3-0.6c0,0,0,0,0-0.1c-0.2-0.3-0.4-0.6-0.6-0.9c0.5,0.6,0.7,1.5,0.5,2.4
		c-0.1,0.6-0.4,1.2-0.8,1.6c-0.1,0.1-0.2,0.2-0.3,0.3c-0.1,0.1-0.2,0.2-0.3,0.3c-0.3,0.2-0.5,0.3-0.8,0.4c-0.2,0-0.3,0.1-0.4,0.1
		c0-0.2,0-0.3-0.1-0.5c0-0.1,0-0.2-0.1-0.3c0.2,0.8,0.3,1.8,0.1,2.7l0.2,0c0.1,0,0.2,0,0.3,0c0.6-0.1,1.2-0.4,1.7-0.9
		c0.9-0.9,1.4-2.2,1.3-3.4h0c0-0.1,0-0.2,0-0.3c0-0.1,0-0.2-0.1-0.3C308.9,28.1,308.8,28,308.7,27.8z"/>
	<path class="st5" d="M306.9,26.2c0.1,0.7-0.1,1.4-0.5,1.9l1.9,0.5c0.1-0.8,0-1.7-0.5-2.4c0-0.1-0.1-0.1-0.1-0.2c0,0,0,0,0,0
		c-0.5-0.6-1-1.1-1.6-1.5C306.5,24.9,306.8,25.5,306.9,26.2z"/>
	<path class="st6" d="M306.9,26.2c-0.1-0.7-0.4-1.3-0.9-1.7c-0.1-0.1-0.2-0.1-0.3-0.2c0,0,0,0-0.1,0c-0.1,0-0.1-0.1-0.2-0.1
		c0,0,0,0,0,0c-0.1-0.1-0.2-0.1-0.3-0.1c-0.1,0.1-0.1,0.1-0.2,0.2c0.2,0.4,0.3,0.8,0.3,1.3c0.1,0.8,0,1.5-0.2,2.2l1.3,0.4
		C306.8,27.6,307,26.9,306.9,26.2z"/>
	<path class="st6" d="M304.2,27.5c0.3-0.7,0.3-1.6,0.1-2.4C304.5,25.9,304.5,26.8,304.2,27.5z"/>
	<path class="st4" d="M305.4,30.4C305.4,30.4,305.4,30.4,305.4,30.4C305.4,30.4,305.4,30.4,305.4,30.4
		C305.4,30.4,305.4,30.4,305.4,30.4z"/>
	<path class="st4" d="M305.3,29.9c0,0.1,0,0.1,0.1,0.2c0,0,0-0.1,0-0.1C305.3,30,305.3,29.9,305.3,29.9z"/>
	<path class="st4" d="M304.7,32.8c0,0.1,0,0.2-0.1,0.3c0,0.1-0.1,0.2-0.1,0.3c-0.1,0.2-0.2,0.4-0.3,0.6c-0.2,0.4-0.6,0.7-0.9,0.9
		c-0.5,0.3-1.2,0.6-1.8,0.6c-0.6,0-1.2-0.2-1.7-0.5c-0.1-0.1-0.3-0.2-0.4-0.3c0,0,0,0,0.1-0.1c-0.1,0.1-0.2,0.2-0.3,0.3
		c-0.4,0.4-0.8,0.7-1.3,1l0.1,0.1c0.1,0.1,0.2,0.1,0.2,0.2c0.5,0.4,1.1,0.7,1.8,0.7c0.7,0.1,1.4,0,2-0.2c0.6-0.2,1.2-0.6,1.6-1.1
		l0,0c0.2-0.3,0.4-0.6,0.6-1C304.4,34.1,304.6,33.5,304.7,32.8z"/>
	<path class="st5" d="M305.5,30.9c0,0.2,0.1,0.3,0.1,0.5c0.2,0,0.3-0.1,0.4-0.1c0.3-0.1,0.5-0.2,0.8-0.4c0.1-0.1,0.2-0.2,0.3-0.3
		c0.1-0.1,0.2-0.2,0.3-0.3c0.4-0.5,0.7-1,0.8-1.6l-1.9-0.5c-0.1,0.2-0.3,0.3-0.5,0.5c-0.2,0.1-0.4,0.2-0.6,0.3
		c-0.1,0-0.3,0.1-0.4,0.1c0,0.1,0.1,0.2,0.1,0.3l0.1,0.3c0,0.1,0.1,0.2,0.1,0.2c0,0,0,0,0,0.1c0,0,0,0.1,0,0.1c0,0,0,0.1,0,0.1
		c0,0,0,0,0,0c0,0.1,0,0.2,0.1,0.3c0,0,0,0,0,0c0,0,0,0,0,0c0,0,0,0,0,0c0,0,0,0.1,0,0.1C305.5,30.6,305.5,30.8,305.5,30.9z"/>
	<path class="st5" d="M304.5,31.4c-0.1,0.3-0.2,0.6-0.4,0.9c-0.2,0.3-0.5,0.5-0.8,0.7c-0.3,0.2-0.6,0.3-1,0.3c-0.4,0-0.9,0-1.3-0.3
		c-0.1-0.1-0.2-0.1-0.4-0.2c-0.1,0.2-0.2,0.3-0.3,0.5c0,0.1-0.1,0.2-0.1,0.2c0,0,0,0,0,0c0,0-0.1,0.1-0.1,0.2c0,0,0,0,0,0.1
		c0,0,0,0,0,0c0,0,0,0,0,0c-0.1,0.1-0.1,0.2-0.2,0.2c0,0,0,0,0,0c0,0,0,0,0,0c-0.1,0.2-0.3,0.4-0.5,0.5l0,0c0,0,0,0,0,0v0
		c0,0,0,0-0.1,0.1c0.1,0.1,0.2,0.2,0.4,0.3c0.5,0.3,1.1,0.5,1.7,0.5c0.6,0,1.3-0.2,1.8-0.6c0.4-0.2,0.7-0.6,0.9-0.9
		c0.1-0.2,0.2-0.4,0.3-0.6c0-0.1,0.1-0.2,0.1-0.3c0-0.1,0-0.2,0.1-0.3v0c0.1-0.9,0-1.7-0.1-2.4c0,0.2,0.1,0.3,0.1,0.5
		C304.6,31.1,304.6,31.2,304.5,31.4z"/>
	<path class="st6" d="M305.9,28.6c0.2-0.1,0.3-0.3,0.5-0.5l-1.3-0.4c-0.1,0.3-0.2,0.6-0.4,0.8c0.1,0.1,0.1,0.3,0.2,0.4
		c0.1,0,0.3-0.1,0.4-0.1C305.5,28.8,305.7,28.7,305.9,28.6z"/>
	<path class="st6" d="M303.8,29.8c-0.1,0.1-0.2,0.1-0.3,0.2c-0.1,0.1-0.2,0.1-0.3,0.2c-0.1,0.1-0.2,0.1-0.3,0.2
		c-0.1,0.1-0.2,0.1-0.3,0.1c-0.1,0-0.2,0.1-0.3,0.1c0,0,0,0-0.1,0c-0.1,0.1-0.2,0.2-0.3,0.3l-0.1,0.1c0,0,0,0,0,0
		c0,0.1-0.1,0.2-0.1,0.3c-0.1,0.1-0.1,0.3-0.2,0.4c-0.2,0.3-0.4,0.6-0.7,0.9c0,0.1-0.1,0.1-0.1,0.2c0.1,0.1,0.2,0.1,0.4,0.2
		c0.4,0.2,0.8,0.3,1.3,0.3c0.3,0,0.7-0.1,1-0.3c0.3-0.2,0.6-0.4,0.8-0.7c0.2-0.3,0.3-0.6,0.4-0.9c0-0.2,0.1-0.3,0.1-0.5
		c0-0.2,0-0.3-0.1-0.5c0-0.2-0.1-0.3-0.1-0.4c0-0.1-0.1-0.3-0.1-0.4c-0.1,0-0.2,0-0.2,0C303.9,29.7,303.8,29.7,303.8,29.8z"/>
	<path class="st4" d="M300,34.1c-0.1,0.2-0.3,0.4-0.5,0.5C299.7,34.5,299.8,34.3,300,34.1z"/>
	<path class="st6" d="M297.7,34.2c0.6,0,1.2-0.3,1.6-0.8c0,0,0,0-0.1,0c-0.1,0-0.1,0-0.2,0.1c-0.1,0-0.1,0-0.2,0.1
		c-0.1,0-0.3,0.1-0.4,0.1c-0.2,0-0.3,0-0.5,0c-0.6,0-1.3,0-1.9-0.3c0,0-0.1,0-0.1,0l0,0.1C296.4,34,297,34.3,297.7,34.2z"/>
	<path class="st6" d="M299.4,32.1l0.1,0.2c-0.7,0.4-1.7,0.6-2.6,0.4c-0.2,0-0.4-0.1-0.6-0.1v0c0.2,0.1,0.4,0.1,0.6,0.1
		c0.9,0.2,1.9,0,2.6-0.4l0,0.1l0-0.1L299.4,32.1z"/>
	<path class="st4" d="M293.8,32.2C293.8,32.2,293.8,32.2,293.8,32.2C293.9,32.2,293.9,32.2,293.8,32.2
		C293.8,32.2,293.8,32.2,293.8,32.2C293.8,32.2,293.8,32.2,293.8,32.2z"/>
	<path class="st4" d="M292.1,34.8c0.1,0.1,0.3,0.3,0.4,0.4c0.1,0.1,0.3,0.2,0.5,0.3c0.1,0,0.2,0.1,0.2,0.1c0.1,0,0.2,0.1,0.2,0.1
		c0.2,0.1,0.3,0.1,0.5,0.2c0.2,0,0.3,0.1,0.5,0.1c0.2,0,0.3,0,0.5,0c0.2,0,0.4,0,0.6,0c0.2,0,0.4-0.1,0.5-0.1c0,0,0,0,0.1,0
		c0.6-0.2,1.1-0.5,1.5-0.7c-0.1,0.1-0.3,0.1-0.4,0.2c-0.2,0.1-0.4,0.1-0.6,0.1c-0.4,0-0.9,0-1.3-0.1c-0.1-0.1-0.3-0.1-0.4-0.2
		c-0.1-0.1-0.3-0.2-0.4-0.2c-0.1-0.1-0.3-0.2-0.4-0.3c-0.1-0.1-0.2-0.2-0.3-0.4c-0.1-0.1-0.1-0.1-0.2-0.2c-0.1-0.1-0.1-0.1-0.1-0.2
		c-0.1-0.1-0.1-0.3-0.2-0.4c0-0.1-0.1-0.1-0.1-0.2c0-0.1,0-0.1-0.1-0.2c0-0.1,0-0.3-0.1-0.4l0-0.2l0-0.2c0.1,0,0.2,0,0.2,0l0.2,0
		c0,0,0,0,0,0c-0.8-0.1-1.6-0.3-2.4-0.6l0,0.2c0,0.1,0,0.2,0,0.3c0,0.2,0,0.3,0,0.5c0,0.2,0,0.3,0.1,0.5c0,0.2,0.1,0.3,0.2,0.5
		c0,0.1,0.1,0.2,0.1,0.2c0,0.1,0.1,0.2,0.1,0.2c0.1,0.1,0.2,0.3,0.3,0.4C291.8,34.6,291.9,34.7,292.1,34.8z"/>
	<path class="st4" d="M290.7,30c-0.1-0.1-0.1-0.2-0.2-0.3c-0.1-0.1-0.1-0.2-0.1-0.3c-0.1-0.2-0.2-0.4-0.2-0.7c0-0.2-0.1-0.3-0.1-0.5
		c0-0.2,0-0.3,0-0.5c0-0.1,0-0.2,0-0.2c0-0.1,0-0.2,0.1-0.2c0-0.2,0.1-0.3,0.2-0.5c0.1-0.1,0.1-0.3,0.2-0.4c0.1-0.1,0.2-0.3,0.3-0.4
		c0.1-0.1,0.2-0.2,0.3-0.3c0.1-0.1,0.2-0.2,0.4-0.2c0.1-0.1,0.3-0.1,0.4-0.2c0.1,0.2,0.1,0.3,0.2,0.4c0,0.1,0.1,0.2,0.2,0.3
		c-0.1-0.1-0.1-0.2-0.1-0.3c-0.1-0.2-0.2-0.5-0.3-0.7c-0.1-0.3-0.1-0.5-0.2-0.8c0-0.1,0-0.3,0-0.4c0-0.1,0-0.3,0-0.4l-0.2,0.1
		c-0.1,0-0.2,0.1-0.3,0.1c-0.2,0.1-0.3,0.1-0.4,0.2c-0.1,0.1-0.3,0.2-0.4,0.3c-0.1,0.1-0.3,0.2-0.4,0.4c-0.1,0.1-0.2,0.3-0.3,0.4
		c-0.1,0.1-0.2,0.3-0.3,0.5c-0.1,0.2-0.2,0.3-0.2,0.5c-0.1,0.2-0.1,0.4-0.1,0.5c0,0.1,0,0.2-0.1,0.3c0,0.1,0,0.2,0,0.3
		c0,0.2,0,0.4,0,0.5c0,0.2,0,0.4,0.1,0.5c0,0.2,0.1,0.3,0.1,0.5c0.1,0.2,0.1,0.3,0.2,0.5h0c0,0.1,0.1,0.2,0.1,0.3
		c0.1,0.1,0.1,0.2,0.2,0.2c0.1,0.2,0.2,0.3,0.4,0.4c0,0,0,0,0.1,0.1c0.2,0.2,0.5,0.4,0.7,0.6c0.2,0.2,0.5,0.3,0.7,0.4
		c0,0,0.1,0,0.1,0.1C291.3,30.6,290.9,30.3,290.7,30z"/>
	<path class="st5" d="M295.1,32c0.1,0,0.1,0.1,0.2,0.1C295.2,32.1,295.1,32.1,295.1,32z"/>
	<path class="st5" d="M293.3,32.2l-0.2,0c-0.1,0-0.2,0-0.2,0l0,0.2l0,0.2c0,0.1,0,0.3,0.1,0.4c0,0.1,0,0.1,0.1,0.2
		c0,0.1,0.1,0.1,0.1,0.2c0.1,0.1,0.1,0.3,0.2,0.4c0,0.1,0.1,0.1,0.1,0.2c0,0.1,0.1,0.1,0.2,0.2c0.1,0.1,0.2,0.2,0.3,0.3
		c0.1,0.1,0.2,0.2,0.4,0.3c0.1,0.1,0.3,0.2,0.4,0.2c0.1,0.1,0.3,0.1,0.4,0.2c0.4,0.1,0.9,0.2,1.3,0.1c0.2,0,0.4-0.1,0.6-0.1
		c0.1-0.1,0.3-0.1,0.4-0.2c0,0,0.1-0.1,0.1-0.1c0.7-0.5,1.3-1,1.7-1.6c0,0,0,0,0,0c-0.4,0.5-1,0.8-1.6,0.8c-0.7,0-1.4-0.2-1.8-0.7
		c0,0-0.1-0.1-0.1-0.1c-0.2-0.1-0.4-0.2-0.7-0.3c-0.1-0.1-0.3-0.2-0.4-0.2l-0.2-0.1c-0.1,0-0.1-0.1-0.2-0.2
		c-0.1-0.1-0.3-0.2-0.4-0.3c0,0,0,0-0.1-0.1c0,0,0,0-0.1,0c0,0,0,0,0,0C293.6,32.2,293.5,32.2,293.3,32.2
		C293.4,32.2,293.4,32.2,293.3,32.2C293.4,32.2,293.4,32.2,293.3,32.2z"/>
	<path class="st5" d="M293,31.1C293,31,293,31,293,31.1c-0.3-0.2-0.5-0.4-0.7-0.6c-0.4-0.6-0.5-1.3-0.3-1.9c0.1-0.2,0.1-0.4,0.3-0.6
		c0.1-0.2,0.3-0.3,0.4-0.5c0.1,0,0.1-0.1,0.2-0.1c0,0,0-0.1,0.1-0.1c0-0.1-0.1-0.2-0.1-0.2c0-0.1-0.1-0.1-0.1-0.2
		c0,0-0.1-0.1-0.1-0.1c0,0,0,0,0-0.1c0-0.1-0.1-0.1-0.1-0.2c0,0,0,0,0,0c0,0,0,0,0,0c0,0,0,0,0-0.1c0,0,0,0,0,0c0,0,0-0.1-0.1-0.1v0
		c0,0,0,0,0,0c0,0,0,0,0,0c0,0,0-0.1-0.1-0.1c0,0,0,0,0,0l0,0c0,0,0,0,0,0c0,0,0,0,0,0c-0.1-0.1-0.1-0.2-0.2-0.3
		c-0.1-0.1-0.1-0.3-0.2-0.4c-0.1,0.1-0.3,0.1-0.4,0.2c-0.1,0.1-0.2,0.2-0.4,0.2c-0.1,0.1-0.2,0.2-0.3,0.3c-0.1,0.1-0.2,0.2-0.3,0.4
		c-0.1,0.1-0.2,0.3-0.2,0.4c-0.1,0.1-0.1,0.3-0.2,0.5c0,0.1,0,0.2-0.1,0.2c0,0.1,0,0.2,0,0.2c0,0.2,0,0.3,0,0.5c0,0.2,0,0.3,0.1,0.5
		c0,0.2,0.1,0.5,0.2,0.7c0,0.1,0.1,0.2,0.1,0.3c0.1,0.1,0.1,0.2,0.2,0.3c0.3,0.4,0.6,0.6,1,0.8c0,0,0,0,0,0c0.5,0.2,1,0.4,1.5,0.5
		C293.1,31.2,293.1,31.1,293,31.1z"/>
	<path class="st6" d="M296.3,32.6c-0.3-0.1-0.5-0.2-0.7-0.3C295.8,32.5,296,32.6,296.3,32.6L296.3,32.6z"/>
	<path class="st6" d="M295.9,33.5c0,0-0.1,0-0.1,0C295.8,33.5,295.9,33.5,295.9,33.5L295.9,33.5z"/>
	<path class="st6" d="M292.4,30.4c0.2,0.2,0.4,0.5,0.6,0.6c-0.3-0.6-0.5-1.1-0.5-1.7c0-0.1,0-0.1,0-0.2c0-0.1,0-0.1,0-0.2
		c0-0.1,0-0.3,0-0.4c0,0,0-0.1,0-0.1l-0.5,0.1C291.9,29.1,292,29.9,292.4,30.4z"/>
	<path class="st6" d="M293.7,28.3c0,0.1,0,0.1-0.1,0.2C293.7,28.5,293.7,28.4,293.7,28.3L293.7,28.3z"/>
	<path class="st4" d="M292.3,26c0,0,0,0.1,0.1,0.1C292.3,26.1,292.3,26,292.3,26C292.3,26,292.3,26,292.3,26z"/>
	<path class="st4" d="M292.5,26.4C292.5,26.4,292.5,26.4,292.5,26.4C292.5,26.4,292.5,26.4,292.5,26.4
		C292.5,26.4,292.5,26.4,292.5,26.4z"/>
	<path class="st4" d="M292.9,21.7C292.9,21.8,292.9,21.8,292.9,21.7c-0.2,0.6-0.3,1.2-0.3,1.7c0-0.1,0-0.2,0-0.3
		c0-0.1,0-0.2,0.1-0.3c0-0.1,0.1-0.2,0.1-0.3c0-0.1,0.1-0.2,0.2-0.3c0.1-0.1,0.1-0.2,0.2-0.3c0.1-0.1,0.2-0.2,0.2-0.3
		c0.1-0.1,0.2-0.2,0.3-0.2c0.1-0.1,0.2-0.1,0.3-0.2c0.6-0.4,1.3-0.5,2-0.5c0.2,0,0.3,0.1,0.5,0.1c0.1,0,0.2,0.1,0.4,0.1l-0.1-0.1
		c-0.4-0.4-0.7-0.9-0.9-1.4h0c0,0,0-0.1,0-0.1c-0.1,0-0.1,0-0.2,0c-0.2,0-0.4,0.1-0.6,0.2c-0.2,0.1-0.4,0.2-0.5,0.2
		c-0.2,0.1-0.3,0.2-0.5,0.3c-0.1,0.1-0.1,0.1-0.2,0.2c-0.1,0.1-0.1,0.1-0.2,0.2h0c-0.1,0.2-0.3,0.3-0.4,0.5
		c-0.1,0.2-0.2,0.4-0.3,0.5c0,0,0,0.1,0,0.1C293,21.7,292.9,21.7,292.9,21.7z"/>
	<path class="st5" d="M293.7,21.4c-0.1,0.1-0.2,0.2-0.3,0.2c-0.1,0.1-0.2,0.2-0.2,0.3c-0.1,0.1-0.1,0.2-0.2,0.3
		c-0.1,0.1-0.1,0.2-0.2,0.3c0,0.1-0.1,0.2-0.1,0.3c0,0.1-0.1,0.2-0.1,0.3c0,0.1,0,0.2,0,0.3v0c0,0.1,0,0.2,0,0.3c0,0.1,0,0.2,0,0.3
		c0,0.1,0,0.2,0,0.3l0,0.1l0,0c0-0.1,0.1-0.3,0.1-0.4c0.1-0.2,0.1-0.3,0.2-0.5c0.1-0.2,0.2-0.3,0.3-0.4l0.3,0.2l-0.2-0.2
		c0.3-0.4,0.7-0.8,1.1-1.1c0,0,0.1,0,0.1-0.1l-0.4-0.9C293.9,21.3,293.8,21.3,293.7,21.4z"/>
	<path class="st6" d="M292.3,27.9c-0.1,0.2-0.2,0.4-0.3,0.6l0.5-0.1c0-0.2,0.1-0.4,0.2-0.6c0-0.1,0.1-0.2,0.1-0.3
		c0-0.1,0.1-0.1,0.1-0.2c-0.1,0-0.1,0.1-0.2,0.1C292.6,27.6,292.5,27.7,292.3,27.9z"/>
	<path class="st6" d="M293.7,28.3C293.7,28.3,293.7,28.3,293.7,28.3C293.7,28.3,293.7,28.3,293.7,28.3
		C293.7,28.3,293.7,28.3,293.7,28.3L293.7,28.3C293.7,28.3,293.7,28.3,293.7,28.3z"/>
	<path class="st6" d="M293.8,24.4c-0.1,0.1-0.1,0.3-0.1,0.4c0,0.3-0.1,0.5,0,0.7c0,0.4,0.1,0.7,0.2,1c-0.1-0.3-0.2-0.6-0.2-1
		c0-0.2,0-0.5,0-0.7C293.8,24.7,293.8,24.5,293.8,24.4z"/>
	<path class="st6" d="M295.6,25.4l-1-0.9l-0.6-0.6c0-0.1,0.1-0.1,0.1-0.2c0,0.1-0.1,0.1-0.1,0.2c0,0,0,0,0,0l0.6,0.5L295.6,25.4z"/>
	<path class="st6" d="M294.2,23.8C294.2,23.8,294.2,23.8,294.2,23.8C294.2,23.8,294.2,23.8,294.2,23.8
		C294.2,23.8,294.2,23.8,294.2,23.8C294.2,23.7,294.2,23.8,294.2,23.8z"/>
	<path class="st6" d="M295,22.9C295,22.9,295,22.9,295,22.9c0,0-0.1,0.1-0.1,0.1c-0.1,0.1-0.2,0.2-0.3,0.3c-0.1,0.1-0.2,0.2-0.2,0.3
		c0,0,0,0,0,0.1C294.5,23.4,294.7,23.2,295,22.9z"/>
	<path class="st4" d="M302.9,22.9c-0.1,0.1-0.1,0.3-0.2,0.4l0.4-0.2C303,23,303,22.9,302.9,22.9z"/>
	<path class="st5" d="M295.7,22.5C295.7,22.5,295.7,22.5,295.7,22.5C295.7,22.5,295.6,22.5,295.7,22.5
		C295.6,22.5,295.7,22.5,295.7,22.5C295.7,22.5,295.7,22.5,295.7,22.5z"/>
	<path class="st5" d="M295.4,22.6C295.4,22.6,295.4,22.6,295.4,22.6c-0.1,0-0.1,0-0.1,0.1C295.4,22.6,295.4,22.6,295.4,22.6
		C295.5,22.6,295.5,22.6,295.4,22.6z"/>
	<path class="st5" d="M296,20.8c-0.7-0.1-1.4,0.1-2,0.5l0.4,0.9c0.1-0.1,0.2-0.1,0.3-0.2c0,0,0,0,0,0c0.1-0.1,0.2-0.1,0.4-0.2
		c0.1-0.1,0.3-0.1,0.4-0.2c0.1-0.1,0.3-0.1,0.4-0.1c0.1,0,0.2-0.1,0.3-0.1c0.1,0,0.2,0,0.3-0.1c0,0,0.1,0,0.1,0l0,0
		c0.1,0,0.2,0,0.3,0l0.1-0.1l-0.2-0.2c-0.1-0.1-0.2-0.1-0.4-0.1C296.4,20.8,296.2,20.8,296,20.8z"/>
	<path class="st5" d="M295.7,22.5C295.7,22.5,295.7,22.5,295.7,22.5c0,0,0.1-0.1,0.2-0.1C295.8,22.4,295.8,22.4,295.7,22.5z"/>
	<path class="st5" d="M296,22.3C296,22.3,296,22.3,296,22.3c-0.1,0-0.1,0-0.1,0C296,22.4,296,22.3,296,22.3
		C296,22.3,296,22.3,296,22.3z"/>
	<path class="st5" d="M295.1,22.8c0,0,0.1-0.1,0.2-0.1C295.3,22.7,295.2,22.7,295.1,22.8C295.2,22.7,295.2,22.8,295.1,22.8
		C295.2,22.8,295.1,22.8,295.1,22.8c-0.1,0.1-0.1,0.1-0.1,0.1c0,0,0,0-0.1,0c0,0,0,0,0,0C295,22.9,295.1,22.9,295.1,22.8z"/>
	<path class="st4" d="M303.1,23l-0.4,0.2c-0.1,0.1-0.1,0.3-0.2,0.4c0.4,0.6,0.5,1.3,0.5,1.9c0,0.2-0.1,0.4-0.1,0.6c0,0,0,0,0,0.1h0
		v0h0.1c0.2,0.4,0.3,0.7,0.3,1.1c0,0.1,0,0.2,0,0.3c0,0.1,0,0.2,0,0.3c0,0.4-0.1,0.8-0.2,1.2c0.2-0.1,0.3-0.3,0.5-0.5
		c0.1-0.1,0.2-0.3,0.3-0.5c0.1-0.2,0.2-0.4,0.3-0.6c0,0,0,0,0-0.1c0,0,0,0,0,0c0.3-0.7,0.3-1.6,0.1-2.4c0,0,0,0,0,0
		c-0.1-0.3-0.2-0.6-0.3-0.9C303.8,23.7,303.4,23.3,303.1,23z"/>
	<path class="st5" d="M302.2,27.1c0-0.1,0-0.1-0.1-0.2c0,0,0-0.1,0-0.1c0,0,0,0,0,0c0,0,0,0.1,0,0.1C302.2,27,302.2,27,302.2,27.1z"
		/>
	<path class="st5" d="M302.3,26.2L302.3,26.2l0.6,0v0H302.3z"/>
	<path class="st5" d="M302.5,23.6c-0.1,0.2-0.3,0.4-0.5,0.6c0.1,0.3,0.2,0.7,0.3,1c0.2,0.3,0.4,0.6,0.6,1c0.1-0.2,0.1-0.4,0.1-0.6
		C303,24.9,302.8,24.2,302.5,23.6z"/>
	<path class="st4" d="M296.8,29.2c0,0-0.1,0-0.1,0C296.7,29.2,296.8,29.2,296.8,29.2z"/>
	<path class="st4" d="M297.1,29.1c0.1,0,0.1-0.1,0.2-0.1C297.3,29,297.2,29.1,297.1,29.1z"/>
	<path class="st4" d="M295.9,29.4C295.9,29.4,295.9,29.4,295.9,29.4c-0.1,0-0.1,0-0.1,0C295.8,29.4,295.9,29.4,295.9,29.4z"/>
	<path class="st4" d="M295.5,32.3c0.2,0.1,0.5,0.2,0.7,0.3c0.2,0.1,0.4,0.1,0.6,0.2c0.9,0.2,1.9,0,2.6-0.4l-0.1-0.2l0.1,0.2
		c0,0,0.1-0.1,0.1-0.1c0.2-0.1,0.4-0.3,0.6-0.5c0.1-0.1,0.2-0.2,0.2-0.3c0,0,0.1-0.1,0.1-0.1c0,0,0,0,0-0.1c0,0,0,0,0,0
		c-0.1-0.1-0.2-0.1-0.3-0.3l0,0c-0.3,0.2-0.6,0.4-0.9,0.5c-0.8,0.2-1.6,0.2-2.3-0.2c-0.7-0.3-1.2-0.9-1.3-1.6c0-0.2-0.1-0.3-0.1-0.5
		c0,0,0.1,0,0.1,0c-0.1,0-0.3,0-0.4-0.1c-0.1,0-0.2-0.1-0.3-0.1c-0.4-0.2-0.9-0.5-1.2-0.8c0,0,0,0,0,0c0,0,0,0,0,0
		c0,0.1,0,0.1-0.1,0.2c0,0.1-0.1,0.3-0.1,0.4c0,0.2,0,0.4,0,0.6c0,0.2,0.1,0.4,0.1,0.6c0.1,0.4,0.4,0.9,0.7,1.3
		c0.2,0.2,0.3,0.4,0.5,0.5c0,0,0.1,0.1,0.1,0.1c0.1,0,0.1,0.1,0.2,0.1C295.3,32.2,295.4,32.3,295.5,32.3z"/>
	<path class="st4" d="M293.7,24.8c0,0.3-0.1,0.5,0,0.7c0,0.4,0.1,0.7,0.2,1c0,0.1,0,0.1,0.1,0.2c0.1,0.2,0.1,0.3,0.2,0.4
		c0,0.1,0.1,0.1,0.1,0.2c0.1,0.1,0.1,0.2,0.2,0.3c0,0,0,0,0,0c-0.3-0.3-0.5-0.8-0.5-1.4c0-0.3,0-0.6,0.1-0.8c0-0.1,0.1-0.3,0.2-0.4
		c0.1-0.1,0.2-0.3,0.3-0.4l-0.6-0.5l0,0c-0.1,0.1-0.1,0.3-0.2,0.4C293.8,24.5,293.8,24.7,293.7,24.8z"/>
	<path class="st5" d="M295.7,29.8c0.1,0.6,0.6,1.2,1.3,1.6c0.7,0.3,1.6,0.4,2.3,0.2c0.3-0.1,0.7-0.3,0.9-0.5l-0.4-0.4l-0.9-1l0,0
		c-0.4-0.1-0.8-0.3-1-0.7l0-0.1l0-0.1c0-0.1,0-0.1-0.1-0.2c-0.1,0.1-0.1,0.1-0.2,0.2c-0.1,0.1-0.1,0.1-0.2,0.2
		c-0.1,0-0.1,0.1-0.2,0.1c0,0,0,0,0,0c0,0-0.1,0-0.1,0.1c0,0,0,0,0,0c0,0-0.1,0-0.1,0c0,0,0,0,0,0c0,0-0.1,0-0.1,0c0,0-0.1,0-0.1,0
		c0,0-0.1,0-0.1,0c0,0-0.1,0-0.1,0c0,0-0.1,0-0.1,0c0,0-0.1,0-0.1,0c0,0,0,0,0,0c-0.1,0-0.1,0-0.2,0c0,0,0,0,0,0c0,0,0,0-0.1,0h0
		c0,0-0.1,0-0.1,0c0,0,0,0,0,0c0,0,0,0-0.1,0c0,0,0,0,0,0c0,0-0.1,0-0.1,0C295.6,29.5,295.6,29.7,295.7,29.8z"/>
	<path class="st5" d="M294.4,25c-0.1,0.1-0.1,0.3-0.2,0.4c-0.1,0.3-0.1,0.6-0.1,0.9c0,0.6,0.2,1.1,0.5,1.4c0.6,0.7,1.5,1,2.2,0.8
		c-0.3,0.1-0.6,0-0.8-0.2c-0.3-0.2-0.5-0.4-0.5-0.8c-0.1-0.3-0.1-0.7,0.1-1c0.1-0.2,0.2-0.4,0.4-0.5c-0.1-0.2-0.1-0.4-0.2-0.6
		l-1-0.9C294.5,24.7,294.4,24.8,294.4,25z"/>
	<path class="st6" d="M297.8,28.9L297.8,28.9c0.2,0.4,0.6,0.7,1,0.8l-1.1-1.1c0,0,0,0,0,0.1C297.8,28.7,297.8,28.8,297.8,28.9
		L297.8,28.9z"/>
	<path class="st6" d="M295.4,26.5c-0.1,0.3-0.2,0.7-0.1,1c0.1,0.3,0.3,0.6,0.5,0.8c0.3,0.2,0.6,0.2,0.8,0.2c0.1,0,0.1,0,0.2-0.1
		c0.1,0,0.1,0,0.2-0.1c0.1,0,0.2-0.1,0.3-0.2l-0.3-0.3l-0.3-0.3c-0.4-0.4-0.7-0.9-0.9-1.4h0.6v0h-0.6c0-0.1-0.1-0.1-0.1-0.2
		C295.6,26.2,295.5,26.3,295.4,26.5z"/>
	<path class="st4" d="M294.7,24.6c0.2-0.3,0.6-0.6,0.9-0.8c0.1-0.5,0.3-1,0.6-1.5c0,0,0,0,0,0c0,0,0,0,0,0c0,0,0,0,0,0
		c0,0-0.1,0-0.1,0c0,0,0,0,0,0c-0.1,0-0.1,0.1-0.2,0.1c0,0,0,0,0,0c0,0,0,0-0.1,0c0,0-0.1,0-0.1,0.1c-0.1,0-0.1,0.1-0.2,0.1
		c0,0,0,0,0,0c-0.1,0-0.1,0.1-0.2,0.1c-0.1,0-0.1,0.1-0.2,0.1c-0.3,0.2-0.5,0.5-0.7,0.7c0,0,0,0,0,0.1c0,0-0.1,0.1-0.1,0.1
		c0,0,0,0,0,0c0,0.1-0.1,0.1-0.1,0.2L294.7,24.6z"/>
	<path class="st5" d="M296.6,23.5c-0.2,0.7-0.2,1.6,0.1,2.3c0,0,0,0,0,0C296.4,25.1,296.3,24.3,296.6,23.5z"/>
	<path class="st5" d="M294.7,24.6l1,0.9c-0.1-0.3-0.1-0.6-0.1-0.9c0-0.2,0-0.5,0.1-0.7C295.2,24,294.9,24.2,294.7,24.6z"/>
	<path class="st6" d="M296.9,26.2c0,0.1,0.1,0.1,0.1,0.2C296.9,26.4,296.9,26.3,296.9,26.2l-0.4,0l0,0H296.9z"/>
	<path class="st6" d="M296.7,25.8C296.7,25.8,296.7,25.8,296.7,25.8c0.1,0.1,0.1,0.3,0.2,0.4C296.8,26.1,296.7,25.9,296.7,25.8z"/>
	<path class="st4" d="M297.4,27l1.2,1.3c-0.5-0.6-0.9-1.3-1-2c-0.1-1,0.2-2.1,1-2.8l0.3-0.3l1.3,1.3l-0.4-0.4l-1.8-1.8l-0.3-0.3
		l-0.1,0.1l-0.2,0.2c-0.4,0.4-0.6,0.8-0.8,1.3c0,0,0,0.1,0,0.1c-0.2,0.7-0.2,1.6,0.1,2.3c0.1,0.1,0.1,0.3,0.2,0.4
		c0,0.1,0.1,0.1,0.1,0.2C297.1,26.6,297.2,26.8,297.4,27z"/>
	<path class="st5" d="M298.6,23.4c-0.8,0.8-1.1,1.8-1,2.9c0.1,0.7,0.4,1.4,1,2l1.7,1.7c-1-1-1.2-2.5-0.7-3.7h0
		c0.2-0.4,0.4-0.8,0.7-1.1l0.3-0.3l-0.4-0.4l-1.3-1.3L298.6,23.4z"/>
	<path class="st6" d="M299.6,26.2L299.6,26.2c-0.5,1.2-0.3,2.7,0.7,3.7l0.7,0.7l0.3-0.3c0.2-0.2,0.3-0.3,0.4-0.5
		c0.1-0.1,0.2-0.3,0.2-0.4c0-0.1,0-0.1,0.1-0.2c0-0.1,0.1-0.2,0.1-0.3c0.1-0.3,0.1-0.6,0.1-0.9c0-0.3,0-0.6-0.1-0.8c0,0,0,0,0-0.1
		c0-0.1,0-0.1-0.1-0.2c0,0,0-0.1,0-0.1c0-0.1,0-0.1-0.1-0.2c0,0,0-0.1,0-0.1c0-0.1-0.1-0.2-0.1-0.3v0c-0.1-0.3-0.3-0.5-0.5-0.7
		l-0.3-0.3l-0.4-0.4l-0.3,0.3C300,25.4,299.8,25.8,299.6,26.2z"/>
	<path class="st4" d="M297.6,15.2l-0.2,0.2c-0.4,0.4-0.6,0.8-0.8,1.3c-0.2,0.6-0.2,1.2-0.1,1.7c0.1,0.3,0.2,0.6,0.3,0.9
		c0,0.1,0.1,0.1,0.1,0.2h0c0.1,0.3,0.3,0.5,0.6,0.7l1.1,1.1l0.1,0.1c-0.6-0.6-0.9-1.3-1-2c-0.1-1,0.2-2.1,1-2.9l0.3-0.3l1.3,1.3
		l-0.4-0.4l-2.1-2.1L297.6,15.2z"/>
	<path class="st5" d="M298.6,16.6c-0.8,0.8-1.1,1.8-1,2.9c0.1,0.7,0.4,1.4,1,2l1.7,1.7c-1-1-1.2-2.5-0.7-3.7h0
		c0.2-0.4,0.4-0.8,0.7-1.1l0.3-0.3l-0.4-0.4l-1.3-1.3L298.6,16.6z"/>
	<path class="st6" d="M299.6,19.5L299.6,19.5c-0.5,1.2-0.3,2.7,0.7,3.7l0.7,0.7l0.3-0.3c0.2-0.2,0.3-0.3,0.4-0.5
		c0.1-0.1,0.2-0.3,0.2-0.4c0-0.1,0-0.1,0.1-0.2c0-0.1,0.1-0.2,0.1-0.3c0.2-0.6,0.2-1.2,0-1.8c0-0.1,0-0.1-0.1-0.2
		c0-0.1-0.1-0.2-0.1-0.3c-0.1-0.1-0.1-0.3-0.2-0.4c-0.1-0.3-0.3-0.5-0.6-0.7l-0.3-0.3l-0.4-0.4l-0.3,0.3
		C300,18.7,299.8,19.1,299.6,19.5z"/>
	<path class="st4" d="M297.6,8.4l-0.2,0.2c-0.4,0.4-0.6,0.8-0.8,1.3c-0.3,0.9-0.2,1.9,0.3,2.8c0.1,0.3,0.3,0.5,0.5,0.7l1.2,1.3
		c-0.6-0.6-0.9-1.3-1-2c-0.1-1,0.2-2.1,1-2.8l0.3-0.3l1.3,1.3l-0.4-0.4l-2.1-2.1L297.6,8.4z"/>
	<path class="st5" d="M298.6,9.9c-0.8,0.8-1.1,1.8-1,2.8c0.1,0.7,0.4,1.4,1,2c0,0,0,0,0,0l1.7,1.7c-1-1-1.2-2.5-0.7-3.7h0
		c0.2-0.4,0.4-0.8,0.7-1.1l0.3-0.3l-0.4-0.4L299,9.6L298.6,9.9z"/>
	<path class="st6" d="M299.6,12.7L299.6,12.7c-0.5,1.2-0.3,2.7,0.7,3.7l0.7,0.7l0.3-0.3c0.2-0.2,0.3-0.3,0.4-0.5
		c0.1-0.1,0.2-0.3,0.2-0.4c0,0,0-0.1,0.1-0.2c0-0.1,0.1-0.2,0.1-0.3c0.2-0.6,0.2-1.2,0-1.8c0-0.1,0-0.1-0.1-0.2
		c0-0.1-0.1-0.2-0.1-0.3c-0.1-0.1-0.1-0.3-0.2-0.4c-0.1-0.3-0.3-0.5-0.5-0.7l-0.3-0.3l-0.4-0.4l-0.3,0.3
		C300,11.9,299.8,12.3,299.6,12.7z"/>
	<path class="st4" d="M297.6,1.7l-0.2,0.2c-0.4,0.4-0.6,0.8-0.8,1.3c-0.3,0.9-0.2,1.9,0.3,2.8c0.1,0.3,0.3,0.5,0.6,0.7l1.2,1.3
		c-0.6-0.6-0.9-1.3-1-2c-0.1-1,0.2-2.1,1-2.9l0.3-0.3l1.3,1.3l-0.4-0.4l-2.1-2.1L297.6,1.7z"/>
	<path class="st5" d="M298.6,3.1c-0.8,0.8-1.1,1.8-1,2.9c0.1,0.7,0.4,1.4,1,2c0,0,0,0,0,0l1.7,1.7c-1-1-1.2-2.5-0.7-3.7h0
		c0.2-0.4,0.4-0.8,0.7-1.1l0.3-0.3l-0.4-0.4L299,2.8L298.6,3.1z"/>
	<path class="st6" d="M299.6,6L299.6,6c-0.5,1.2-0.3,2.7,0.7,3.7l0.7,0.7l0.3-0.3c0.2-0.2,0.3-0.3,0.4-0.5c0.1-0.1,0.2-0.3,0.2-0.4
		c0-0.1,0-0.1,0.1-0.2c0-0.1,0.1-0.2,0.1-0.3c0.2-0.6,0.2-1.2,0-1.8c0-0.1,0-0.1-0.1-0.2c0-0.1-0.1-0.2-0.1-0.3
		C302,6.3,302,6.1,301.9,6c-0.1-0.3-0.3-0.5-0.5-0.7L301,4.9l-0.4-0.4l-0.3,0.3C300,5.2,299.8,5.6,299.6,6z"/>
	<path class="st4" d="M297.6-5.1l-0.2,0.2c-0.4,0.4-0.6,0.8-0.8,1.3c-0.3,0.9-0.2,1.9,0.3,2.8c0.1,0.3,0.3,0.5,0.5,0.7l1.2,1.3
		c-0.6-0.6-0.9-1.3-1-2c-0.1-1,0.2-2.1,1-2.8l0.3-0.3l1.3,1.3l-0.4-0.4l-2.1-2.1L297.6-5.1z"/>
	<path class="st5" d="M298.6-3.6c-0.8,0.8-1.1,1.8-1,2.9c0.1,0.7,0.4,1.4,1,2l1.7,1.7c-1-1-1.2-2.5-0.7-3.7h0
		c0.2-0.4,0.4-0.8,0.7-1.1l0.3-0.3l-0.4-0.4L299-3.9L298.6-3.6z"/>
	<path class="st6" d="M299.6-0.8L299.6-0.8c-0.5,1.2-0.3,2.7,0.7,3.7l0.7,0.7l0.3-0.3c0.2-0.2,0.3-0.3,0.4-0.5
		c0.1-0.1,0.2-0.3,0.2-0.4c0-0.1,0-0.1,0.1-0.2c0-0.1,0.1-0.2,0.1-0.3c0.2-0.6,0.2-1.2,0-1.8c0-0.1,0-0.1-0.1-0.2
		c0-0.1-0.1-0.2-0.1-0.3c-0.1-0.1-0.1-0.3-0.2-0.4c-0.1-0.3-0.3-0.5-0.5-0.7L301-1.8l-0.4-0.4l-0.3,0.3C300-1.5,299.8-1.2,299.6-0.8
		z"/>
	<path class="st7" d="M299.8-30l0.3,0.3l0.1,0.1l0.4,0.4l0.7,0.7c0.1,0.1,0.1,0.1,0.1,0.2c0,0,0,0,0,0c0,0,0.1,0.1,0.1,0.1
		c0,0,0,0,0,0c0,0,0.1,0.1,0.1,0.1c0,0,0,0,0,0c0,0,0,0,0,0c0,0,0,0,0,0.1c0,0,0,0,0,0c0,0,0,0,0,0c0,0,0,0,0,0c0,0,0,0,0,0.1v0h0
		c0.1,0.1,0.1,0.3,0.2,0.4c0,0.1,0.1,0.2,0.1,0.3c0,0.1,0,0.1,0.1,0.2c0.1,0.6,0.1,1.2,0,1.8c0,0.1-0.1,0.2-0.1,0.3
		c0,0.1,0,0.1-0.1,0.2c-0.1,0.2-0.1,0.3-0.2,0.4c-0.1,0.2-0.3,0.4-0.4,0.5l-0.3,0.3l-0.7-0.7l-1.7-1.7l-1.2-1.3
		c-0.2-0.2-0.4-0.5-0.6-0.7h0h0c0,0,0,0,0,0c0,0,0-0.1-0.1-0.1c0,0,0,0,0,0c0,0,0-0.1,0-0.1c0,0,0-0.1-0.1-0.1c0,0,0,0,0,0
		c0,0,0,0,0,0c0-0.1,0-0.1-0.1-0.2c0,0,0-0.1,0-0.1c0,0,0,0,0,0c0,0,0,0,0-0.1c0,0,0,0,0,0c0,0,0-0.1,0-0.1c0,0,0,0,0,0
		c0,0,0-0.1,0-0.1c0,0,0,0,0,0c0,0,0,0,0,0c0,0,0,0,0-0.1c0,0,0,0,0,0c0,0,0,0,0,0c0,0,0,0,0,0c0,0,0,0,0,0c0,0,0,0,0,0c0,0,0,0,0,0
		c0,0,0,0,0,0c0,0,0,0,0-0.1c0,0,0,0,0,0c0,0,0-0.1,0-0.1c0,0,0,0,0-0.1c0,0,0,0,0-0.1c0,0,0-0.1,0-0.1c0,0,0,0,0,0
		c0-0.1,0-0.1,0-0.2c0,0,0,0,0,0c0,0,0-0.1,0-0.1c0,0,0-0.1,0-0.1c0,0,0,0,0,0c0,0,0-0.1,0-0.1c0,0,0,0,0,0c0,0,0,0,0,0c0,0,0,0,0,0
		c0,0,0,0,0-0.1c0,0,0,0,0-0.1c0,0,0,0,0,0c0,0,0,0,0,0c0,0,0,0,0,0c0,0,0,0,0-0.1c0,0,0,0,0,0c0,0,0,0,0-0.1c0,0,0,0,0-0.1
		c0,0,0-0.1,0-0.1c0-0.1,0-0.1,0.1-0.2c0,0,0-0.1,0-0.1c0,0,0,0,0,0c0,0,0,0,0-0.1c0,0,0,0,0-0.1c0,0,0,0,0,0c0,0,0,0,0-0.1
		c0,0,0,0,0,0c0,0,0,0,0,0c0,0,0,0,0,0c0,0,0-0.1,0.1-0.1c0,0,0-0.1,0-0.1c0,0,0-0.1,0.1-0.1c0,0,0.1-0.1,0.1-0.1c0,0,0,0,0,0
		c0,0,0,0,0,0c0,0,0,0,0,0s0,0,0,0c0-0.1,0.1-0.1,0.1-0.2c0,0,0-0.1,0.1-0.1c0.1-0.1,0.1-0.1,0.2-0.2c0,0,0,0,0,0l0.3-0.3L299.8-30z
		 M300.2-22.9l0.4,0.4L301-22l0.3,0.3c0.2,0.2,0.4,0.5,0.5,0.7c0.1,0.1,0.1,0.3,0.2,0.4c0,0.1,0.1,0.2,0.1,0.3c0,0.1,0,0.1,0.1,0.2
		c0.1,0.6,0.1,1.2,0,1.8c0,0.1-0.1,0.2-0.1,0.3c0,0.1,0,0.1-0.1,0.2c-0.1,0.2-0.1,0.3-0.2,0.4c-0.1,0.2-0.3,0.4-0.4,0.5l-0.3,0.3
		l-0.7-0.7l-1.7-1.7l-1.2-1.3c-0.2-0.2-0.4-0.5-0.6-0.7h0c-0.5-0.9-0.6-1.9-0.3-2.8c0.2-0.5,0.4-0.9,0.8-1.3l0.2-0.2l0.1-0.1
		l2.1,2.1L300.2-22.9z M300.2-16.1l0.4,0.4l0.4,0.4l0.3,0.3c0.2,0.2,0.4,0.5,0.5,0.7c0.1,0.1,0.1,0.3,0.2,0.4c0,0.1,0.1,0.2,0.1,0.3
		c0,0.1,0,0.1,0.1,0.2c0.1,0.6,0.1,1.2,0,1.8c0,0.1-0.1,0.2-0.1,0.3c0,0.1,0,0.1-0.1,0.2c-0.1,0.2-0.1,0.3-0.2,0.4
		c-0.1,0.2-0.3,0.4-0.4,0.5L301-9.8l-0.7-0.7l-1.7-1.7l-1.2-1.3c-0.2-0.2-0.4-0.5-0.6-0.7h0c-0.5-0.9-0.6-1.9-0.3-2.8
		c0.2-0.5,0.4-0.9,0.8-1.3l0.2-0.2l0.1-0.1l2.1,2.1L300.2-16.1z M300.2-9.4l0.4,0.4l0.4,0.4l0.3,0.3c0.2,0.2,0.4,0.5,0.5,0.7
		c0.1,0.1,0.1,0.3,0.2,0.4c0,0.1,0.1,0.2,0.1,0.3c0,0.1,0,0.1,0.1,0.2c0.1,0.6,0.1,1.2,0,1.8c0,0.1-0.1,0.2-0.1,0.3
		c0,0.1,0,0.1-0.1,0.2c-0.1,0.2-0.1,0.3-0.2,0.4c-0.1,0.2-0.3,0.4-0.4,0.5L301-3.1l-0.7-0.7l-1.7-1.7l-1.2-1.3
		c-0.2-0.2-0.4-0.5-0.6-0.7h0c-0.5-0.9-0.6-1.9-0.3-2.8c0.2-0.5,0.4-0.9,0.8-1.3l0.2-0.2l0.1-0.1l2.1,2.1L300.2-9.4z M300.2-2.6
		l0.4,0.4l0.4,0.4l0.3,0.3c0.2,0.2,0.4,0.5,0.5,0.7c0.1,0.1,0.1,0.3,0.2,0.4c0,0.1,0.1,0.2,0.1,0.3c0,0.1,0,0.1,0.1,0.2
		c0.1,0.6,0.1,1.2,0,1.8c0,0.1-0.1,0.2-0.1,0.3c0,0.1,0,0.1-0.1,0.2c-0.1,0.2-0.1,0.3-0.2,0.4c-0.1,0.2-0.3,0.4-0.4,0.5L301,3.7
		L300.3,3l-1.7-1.7L297.4,0c-0.2-0.2-0.4-0.5-0.6-0.7h0c-0.5-0.9-0.6-1.9-0.3-2.8c0.2-0.5,0.4-0.9,0.8-1.3l0.2-0.2l0.1-0.1l2.1,2.1
		L300.2-2.6z M300.2,4.1l0.4,0.4l0.4,0.4l0.3,0.3c0.2,0.2,0.4,0.5,0.5,0.7c0.1,0.1,0.1,0.3,0.2,0.4c0,0.1,0.1,0.2,0.1,0.3
		c0,0.1,0,0.1,0.1,0.2c0.1,0.6,0.1,1.2,0,1.8c0,0.1-0.1,0.2-0.1,0.3c0,0.1,0,0.1-0.1,0.2c-0.1,0.2-0.1,0.3-0.2,0.4
		c-0.1,0.2-0.3,0.4-0.4,0.5l-0.3,0.3l-0.7-0.7L298.6,8l-1.2-1.3c-0.2-0.2-0.4-0.5-0.6-0.7h0c-0.5-0.9-0.6-1.9-0.3-2.8
		c0.2-0.5,0.4-0.9,0.8-1.3l0.2-0.2l0.1-0.1l2.1,2.1L300.2,4.1z M300.2,10.9l0.4,0.4l0.4,0.4l0.3,0.3c0.2,0.2,0.4,0.5,0.5,0.7
		c0.1,0.1,0.1,0.3,0.2,0.4c0,0.1,0.1,0.2,0.1,0.3c0,0.1,0,0.1,0.1,0.2c0.1,0.6,0.1,1.2,0,1.8c0,0.1-0.1,0.2-0.1,0.3
		c0,0.1,0,0.1-0.1,0.2c-0.1,0.2-0.1,0.3-0.2,0.4c-0.1,0.2-0.3,0.4-0.4,0.5l-0.3,0.3l-0.7-0.7l-1.7-1.7l-1.2-1.3
		c-0.2-0.2-0.4-0.5-0.6-0.7h0c-0.5-0.9-0.6-1.9-0.3-2.8c0.2-0.5,0.4-0.9,0.8-1.3l0.2-0.2l0.1-0.1l2.1,2.1L300.2,10.9z M300.2,17.6
		l0.4,0.4l0.4,0.4l0.3,0.3c0.2,0.2,0.4,0.5,0.5,0.7c0.1,0.1,0.1,0.3,0.2,0.4c0,0.1,0.1,0.2,0.1,0.3c0,0.1,0,0.1,0.1,0.2
		c0.1,0.6,0.1,1.2,0,1.8c0,0.1-0.1,0.2-0.1,0.3c0,0,0,0.1-0.1,0.2c-0.1,0.2-0.1,0.3-0.2,0.4c-0.1,0.2-0.3,0.4-0.4,0.5l-0.3,0.3
		l-0.7-0.7l-1.7-1.7l-0.1-0.1l-1.1-1.1c-0.2-0.2-0.4-0.5-0.6-0.7h0c0-0.1-0.1-0.1-0.1-0.2c-0.1-0.3-0.2-0.6-0.3-0.9
		c-0.1-0.6-0.1-1.2,0.1-1.7c0.2-0.5,0.4-0.9,0.8-1.3l0.2-0.2l0.1-0.1l2.1,2.1L300.2,17.6z M303.1,23c0.4,0.3,0.7,0.7,0.9,1.2
		c0.1,0.3,0.3,0.6,0.3,0.9c0,0,0,0,0,0c0.2,0.8,0.1,1.6-0.1,2.4c0,0,0,0,0,0c0,0,0,0,0,0.1c-0.1,0.2-0.2,0.4-0.3,0.6
		c-0.1,0.2-0.2,0.3-0.3,0.5c-0.2,0.2-0.3,0.3-0.5,0.5c0.1-0.4,0.2-0.8,0.2-1.2c0-0.1,0-0.2,0-0.3c0-0.1,0-0.2,0-0.3
		c-0.1-0.4-0.2-0.8-0.3-1.1h-0.1h-0.6v0h0.6h0c0,0,0,0,0-0.1c-0.2-0.4-0.4-0.7-0.6-1c0-0.3-0.1-0.6-0.3-1c0.2-0.2,0.3-0.4,0.5-0.6
		c0.1-0.1,0.2-0.2,0.2-0.4c0.1-0.1,0.1-0.2,0.2-0.4h0C303,22.9,303,23,303.1,23z M304.4,30c0,0.1,0.1,0.3,0.1,0.4
		c0.2,0.7,0.2,1.6,0.1,2.4c-0.1,0.6-0.2,1.3-0.4,1.9c-0.1,0.3-0.3,0.7-0.6,1c-0.4,0.5-1,0.9-1.6,1.1c-0.6,0.2-1.3,0.3-2,0.2
		c-0.7-0.1-1.3-0.3-1.8-0.7c-0.1-0.1-0.2-0.1-0.2-0.2l-0.1-0.1c0.5-0.3,0.9-0.6,1.3-1c0.1-0.1,0.2-0.2,0.3-0.3c0,0,0,0,0,0
		c0.2-0.2,0.3-0.4,0.5-0.5c0,0,0,0,0,0c0.1-0.1,0.1-0.2,0.2-0.2c0,0,0,0,0,0c0,0,0,0,0-0.1c0-0.1,0.1-0.1,0.1-0.2c0,0,0,0,0,0
		c0-0.1,0.1-0.2,0.1-0.2c0.1-0.2,0.2-0.3,0.3-0.5c0-0.1,0.1-0.1,0.1-0.2c0.3-0.3,0.5-0.6,0.7-0.9c0.1-0.1,0.1-0.3,0.2-0.4
		c0-0.1,0.1-0.2,0.1-0.3c0,0,0,0,0,0L302,31c0.1-0.1,0.2-0.2,0.3-0.3c0,0,0,0,0.1,0c0.1,0,0.2-0.1,0.3-0.1c0.1,0,0.2-0.1,0.3-0.1
		c0.1-0.1,0.2-0.1,0.3-0.2c0.1-0.1,0.2-0.1,0.3-0.2c0.1-0.1,0.2-0.1,0.3-0.2c0.1-0.1,0.2-0.2,0.3-0.2c0.1,0,0.2,0,0.2,0
		C304.3,29.7,304.3,29.8,304.4,30z M294.8,36.1c-0.2,0-0.3,0-0.5,0c-0.2,0-0.3-0.1-0.5-0.1c-0.2,0-0.3-0.1-0.5-0.2
		c-0.1,0-0.2-0.1-0.2-0.1c-0.1,0-0.2-0.1-0.2-0.1c-0.2-0.1-0.3-0.2-0.5-0.3c-0.1-0.1-0.3-0.2-0.4-0.4c-0.1-0.1-0.3-0.3-0.4-0.4
		c-0.1-0.1-0.2-0.3-0.3-0.4c0-0.1-0.1-0.2-0.1-0.2c0-0.1-0.1-0.2-0.1-0.2c-0.1-0.2-0.1-0.3-0.2-0.5c0-0.2-0.1-0.3-0.1-0.5
		c0-0.2,0-0.3,0-0.5c0-0.1,0-0.2,0-0.3l0-0.2c0.8,0.4,1.6,0.6,2.4,0.6c0.1,0,0.2,0,0.4,0c0,0,0.1,0,0.1,0c0,0,0,0,0,0
		c0,0,0,0,0.1,0.1c0.1,0.1,0.3,0.2,0.4,0.3c0.1,0.1,0.1,0.1,0.2,0.2l0.2,0.1c0.1,0.1,0.3,0.2,0.4,0.2c0.2,0.1,0.4,0.2,0.7,0.3
		c0,0,0.1,0,0.1,0c0,0,0.1,0,0.1,0c0.6,0.2,1.3,0.3,1.9,0.3c0.2,0,0.3,0,0.5,0c0.2,0,0.3-0.1,0.4-0.1c0.1,0,0.1,0,0.2-0.1
		c0.1,0,0.1,0,0.2-0.1c0,0,0,0,0.1,0c0,0,0,0,0,0c-0.5,0.6-1,1.1-1.7,1.6c0,0-0.1,0.1-0.1,0.1c-0.5,0.3-1,0.5-1.5,0.7c0,0,0,0-0.1,0
		c0,0,0,0,0,0c-0.2,0.1-0.3,0.1-0.5,0.1C295.2,36.1,295,36.1,294.8,36.1z M291.7,30.8C291.7,30.8,291.7,30.8,291.7,30.8
		c0,0-0.1,0-0.1-0.1c-0.2-0.1-0.5-0.3-0.7-0.4c-0.2-0.2-0.5-0.4-0.7-0.6c0,0,0,0-0.1-0.1c0,0,0,0,0,0c-0.1-0.1-0.3-0.3-0.4-0.4
		c-0.1-0.1-0.1-0.2-0.2-0.2c-0.1-0.1-0.1-0.2-0.1-0.3c-0.1-0.1-0.1-0.3-0.2-0.5c-0.1-0.2-0.1-0.3-0.1-0.5c0-0.2-0.1-0.4-0.1-0.5
		c0-0.2,0-0.4,0-0.5c0-0.1,0-0.2,0-0.3c0-0.1,0-0.2,0.1-0.3c0-0.2,0.1-0.4,0.1-0.5c0.1-0.2,0.1-0.3,0.2-0.5c0.1-0.2,0.2-0.3,0.3-0.5
		c0.1-0.1,0.2-0.3,0.3-0.4c0.1-0.1,0.2-0.3,0.4-0.4c0.1-0.1,0.3-0.2,0.4-0.3c0.1-0.1,0.3-0.2,0.4-0.2c0.1,0,0.2-0.1,0.3-0.1l0.2-0.1
		c0,0.1,0,0.3,0,0.4c0,0.1,0,0.3,0,0.4c0,0.3,0.1,0.5,0.2,0.8c0.1,0.3,0.2,0.5,0.3,0.7c0,0.1,0.1,0.2,0.1,0.3c0,0,0,0,0,0
		c0,0,0.1,0.1,0.1,0.1c0,0,0,0,0,0c0,0,0,0.1,0.1,0.1c0,0,0,0,0,0c0,0,0,0,0,0.1c0,0,0,0,0,0c0,0.1,0.1,0.1,0.1,0.2c0,0,0,0,0,0.1
		c0,0,0.1,0.1,0.1,0.1c0,0.1,0.1,0.1,0.1,0.2c0,0.1,0.1,0.2,0.1,0.2c0,0,0,0.1-0.1,0.1c0,0.1-0.1,0.1-0.1,0.2c0,0.1-0.1,0.2-0.1,0.3
		c-0.1,0.2-0.1,0.4-0.2,0.6c0,0,0,0.1,0,0.1c0,0.1,0,0.3,0,0.4c0,0.1,0,0.1,0,0.2c0,0.1,0,0.1,0,0.2c0,0.5,0.2,1.1,0.5,1.7
		c0,0,0,0,0,0c0,0.1,0.1,0.1,0.1,0.2C292.6,31.2,292.2,31,291.7,30.8z M295.5,32.3c-0.1-0.1-0.2-0.1-0.3-0.2c-0.1,0-0.1-0.1-0.2-0.1
		c0,0-0.1-0.1-0.1-0.1c-0.2-0.2-0.4-0.3-0.5-0.5c-0.3-0.4-0.6-0.8-0.7-1.3c-0.1-0.2-0.1-0.4-0.1-0.6c0-0.2,0-0.4,0-0.6
		c0-0.1,0-0.3,0.1-0.4c0-0.1,0-0.1,0.1-0.2c0,0,0,0,0,0c0,0,0,0,0,0c0.4,0.4,0.8,0.7,1.2,0.8c0.1,0,0.2,0.1,0.3,0.1
		c0.1,0,0.3,0.1,0.4,0.1c0,0,0,0,0,0c0,0,0,0,0.1,0c0,0,0,0,0,0c0,0,0.1,0,0.1,0c0,0,0,0,0,0c0,0,0,0,0.1,0c0.1,0,0.1,0,0.2,0
		c0,0,0.1,0,0.1,0c0,0,0.1,0,0.1,0c0,0,0.1,0,0.1,0c0,0,0.1,0,0.1,0c0,0,0.1,0,0.1,0c0,0,0.1,0,0.1,0c0,0,0,0,0,0c0,0,0.1,0,0.1,0
		c0,0,0,0,0,0c0,0,0.1,0,0.1-0.1c0,0,0,0,0,0c0.1,0,0.1-0.1,0.2-0.1c0.1,0,0.2-0.1,0.2-0.2c0.1-0.1,0.1-0.1,0.2-0.2c0,0,0,0,0-0.1
		l1.1,1.1l0,0l0.9,1l0.4,0.4l0,0c0.1,0.1,0.2,0.2,0.3,0.3c0,0,0,0,0,0c0,0,0,0.1,0,0.1c0,0-0.1,0.1-0.1,0.1
		c-0.1,0.1-0.1,0.2-0.2,0.3c-0.2,0.2-0.4,0.3-0.6,0.5c0,0-0.1,0.1-0.1,0.1c-0.7,0.4-1.7,0.6-2.6,0.4c-0.2,0-0.4-0.1-0.6-0.2
		C296,32.6,295.8,32.5,295.5,32.3z M294,24L294,24C294.1,24,294.1,24,294,24c0,0,0.1-0.1,0.1-0.1c0,0,0,0,0,0c0,0,0,0,0,0
		c0,0,0,0,0,0c0,0,0-0.1,0.1-0.1c0,0,0,0,0-0.1c0,0,0,0,0-0.1c0.1-0.1,0.2-0.2,0.2-0.3c0.1-0.1,0.2-0.2,0.3-0.3c0,0,0.1-0.1,0.1-0.1
		c0,0,0,0,0,0c0,0,0,0,0.1,0c0,0,0.1-0.1,0.1-0.1c0,0,0,0,0,0c0,0,0,0,0.1,0c0,0,0,0,0,0c0,0,0.1,0,0.1-0.1c0,0,0,0,0,0c0,0,0,0,0,0
		c0,0,0.1,0,0.1-0.1c0,0,0,0,0,0c0,0,0,0,0,0c0,0,0,0,0,0c0,0,0,0,0,0c0,0,0,0,0,0c0.1,0,0.1-0.1,0.2-0.1c0,0,0,0,0,0c0,0,0,0,0.1,0
		c0,0,0,0,0.1,0c0,0,0,0,0,0c0,0,0,0,0,0c0,0,0,0,0,0c0,0,0,0,0,0c-0.3,0.5-0.5,1-0.5,1.5c0,0.2-0.1,0.5-0.1,0.7
		c0,0.3,0,0.6,0.1,0.9c0,0.2,0.1,0.4,0.2,0.6c0,0.1,0,0.1,0.1,0.2h0.6h0.4c-0.1-0.1-0.1-0.3-0.2-0.4c-0.3-0.7-0.3-1.5-0.1-2.3
		c0,0,0-0.1,0-0.1c0.2-0.5,0.4-0.9,0.8-1.3l0.2-0.2l0.1-0.1l0.3,0.3l1.8,1.8l0.4,0.4l0.4,0.4l0.4,0.4l0.3,0.3
		c0.2,0.2,0.4,0.5,0.5,0.7v0c0.1,0.1,0.1,0.2,0.1,0.3c0,0,0,0.1,0,0.1c0,0.1,0,0.1,0.1,0.2c0,0,0,0,0,0c0,0,0,0.1,0,0.1
		c0,0.1,0,0.1,0.1,0.2c0,0,0,0,0,0.1c0.1,0.3,0.1,0.6,0.1,0.8c0,0.3-0.1,0.6-0.1,0.9c0,0.1-0.1,0.2-0.1,0.3c0,0.1,0,0.1-0.1,0.2
		c-0.1,0.2-0.1,0.3-0.2,0.4c-0.1,0.2-0.3,0.4-0.4,0.5l-0.3,0.3l-0.7-0.7l-1.7-1.7l-1.2-1.3c-0.2-0.2-0.3-0.3-0.4-0.5
		c0-0.1-0.1-0.1-0.1-0.2h-0.4h0h-0.6c0.2,0.5,0.5,1,0.9,1.4l0.3,0.3l0.3,0.3c-0.1,0.1-0.2,0.1-0.3,0.2c-0.1,0-0.1,0.1-0.2,0.1
		c-0.1,0-0.1,0-0.2,0.1c-0.7,0.2-1.5-0.1-2.2-0.8c0,0,0,0,0,0c-0.1-0.1-0.1-0.2-0.2-0.3c0-0.1-0.1-0.1-0.1-0.2
		c-0.1-0.1-0.2-0.3-0.2-0.4c0-0.1-0.1-0.1-0.1-0.2c-0.1-0.3-0.2-0.6-0.2-1c0-0.2,0-0.5,0-0.7c0-0.1,0.1-0.3,0.1-0.4
		C293.9,24.3,294,24.1,294,24z M297.1-32.8l-0.3,0.3c-0.2,0.2-0.4,0.4-0.5,0.7c0,0.1-0.1,0.1-0.1,0.2c-0.1,0.2-0.2,0.4-0.3,0.7
		c0,0.1,0,0.1-0.1,0.2c0,0.1-0.1,0.2-0.1,0.3c0,0.1,0,0.2-0.1,0.3c0,0.2-0.1,0.5-0.1,0.7c0,0,0,0.1,0,0.1c0,0,0,0.1,0,0.1v0
		c0,0,0,0,0,0.1c0,0,0,0.1,0,0.1c0,0,0,0.1,0,0.1c0,0,0,0.1,0,0.1c0,0,0,0.1,0,0.1c0,0,0,0.1,0,0.1v0c0,0,0,0.1,0,0.1
		c0.1,0.2,0.1,0.4,0.2,0.6h0c0.2,0.5,0.5,1,0.9,1.4l0.3,0.3l-0.3,0.3c-0.8,0.8-1.3,1.9-1.3,3.1c0,0.6,0.1,1.2,0.3,1.7h0
		c0.2,0.5,0.5,1,0.9,1.4l0.3,0.3l-0.3,0.3c-0.8,0.8-1.3,1.9-1.3,3.1c0,0.6,0.1,1.2,0.3,1.7h0c0.2,0.5,0.5,1,0.9,1.4l0.3,0.3
		l-0.3,0.3c-0.8,0.8-1.3,1.9-1.3,3.1c0,0.6,0.1,1.2,0.3,1.7h0c0.2,0.5,0.5,1,0.9,1.4l0.3,0.3l-0.3,0.3c-0.8,0.8-1.3,1.9-1.3,3.1
		c0,0.6,0.1,1.2,0.3,1.7h0c0.2,0.5,0.5,1,0.9,1.4l0.3,0.3l-0.3,0.3c-0.8,0.8-1.3,1.9-1.3,3.1c0,0.6,0.1,1.2,0.3,1.7h0
		c0.2,0.5,0.5,1,0.9,1.4l0.3,0.3L296.8,8c-0.8,0.8-1.3,1.9-1.3,3.1c0,0.6,0.1,1.2,0.3,1.7h0c0.2,0.5,0.5,1,0.9,1.4l0.3,0.3l-0.3,0.3
		c-0.8,0.8-1.3,1.9-1.3,3.1c0,0.2,0,0.5,0.1,0.7c-0.9,0.2-1.7,0.6-2.3,1.1l0.4,0.9c0.1-0.1,0.1-0.1,0.2-0.2c0.1-0.1,0.1-0.1,0.2-0.2
		c0.1-0.1,0.3-0.2,0.5-0.3c0.2-0.1,0.3-0.2,0.5-0.2c0.2-0.1,0.4-0.1,0.6-0.2c0.1,0,0.1,0,0.2,0v0c0,0,0,0.1,0,0.1h0
		c0.2,0.5,0.5,1,0.9,1.4l0.1,0.1l0.2,0.2l-0.1,0.1c-0.1,0-0.2,0-0.3,0l0,0c0,0-0.1,0-0.1,0c-0.1,0-0.2,0-0.3,0.1
		c-0.1,0-0.2,0.1-0.3,0.1c-0.1,0-0.3,0.1-0.4,0.1c-0.1,0.1-0.3,0.1-0.4,0.2c-0.1,0.1-0.2,0.1-0.4,0.2c0,0,0,0,0,0
		c-0.1,0.1-0.2,0.1-0.3,0.2c0,0-0.1,0-0.1,0.1c-0.4,0.3-0.8,0.7-1.1,1.1l0.2,0.2l-0.3-0.2c-0.1,0.1-0.2,0.3-0.3,0.4
		c-0.1,0.2-0.1,0.3-0.2,0.5c0,0.1-0.1,0.3-0.1,0.4l0,0l0-0.1c0-0.1,0-0.2,0-0.3c0-0.1,0-0.2,0-0.3c0-0.1,0-0.2,0-0.3
		c0-0.6,0.1-1.1,0.3-1.7c0,0,0,0,0,0c0,0,0-0.1,0-0.1c0,0,0-0.1,0-0.1c0,0,0,0,0,0c0.1-0.2,0.2-0.4,0.3-0.5c0.1-0.2,0.2-0.3,0.4-0.5
		l-0.4-0.9c-0.7,0.6-1.2,1.3-1.4,2c-0.1,0.2-0.1,0.4-0.1,0.6c-0.2,0-0.4,0.1-0.5,0.1c-0.2,0.1-0.4,0.1-0.5,0.2
		c-0.2,0.1-0.3,0.2-0.5,0.3l-0.1,0.1l-0.1,0.1c-0.1,0.1-0.2,0.1-0.2,0.2c-0.1,0.1-0.3,0.3-0.4,0.4c-0.1,0.2-0.3,0.3-0.4,0.5
		c-0.1,0.1-0.1,0.2-0.2,0.3c-0.1,0.1-0.1,0.2-0.1,0.3c-0.1,0.2-0.2,0.4-0.3,0.6c-0.1,0.2-0.1,0.5-0.2,0.7c-0.1,0.2-0.1,0.5-0.1,0.7
		c0,0.2,0,0.5,0,0.7c0,0.2,0.1,0.5,0.1,0.7c0.1,0.2,0.1,0.4,0.2,0.6h0c0,0.1,0.1,0.2,0.1,0.3c0,0.1,0.1,0.2,0.1,0.3
		c0.1,0.2,0.2,0.3,0.3,0.5c0.2,0.3,0.5,0.6,0.8,0.8c0.1,0.1,0.3,0.2,0.5,0.3c0,0.2-0.1,0.4-0.1,0.5c0,0.2,0,0.4,0,0.5
		c0,0.2,0,0.4,0,0.6c0.1,0.4,0.2,0.8,0.3,1.2c0.3,0.8,0.9,1.5,1.7,2.1c0.2,0.1,0.4,0.3,0.6,0.4c0.1,0.1,0.2,0.1,0.3,0.2
		s0.2,0.1,0.3,0.1c0.2,0.1,0.4,0.1,0.6,0.2c0.2,0,0.4,0.1,0.6,0.1l0,0c0.8,0.1,1.5,0,2.1-0.3c0.2-0.1,0.3-0.1,0.5-0.2
		c0.1,0.1,0.2,0.3,0.4,0.4c0.5,0.5,1.2,0.8,2,1c0.8,0.2,1.7,0.2,2.5-0.1c0.9-0.2,1.7-0.7,2.2-1.2l0,0c0.6-0.5,1-1.2,1.2-1.8
		c0-0.2,0.1-0.3,0.1-0.5c0.2,0,0.3,0,0.5-0.1c0.7-0.1,1.4-0.4,2-0.9c0.2-0.1,0.3-0.3,0.5-0.4c0.1-0.1,0.3-0.3,0.4-0.5
		c0.1-0.2,0.2-0.3,0.4-0.5c0.1-0.2,0.2-0.4,0.3-0.5c0.4-0.8,0.5-1.6,0.5-2.3l-1-0.3c0.2,1.2-0.3,2.6-1.3,3.4
		c-0.5,0.5-1.1,0.8-1.7,0.9c-0.1,0-0.2,0-0.3,0l-0.2,0c0.1-1,0-1.9-0.1-2.7c0,0,0-0.1,0-0.1c0,0,0,0,0,0c0-0.1,0-0.2-0.1-0.3
		c0,0,0,0,0,0c0-0.1,0-0.1-0.1-0.2c0,0,0,0,0-0.1c0-0.1-0.1-0.2-0.1-0.2l-0.1-0.3c0-0.1-0.1-0.2-0.1-0.3c-0.1-0.2-0.1-0.3-0.2-0.4
		c0.1-0.3,0.3-0.5,0.4-0.8c0.2-0.7,0.3-1.5,0.2-2.2c0-0.5-0.2-0.9-0.3-1.3c0.1-0.1,0.1-0.1,0.2-0.2c0.1,0,0.2,0.1,0.3,0.1
		c0,0,0,0,0,0c0.1,0,0.1,0.1,0.2,0.1c0,0,0,0,0.1,0c0.1,0.1,0.2,0.1,0.3,0.2c0.6,0.4,1.1,0.9,1.6,1.5c0,0,0,0,0,0
		c0,0.1,0.1,0.1,0.1,0.2c0.2,0.3,0.4,0.6,0.6,0.9c0,0,0,0,0,0.1c0.1,0.2,0.2,0.4,0.3,0.6c0.1,0.2,0.1,0.3,0.2,0.5
		c0,0.1,0,0.2,0.1,0.3c0,0.1,0,0.2,0,0.3l1,0.3c0-0.7-0.2-1.4-0.5-2c-0.1-0.1-0.2-0.3-0.3-0.4c-0.2-0.3-0.4-0.6-0.6-0.8
		c-0.7-0.9-1.4-1.6-2.3-2.1c-0.2-0.1-0.3-0.2-0.5-0.3c-0.5-0.3-0.8-0.2-1.1-0.1c-0.1,0-0.1,0.1-0.2,0.1c-0.2-0.4-0.4-0.7-0.7-1h0
		c-0.2-0.2-0.5-0.5-0.8-0.6c0-0.2,0.1-0.5,0.1-0.7c0-0.1,0-0.2,0-0.3c0-0.1,0-0.2,0-0.3c0-0.4-0.2-0.8-0.3-1.1h0
		c-0.2-0.5-0.5-1-0.9-1.4l-0.3-0.3l0.3-0.3c0.8-0.8,1.2-1.9,1.2-3.1c0-0.1,0-0.2,0-0.3c0-0.1,0-0.2,0-0.3c0-0.4-0.2-0.8-0.3-1.1h0
		c-0.2-0.5-0.5-1-0.9-1.4l-0.3-0.3l0.3-0.3c0.8-0.8,1.2-1.9,1.2-3.1c0-0.1,0-0.2,0-0.3c0-0.1,0-0.2,0-0.3c0-0.4-0.2-0.8-0.3-1.1h0
		c-0.2-0.5-0.5-1-0.9-1.4l-0.3-0.3L302,4c0.8-0.8,1.2-1.9,1.2-3.1c0-0.1,0-0.2,0-0.3c0-0.1,0-0.2,0-0.3c0-0.4-0.2-0.8-0.3-1.1h0
		c-0.2-0.5-0.5-1-0.9-1.4l-0.3-0.3l0.3-0.3c0.8-0.8,1.2-1.9,1.2-3.1c0-0.1,0-0.2,0-0.3c0-0.1,0-0.2,0-0.3c0-0.4-0.2-0.8-0.3-1.1h0
		c-0.2-0.5-0.5-1-0.9-1.4l-0.3-0.3l0.3-0.3c0.8-0.8,1.2-1.9,1.2-3.1c0-0.1,0-0.2,0-0.3c0-0.1,0-0.2,0-0.3c0-0.4-0.2-0.8-0.3-1.1h0
		c-0.2-0.5-0.5-1-0.9-1.4l-0.3-0.3l0.3-0.3c0.8-0.8,1.2-1.9,1.2-3.1c0-0.1,0-0.2,0-0.3c0-0.1,0-0.2,0-0.3c0-0.4-0.2-0.8-0.3-1.1h0
		c-0.2-0.5-0.5-1-0.9-1.4l-0.3-0.3L302-23c0.8-0.8,1.2-1.9,1.2-3.1c0-0.1,0-0.2,0-0.3c0-0.1,0-0.2,0-0.3c0-0.4-0.2-0.8-0.3-1.1h0v0
		c-0.1-0.2-0.2-0.5-0.4-0.7c-0.1-0.2-0.2-0.3-0.4-0.5c0-0.1-0.1-0.1-0.1-0.2l-0.9-1l-2.1-2.1l-0.4-0.4c0,0,0,0,0,0
		C297.8-33.4,297.1-32.8,297.1-32.8z"/>
	<path class="st4" d="M23.7,27.8c-0.1-0.2-0.2-0.4-0.3-0.6c0,0,0,0,0-0.1c-0.2-0.3-0.4-0.6-0.6-0.9c0.5,0.6,0.7,1.5,0.5,2.4
		c-0.1,0.6-0.4,1.2-0.8,1.6c-0.1,0.1-0.2,0.2-0.3,0.3c-0.1,0.1-0.2,0.2-0.3,0.3c-0.3,0.2-0.5,0.3-0.8,0.4c-0.2,0-0.3,0.1-0.4,0.1
		c0-0.2,0-0.3-0.1-0.5c0-0.1,0-0.2-0.1-0.3c0.2,0.8,0.3,1.8,0.1,2.7l0.2,0c0.1,0,0.2,0,0.3,0c0.6-0.1,1.2-0.4,1.7-0.9
		c0.9-0.9,1.4-2.2,1.3-3.4h0c0-0.1,0-0.2,0-0.3c0-0.1,0-0.2-0.1-0.3C23.9,28.1,23.8,28,23.7,27.8z"/>
	<path class="st5" d="M21.9,26.2c0.1,0.7-0.1,1.4-0.5,1.9l1.9,0.5c0.1-0.8,0-1.7-0.5-2.4c0-0.1-0.1-0.1-0.1-0.2c0,0,0,0,0,0
		c-0.5-0.6-1-1.1-1.6-1.5C21.5,24.9,21.8,25.5,21.9,26.2z"/>
	<path class="st6" d="M21.9,26.2c-0.1-0.7-0.4-1.3-0.9-1.7c-0.1-0.1-0.2-0.1-0.3-0.2c0,0,0,0-0.1,0c-0.1,0-0.1-0.1-0.2-0.1
		c0,0,0,0,0,0c-0.1-0.1-0.2-0.1-0.3-0.1c-0.1,0.1-0.1,0.1-0.2,0.2c0.2,0.4,0.3,0.8,0.3,1.3c0.1,0.8,0,1.5-0.2,2.2l1.3,0.4
		C21.8,27.6,22,26.9,21.9,26.2z"/>
	<path class="st6" d="M19.2,27.5c0.3-0.7,0.3-1.6,0.1-2.4C19.5,25.9,19.5,26.8,19.2,27.5z"/>
	<path class="st4" d="M20.4,30.4C20.4,30.4,20.4,30.4,20.4,30.4C20.4,30.4,20.4,30.4,20.4,30.4C20.4,30.4,20.4,30.4,20.4,30.4z"/>
	<path class="st4" d="M20.3,29.9c0,0.1,0,0.1,0.1,0.2c0,0,0-0.1,0-0.1C20.3,30,20.3,29.9,20.3,29.9z"/>
	<path class="st4" d="M19.7,32.8c0,0.1,0,0.2-0.1,0.3c0,0.1-0.1,0.2-0.1,0.3c-0.1,0.2-0.2,0.4-0.3,0.6c-0.2,0.4-0.6,0.7-0.9,0.9
		c-0.5,0.3-1.2,0.6-1.8,0.6c-0.6,0-1.2-0.2-1.7-0.5c-0.1-0.1-0.3-0.2-0.4-0.3c0,0,0,0,0.1-0.1c-0.1,0.1-0.2,0.2-0.3,0.3
		c-0.4,0.4-0.8,0.7-1.3,1l0.1,0.1c0.1,0.1,0.2,0.1,0.2,0.2c0.5,0.4,1.1,0.7,1.8,0.7c0.7,0.1,1.4,0,2-0.2c0.6-0.2,1.2-0.6,1.6-1.1
		l0,0c0.2-0.3,0.4-0.6,0.6-1C19.4,34.1,19.6,33.5,19.7,32.8z"/>
	<path class="st5" d="M20.5,30.9c0,0.2,0.1,0.3,0.1,0.5c0.2,0,0.3-0.1,0.4-0.1c0.3-0.1,0.5-0.2,0.8-0.4c0.1-0.1,0.2-0.2,0.3-0.3
		c0.1-0.1,0.2-0.2,0.3-0.3c0.4-0.5,0.7-1,0.8-1.6l-1.9-0.5c-0.1,0.2-0.3,0.3-0.5,0.5c-0.2,0.1-0.4,0.2-0.6,0.3
		c-0.1,0-0.3,0.1-0.4,0.1c0,0.1,0.1,0.2,0.1,0.3l0.1,0.3c0,0.1,0.1,0.2,0.1,0.2c0,0,0,0,0,0.1c0,0,0,0.1,0,0.1c0,0,0,0.1,0,0.1
		c0,0,0,0,0,0c0,0.1,0,0.2,0.1,0.3c0,0,0,0,0,0c0,0,0,0,0,0c0,0,0,0,0,0c0,0,0,0.1,0,0.1C20.5,30.6,20.5,30.8,20.5,30.9z"/>
	<path class="st5" d="M19.5,31.4c-0.1,0.3-0.2,0.6-0.4,0.9c-0.2,0.3-0.5,0.5-0.8,0.7c-0.3,0.2-0.6,0.3-1,0.3c-0.4,0-0.9,0-1.3-0.3
		c-0.1-0.1-0.2-0.1-0.4-0.2c-0.1,0.2-0.2,0.3-0.3,0.5c0,0.1-0.1,0.2-0.1,0.2c0,0,0,0,0,0c0,0-0.1,0.1-0.1,0.2c0,0,0,0,0,0.1
		c0,0,0,0,0,0c0,0,0,0,0,0C15.1,33.9,15,34,15,34.1c0,0,0,0,0,0c0,0,0,0,0,0c-0.1,0.2-0.3,0.4-0.5,0.5l0,0c0,0,0,0,0,0v0
		c0,0,0,0-0.1,0.1c0.1,0.1,0.2,0.2,0.4,0.3c0.5,0.3,1.1,0.5,1.7,0.5c0.6,0,1.3-0.2,1.8-0.6c0.4-0.2,0.7-0.6,0.9-0.9
		c0.1-0.2,0.2-0.4,0.3-0.6c0-0.1,0.1-0.2,0.1-0.3c0-0.1,0-0.2,0.1-0.3v0c0.1-0.9,0-1.7-0.1-2.4c0,0.2,0.1,0.3,0.1,0.5
		C19.6,31.1,19.6,31.2,19.5,31.4z"/>
	<path class="st6" d="M20.9,28.6c0.2-0.1,0.3-0.3,0.5-0.5l-1.3-0.4c-0.1,0.3-0.2,0.6-0.4,0.8c0.1,0.1,0.1,0.3,0.2,0.4
		c0.1,0,0.3-0.1,0.4-0.1C20.5,28.8,20.7,28.7,20.9,28.6z"/>
	<path class="st6" d="M18.8,29.8c-0.1,0.1-0.2,0.1-0.3,0.2c-0.1,0.1-0.2,0.1-0.3,0.2c-0.1,0.1-0.2,0.1-0.3,0.2
		c-0.1,0.1-0.2,0.1-0.3,0.1c-0.1,0-0.2,0.1-0.3,0.1c0,0,0,0-0.1,0c-0.1,0.1-0.2,0.2-0.3,0.3L16.9,31c0,0,0,0,0,0
		c0,0.1-0.1,0.2-0.1,0.3c-0.1,0.1-0.1,0.3-0.2,0.4c-0.2,0.3-0.4,0.6-0.7,0.9c0,0.1-0.1,0.1-0.1,0.2c0.1,0.1,0.2,0.1,0.4,0.2
		c0.4,0.2,0.8,0.3,1.3,0.3c0.3,0,0.7-0.1,1-0.3c0.3-0.2,0.6-0.4,0.8-0.7c0.2-0.3,0.3-0.6,0.4-0.9c0-0.2,0.1-0.3,0.1-0.5
		c0-0.2,0-0.3-0.1-0.5c0-0.2-0.1-0.3-0.1-0.4c0-0.1-0.1-0.3-0.1-0.4c-0.1,0-0.2,0-0.2,0C18.9,29.7,18.8,29.7,18.8,29.8z"/>
	<path class="st4" d="M15,34.1c-0.1,0.2-0.3,0.4-0.5,0.5C14.7,34.5,14.8,34.3,15,34.1z"/>
	<path class="st6" d="M12.7,34.2c0.6,0,1.2-0.3,1.7-0.8c0,0,0,0-0.1,0c-0.1,0-0.1,0-0.2,0.1c-0.1,0-0.1,0-0.2,0.1
		c-0.1,0-0.3,0.1-0.5,0.1c-0.2,0-0.3,0-0.5,0c-0.6,0-1.3,0-1.9-0.3c0,0-0.1,0-0.1,0l0,0.1C11.4,34,12,34.3,12.7,34.2z"/>
	<path class="st6" d="M14.4,32.1l0.1,0.2c-0.7,0.4-1.7,0.6-2.6,0.4c-0.2,0-0.4-0.1-0.6-0.1v0c0.2,0.1,0.4,0.1,0.6,0.1
		c0.9,0.2,1.9,0,2.6-0.4l0,0.1l0-0.1L14.4,32.1z"/>
	<path class="st4" d="M8.8,32.2C8.8,32.2,8.8,32.2,8.8,32.2C8.9,32.2,8.9,32.2,8.8,32.2C8.8,32.2,8.8,32.2,8.8,32.2
		C8.8,32.2,8.8,32.2,8.8,32.2z"/>
	<path class="st4" d="M7.1,34.8c0.1,0.1,0.3,0.3,0.4,0.4c0.1,0.1,0.3,0.2,0.5,0.3c0.1,0,0.2,0.1,0.2,0.1c0.1,0,0.2,0.1,0.2,0.1
		c0.2,0.1,0.3,0.1,0.5,0.2C9,36,9.2,36,9.3,36c0.2,0,0.3,0,0.5,0c0.2,0,0.4,0,0.6,0c0.2,0,0.4-0.1,0.5-0.1c0,0,0,0,0.1,0
		c0.6-0.2,1.1-0.5,1.5-0.7c-0.1,0.1-0.3,0.1-0.4,0.2c-0.2,0.1-0.4,0.1-0.6,0.1c-0.4,0-0.9,0-1.3-0.1c-0.1-0.1-0.3-0.1-0.4-0.2
		c-0.1-0.1-0.3-0.2-0.4-0.2c-0.1-0.1-0.3-0.2-0.4-0.3c-0.1-0.1-0.2-0.2-0.3-0.4c-0.1-0.1-0.1-0.1-0.2-0.2c0-0.1-0.1-0.1-0.1-0.2
		c-0.1-0.1-0.1-0.3-0.2-0.4C8,33.4,8,33.3,8,33.2c0-0.1,0-0.1-0.1-0.2c0-0.1,0-0.3-0.1-0.4l0-0.2l0-0.2c0.1,0,0.2,0,0.2,0l0.2,0
		c0,0,0,0,0,0c-0.8-0.1-1.6-0.3-2.4-0.6l0,0.2c0,0.1,0,0.2,0,0.3c0,0.2,0,0.3,0,0.5C6,32.7,6,32.9,6,33c0,0.2,0.1,0.3,0.2,0.5
		c0,0.1,0.1,0.2,0.1,0.2c0,0.1,0.1,0.2,0.1,0.2c0.1,0.1,0.2,0.3,0.3,0.4C6.8,34.6,6.9,34.7,7.1,34.8z"/>
	<path class="st4" d="M5.7,30c-0.1-0.1-0.1-0.2-0.2-0.3c-0.1-0.1-0.1-0.2-0.1-0.3c-0.1-0.2-0.2-0.4-0.2-0.7c0-0.2-0.1-0.3-0.1-0.5
		c0-0.2,0-0.3,0-0.5c0-0.1,0-0.2,0-0.2c0-0.1,0-0.2,0.1-0.2c0-0.2,0.1-0.3,0.2-0.5c0.1-0.1,0.1-0.3,0.2-0.4c0.1-0.1,0.2-0.3,0.3-0.4
		c0.1-0.1,0.2-0.2,0.3-0.3c0.1-0.1,0.2-0.2,0.4-0.2c0.1-0.1,0.3-0.1,0.4-0.2c0,0.2,0.1,0.3,0.2,0.4c0,0.1,0.1,0.2,0.2,0.3
		c-0.1-0.1-0.1-0.2-0.1-0.3c-0.1-0.2-0.2-0.5-0.3-0.7c-0.1-0.3-0.1-0.5-0.2-0.8c0-0.1,0-0.3,0-0.4c0-0.1,0-0.3,0-0.4l-0.2,0.1
		c-0.1,0-0.2,0.1-0.3,0.1c-0.2,0.1-0.3,0.1-0.4,0.2c-0.1,0.1-0.3,0.2-0.4,0.3C5.1,24,5,24.2,4.9,24.3c-0.1,0.1-0.2,0.3-0.3,0.4
		c-0.1,0.1-0.2,0.3-0.3,0.5c-0.1,0.2-0.2,0.3-0.2,0.5C4.1,25.8,4,26,4,26.2c0,0.1,0,0.2-0.1,0.3c0,0.1,0,0.2,0,0.3
		c0,0.2,0,0.4,0,0.5c0,0.2,0,0.4,0.1,0.5C4,28,4,28.1,4.1,28.3c0.1,0.2,0.1,0.3,0.2,0.5h0c0,0.1,0.1,0.2,0.1,0.3
		c0.1,0.1,0.1,0.2,0.2,0.2c0.1,0.2,0.2,0.3,0.4,0.4c0,0,0,0,0.1,0.1c0.2,0.2,0.5,0.4,0.7,0.6c0.2,0.2,0.5,0.3,0.7,0.4
		c0,0,0.1,0,0.1,0.1C6.3,30.6,5.9,30.3,5.7,30z"/>
	<path class="st5" d="M10.1,32c0.1,0,0.1,0.1,0.2,0.1C10.2,32.1,10.1,32.1,10.1,32z"/>
	<path class="st5" d="M8.3,32.2l-0.2,0c-0.1,0-0.2,0-0.2,0l0,0.2l0,0.2c0,0.1,0,0.3,0.1,0.4c0,0.1,0,0.1,0.1,0.2
		c0,0.1,0.1,0.1,0.1,0.2c0.1,0.1,0.1,0.3,0.2,0.4c0,0.1,0.1,0.1,0.1,0.2c0,0.1,0.1,0.1,0.2,0.2c0.1,0.1,0.2,0.2,0.3,0.3
		c0.1,0.1,0.2,0.2,0.4,0.3c0.1,0.1,0.3,0.2,0.4,0.2c0.1,0.1,0.3,0.1,0.4,0.2c0.4,0.1,0.9,0.2,1.3,0.1c0.2,0,0.4-0.1,0.6-0.1
		c0.1-0.1,0.3-0.1,0.4-0.2c0,0,0.1-0.1,0.1-0.1c0.7-0.5,1.3-1,1.7-1.6c0,0,0,0,0,0c-0.4,0.5-1,0.8-1.7,0.8c-0.7,0-1.4-0.2-1.8-0.7
		c0,0-0.1-0.1-0.1-0.1c-0.2-0.1-0.4-0.2-0.7-0.3C10,33,9.9,33,9.7,32.9l-0.2-0.1c-0.1,0-0.1-0.1-0.2-0.2c-0.1-0.1-0.3-0.2-0.4-0.3
		c0,0,0,0-0.1-0.1c0,0,0,0-0.1,0c0,0,0,0,0,0C8.6,32.2,8.5,32.2,8.3,32.2C8.4,32.2,8.4,32.2,8.3,32.2C8.4,32.2,8.4,32.2,8.3,32.2z"
		/>
	<path class="st5" d="M8,31.1C8,31,8,31,8,31.1c-0.3-0.2-0.5-0.4-0.7-0.6C7,29.9,6.9,29.1,7,28.5c0.1-0.2,0.1-0.4,0.3-0.6
		c0.1-0.2,0.3-0.3,0.4-0.5c0.1,0,0.1-0.1,0.2-0.1c0,0,0-0.1,0.1-0.1C8,27.1,7.9,27,7.9,27c0-0.1-0.1-0.1-0.1-0.2
		c0,0-0.1-0.1-0.1-0.1c0,0,0,0,0-0.1c0-0.1-0.1-0.1-0.1-0.2c0,0,0,0,0,0c0,0,0,0,0,0c0,0,0,0,0-0.1c0,0,0,0,0,0c0,0,0-0.1-0.1-0.1v0
		c0,0,0,0,0,0c0,0,0,0,0,0c0,0,0-0.1-0.1-0.1c0,0,0,0,0,0l0,0c0,0,0,0,0,0c0,0,0,0,0,0c-0.1-0.1-0.1-0.2-0.2-0.3
		C7,25.5,7,25.3,6.9,25.2c-0.1,0.1-0.3,0.1-0.4,0.2c-0.1,0.1-0.2,0.2-0.4,0.2c-0.1,0.1-0.2,0.2-0.3,0.3c-0.1,0.1-0.2,0.2-0.3,0.4
		c-0.1,0.1-0.2,0.3-0.2,0.4c-0.1,0.1-0.1,0.3-0.2,0.5c0,0.1,0,0.2-0.1,0.2c0,0.1,0,0.2,0,0.2c0,0.2,0,0.3,0,0.5c0,0.2,0,0.3,0.1,0.5
		c0,0.2,0.1,0.5,0.2,0.7c0,0.1,0.1,0.2,0.1,0.3c0.1,0.1,0.1,0.2,0.2,0.3c0.3,0.4,0.6,0.6,1,0.8c0,0,0,0,0,0c0.5,0.2,1,0.4,1.5,0.5
		C8.1,31.2,8.1,31.1,8,31.1z"/>
	<path class="st6" d="M11.3,32.6c-0.3-0.1-0.5-0.2-0.7-0.3C10.8,32.5,11,32.6,11.3,32.6L11.3,32.6z"/>
	<path class="st6" d="M10.9,33.5c0,0-0.1,0-0.1,0C10.8,33.5,10.9,33.5,10.9,33.5L10.9,33.5z"/>
	<path class="st6" d="M7.4,30.4C7.5,30.7,7.8,30.9,8,31c-0.3-0.6-0.5-1.1-0.5-1.7c0-0.1,0-0.1,0-0.2c0-0.1,0-0.1,0-0.2
		c0-0.1,0-0.3,0-0.4c0,0,0-0.1,0-0.1L7,28.5C6.9,29.1,7,29.9,7.4,30.4z"/>
	<path class="st6" d="M8.7,28.3c0,0.1,0,0.1-0.1,0.2C8.7,28.5,8.7,28.4,8.7,28.3L8.7,28.3z"/>
	<path class="st4" d="M7.3,26c0,0,0,0.1,0.1,0.1C7.3,26.1,7.3,26,7.3,26C7.3,26,7.3,26,7.3,26z"/>
	<path class="st4" d="M7.5,26.4C7.5,26.4,7.5,26.4,7.5,26.4C7.5,26.4,7.5,26.4,7.5,26.4C7.5,26.4,7.5,26.4,7.5,26.4z"/>
	<path class="st4" d="M7.9,21.7C7.9,21.8,7.9,21.8,7.9,21.7c-0.2,0.6-0.3,1.2-0.3,1.7c0-0.1,0-0.2,0-0.3c0-0.1,0-0.2,0.1-0.3
		c0-0.1,0.1-0.2,0.1-0.3c0-0.1,0.1-0.2,0.2-0.3c0.1-0.1,0.1-0.2,0.2-0.3c0.1-0.1,0.2-0.2,0.2-0.3c0.1-0.1,0.2-0.2,0.3-0.2
		c0.1-0.1,0.2-0.1,0.3-0.2c0.6-0.4,1.3-0.5,2-0.5c0.2,0,0.3,0.1,0.5,0.1c0.1,0,0.2,0.1,0.4,0.1l-0.1-0.1c-0.4-0.4-0.7-0.9-0.9-1.4h0
		c0,0,0-0.1,0-0.1c-0.1,0-0.1,0-0.2,0c-0.2,0-0.4,0.1-0.6,0.2c-0.2,0.1-0.4,0.2-0.5,0.2c-0.2,0.1-0.3,0.2-0.5,0.3
		C9,20.2,9,20.2,8.9,20.3c-0.1,0.1-0.1,0.1-0.2,0.2h0c-0.1,0.2-0.3,0.3-0.4,0.5c-0.1,0.2-0.2,0.4-0.3,0.5c0,0,0,0.1,0,0.1
		C8,21.7,7.9,21.7,7.9,21.7z"/>
	<path class="st5" d="M8.7,21.4c-0.1,0.1-0.2,0.2-0.3,0.2c-0.1,0.1-0.2,0.2-0.2,0.3C8.1,22,8.1,22.1,8,22.2
		c-0.1,0.1-0.1,0.2-0.2,0.3c0,0.1-0.1,0.2-0.1,0.3c0,0.1-0.1,0.2-0.1,0.3c0,0.1,0,0.2,0,0.3v0c0,0.1,0,0.2,0,0.3c0,0.1,0,0.2,0,0.3
		c0,0.1,0,0.2,0,0.3l0,0.1l0,0c0-0.1,0.1-0.3,0.1-0.4C7.9,24.1,8,23.9,8,23.8c0.1-0.2,0.2-0.3,0.3-0.4l0.3,0.2l-0.2-0.2
		c0.3-0.4,0.7-0.8,1.1-1.1c0,0,0.1,0,0.1-0.1l-0.4-0.9C8.9,21.3,8.8,21.3,8.7,21.4z"/>
	<path class="st6" d="M7.3,27.9c-0.1,0.2-0.2,0.4-0.3,0.6l0.5-0.1c0-0.2,0.1-0.4,0.2-0.6c0-0.1,0.1-0.2,0.1-0.3
		c0-0.1,0.1-0.1,0.1-0.2c-0.1,0-0.1,0.1-0.2,0.1C7.6,27.6,7.5,27.7,7.3,27.9z"/>
	<path class="st6" d="M8.7,28.3C8.7,28.3,8.7,28.3,8.7,28.3C8.7,28.3,8.7,28.3,8.7,28.3C8.7,28.3,8.7,28.3,8.7,28.3L8.7,28.3
		C8.7,28.3,8.7,28.3,8.7,28.3z"/>
	<path class="st6" d="M8.8,24.4c0,0.1-0.1,0.3-0.1,0.4c0,0.3-0.1,0.5,0,0.7c0,0.4,0.1,0.7,0.2,1c-0.1-0.3-0.2-0.6-0.2-1
		c0-0.2,0-0.5,0-0.7C8.8,24.7,8.8,24.5,8.8,24.4z"/>
	<path class="st6" d="M10.6,25.4l-1-0.9L9.1,24c0-0.1,0.1-0.1,0.1-0.2c0,0.1-0.1,0.1-0.1,0.2c0,0,0,0,0,0l0.6,0.5L10.6,25.4z"/>
	<path class="st6" d="M9.2,23.8C9.2,23.8,9.2,23.8,9.2,23.8C9.2,23.8,9.2,23.8,9.2,23.8C9.2,23.8,9.2,23.8,9.2,23.8
		C9.2,23.7,9.2,23.8,9.2,23.8z"/>
	<path class="st6" d="M10,22.9C10,22.9,10,22.9,10,22.9c0,0-0.1,0.1-0.1,0.1c-0.1,0.1-0.2,0.2-0.3,0.3c-0.1,0.1-0.2,0.2-0.2,0.3
		c0,0,0,0,0,0.1C9.5,23.4,9.7,23.2,10,22.9z"/>
	<path class="st4" d="M17.9,22.9c-0.1,0.1-0.1,0.3-0.2,0.4l0.4-0.2C18,23,18,22.9,17.9,22.9z"/>
	<path class="st5" d="M10.7,22.5C10.7,22.5,10.7,22.5,10.7,22.5C10.7,22.5,10.6,22.5,10.7,22.5C10.6,22.5,10.7,22.5,10.7,22.5
		C10.7,22.5,10.7,22.5,10.7,22.5z"/>
	<path class="st5" d="M10.4,22.6C10.4,22.6,10.4,22.6,10.4,22.6c-0.1,0-0.1,0-0.1,0.1C10.4,22.6,10.4,22.6,10.4,22.6
		C10.5,22.6,10.5,22.6,10.4,22.6z"/>
	<path class="st5" d="M11.1,20.8c-0.7-0.1-1.4,0.1-2,0.5l0.4,0.9C9.6,22.1,9.7,22,9.8,22c0,0,0,0,0,0c0.1-0.1,0.2-0.1,0.4-0.2
		c0.1-0.1,0.3-0.1,0.4-0.2c0.1-0.1,0.3-0.1,0.4-0.1c0.1,0,0.2-0.1,0.3-0.1c0.1,0,0.2,0,0.3-0.1c0,0,0.1,0,0.1,0l0,0
		c0.1,0,0.2,0,0.3,0l0.1-0.1L11.9,21c-0.1-0.1-0.2-0.1-0.4-0.1C11.4,20.8,11.2,20.8,11.1,20.8z"/>
	<path class="st5" d="M10.7,22.5C10.7,22.5,10.7,22.5,10.7,22.5c0,0,0.1-0.1,0.2-0.1C10.8,22.4,10.8,22.4,10.7,22.5z"/>
	<path class="st5" d="M11,22.3C11,22.3,11,22.3,11,22.3c-0.1,0-0.1,0-0.1,0C11,22.4,11,22.3,11,22.3C11,22.3,11,22.3,11,22.3z"/>
	<path class="st5" d="M10.1,22.8c0,0,0.1-0.1,0.2-0.1C10.3,22.7,10.2,22.7,10.1,22.8C10.2,22.7,10.2,22.8,10.1,22.8
		C10.2,22.8,10.1,22.8,10.1,22.8C10,22.9,10,22.9,10,22.9c0,0,0,0-0.1,0c0,0,0,0,0,0C10,22.9,10.1,22.9,10.1,22.8z"/>
	<path class="st4" d="M18.1,23l-0.4,0.2c-0.1,0.1-0.1,0.3-0.2,0.4c0.4,0.6,0.5,1.3,0.5,1.9c0,0.2-0.1,0.4-0.1,0.6c0,0,0,0,0,0.1h0v0
		h0.1c0.2,0.4,0.3,0.7,0.3,1.1c0,0.1,0,0.2,0,0.3c0,0.1,0,0.2,0,0.3c0,0.4-0.1,0.8-0.2,1.2c0.2-0.1,0.3-0.3,0.5-0.5
		c0.1-0.1,0.2-0.3,0.3-0.5c0.1-0.2,0.2-0.4,0.3-0.6c0,0,0,0,0-0.1c0,0,0,0,0,0c0.3-0.7,0.3-1.6,0.1-2.4c0,0,0,0,0,0
		c-0.1-0.3-0.2-0.6-0.3-0.9C18.8,23.7,18.4,23.3,18.1,23z"/>
	<path class="st5" d="M17.2,27.1c0-0.1,0-0.1-0.1-0.2c0,0,0-0.1,0-0.1c0,0,0,0,0,0c0,0,0,0.1,0,0.1C17.2,27,17.2,27,17.2,27.1z"/>
	<path class="st5" d="M17.3,26.2L17.3,26.2l0.6,0v0H17.3z"/>
	<path class="st5" d="M17.5,23.6c-0.1,0.2-0.3,0.4-0.5,0.6c0.1,0.3,0.2,0.7,0.3,1c0.2,0.3,0.4,0.6,0.6,1c0.1-0.2,0.1-0.4,0.1-0.6
		C18,24.9,17.8,24.2,17.5,23.6z"/>
	<path class="st4" d="M11.8,29.2c0,0-0.1,0-0.1,0C11.7,29.2,11.8,29.2,11.8,29.2z"/>
	<path class="st4" d="M12.1,29.1c0.1,0,0.1-0.1,0.2-0.1C12.3,29,12.2,29.1,12.1,29.1z"/>
	<path class="st4" d="M10.9,29.4C10.9,29.4,10.9,29.4,10.9,29.4c-0.1,0-0.1,0-0.1,0C10.8,29.4,10.9,29.4,10.9,29.4z"/>
	<path class="st4" d="M10.5,32.3c0.2,0.1,0.5,0.2,0.7,0.3c0.2,0.1,0.4,0.1,0.6,0.2c0.9,0.2,1.9,0,2.6-0.4l-0.1-0.2l0.1,0.2
		c0,0,0.1-0.1,0.1-0.1c0.2-0.1,0.4-0.3,0.6-0.5c0.1-0.1,0.2-0.2,0.2-0.3c0,0,0.1-0.1,0.1-0.1c0,0,0,0,0-0.1c0,0,0,0,0,0
		c-0.1-0.1-0.2-0.1-0.3-0.3l0,0c-0.3,0.2-0.6,0.4-0.9,0.5c-0.8,0.2-1.6,0.2-2.3-0.2c-0.7-0.3-1.2-0.9-1.3-1.6c0-0.2-0.1-0.3-0.1-0.5
		c0,0,0.1,0,0.1,0c-0.1,0-0.3,0-0.4-0.1c-0.1,0-0.2-0.1-0.3-0.1c-0.4-0.2-0.9-0.5-1.2-0.8c0,0,0,0,0,0c0,0,0,0,0,0
		c0,0.1,0,0.1-0.1,0.2c0,0.1-0.1,0.3-0.1,0.4c0,0.2,0,0.4,0,0.6c0,0.2,0.1,0.4,0.1,0.6c0.1,0.4,0.4,0.9,0.7,1.3
		c0.2,0.2,0.3,0.4,0.5,0.5c0,0,0.1,0.1,0.1,0.1c0.1,0,0.1,0.1,0.2,0.1C10.3,32.2,10.4,32.3,10.5,32.3z"/>
	<path class="st4" d="M8.7,24.8c0,0.3-0.1,0.5,0,0.7c0,0.4,0.1,0.7,0.2,1c0,0.1,0,0.1,0.1,0.2C9,26.9,9.1,27,9.2,27.2
		c0,0.1,0.1,0.1,0.1,0.2c0.1,0.1,0.1,0.2,0.2,0.3c0,0,0,0,0,0c-0.3-0.3-0.5-0.8-0.5-1.4c0-0.3,0-0.6,0.1-0.8c0-0.1,0.1-0.3,0.2-0.4
		c0.1-0.1,0.2-0.3,0.3-0.4L9.1,24l0,0c-0.1,0.1-0.1,0.3-0.2,0.4C8.8,24.5,8.8,24.7,8.7,24.8z"/>
	<path class="st5" d="M10.7,29.8c0.1,0.6,0.6,1.2,1.3,1.6c0.7,0.3,1.6,0.4,2.3,0.2c0.3-0.1,0.7-0.3,0.9-0.5l-0.4-0.4l-0.9-1l0,0
		c-0.4-0.1-0.8-0.3-1-0.7l0-0.1l0-0.1c0-0.1,0-0.1-0.1-0.2c-0.1,0.1-0.1,0.1-0.2,0.2c-0.1,0.1-0.1,0.1-0.2,0.2
		c-0.1,0-0.1,0.1-0.2,0.1c0,0,0,0,0,0c0,0-0.1,0-0.1,0.1c0,0,0,0,0,0c0,0-0.1,0-0.1,0c0,0,0,0,0,0c0,0-0.1,0-0.1,0c0,0-0.1,0-0.1,0
		c0,0-0.1,0-0.1,0c0,0-0.1,0-0.1,0c0,0-0.1,0-0.1,0c0,0-0.1,0-0.1,0c0,0,0,0,0,0c-0.1,0-0.1,0-0.2,0c0,0,0,0,0,0c0,0,0,0-0.1,0h0
		c0,0-0.1,0-0.1,0c0,0,0,0,0,0c0,0,0,0-0.1,0c0,0,0,0,0,0c0,0-0.1,0-0.1,0C10.6,29.5,10.6,29.7,10.7,29.8z"/>
	<path class="st5" d="M9.4,25c-0.1,0.1-0.1,0.3-0.2,0.4C9.1,25.7,9,26,9,26.3c0,0.6,0.2,1.1,0.5,1.4c0.6,0.7,1.5,1,2.2,0.8
		c-0.3,0.1-0.6,0-0.8-0.2c-0.3-0.2-0.5-0.4-0.5-0.8c-0.1-0.3-0.1-0.7,0.1-1c0.1-0.2,0.2-0.4,0.4-0.5c-0.1-0.2-0.1-0.4-0.2-0.6
		l-1-0.9C9.5,24.7,9.4,24.8,9.4,25z"/>
	<path class="st6" d="M12.8,28.9L12.8,28.9c0.2,0.4,0.6,0.7,1,0.8l-1.1-1.1c0,0,0,0,0,0.1C12.8,28.7,12.8,28.8,12.8,28.9L12.8,28.9z
		"/>
	<path class="st6" d="M10.4,26.5c-0.1,0.3-0.2,0.7-0.1,1c0.1,0.3,0.3,0.6,0.5,0.8c0.3,0.2,0.6,0.2,0.8,0.2c0.1,0,0.1,0,0.2-0.1
		c0.1,0,0.1,0,0.2-0.1c0.1,0,0.2-0.1,0.3-0.2l-0.3-0.3l-0.3-0.3c-0.4-0.4-0.7-0.9-0.9-1.4h0.6v0h-0.6c0-0.1-0.1-0.1-0.1-0.2
		C10.6,26.2,10.5,26.3,10.4,26.5z"/>
	<path class="st4" d="M9.7,24.6c0.2-0.3,0.6-0.6,0.9-0.8c0.1-0.5,0.3-1,0.6-1.5c0,0,0,0,0,0c0,0,0,0,0,0c0,0,0,0,0,0
		c0,0-0.1,0-0.1,0c0,0,0,0,0,0c-0.1,0-0.1,0.1-0.2,0.1c0,0,0,0,0,0c0,0,0,0-0.1,0c0,0-0.1,0-0.1,0.1c-0.1,0-0.1,0.1-0.2,0.1
		c0,0,0,0,0,0c-0.1,0-0.1,0.1-0.2,0.1c-0.1,0-0.1,0.1-0.2,0.1c-0.3,0.2-0.5,0.5-0.7,0.7c0,0,0,0,0,0.1c0,0-0.1,0.1-0.1,0.1
		c0,0,0,0,0,0c0,0.1-0.1,0.1-0.1,0.2L9.7,24.6z"/>
	<path class="st5" d="M11.6,23.5c-0.2,0.7-0.2,1.6,0.1,2.3c0,0,0,0,0,0C11.4,25.1,11.3,24.3,11.6,23.5z"/>
	<path class="st5" d="M9.7,24.6l1,0.9c-0.1-0.3-0.1-0.6-0.1-0.9c0-0.2,0-0.5,0.1-0.7C10.2,24,9.9,24.2,9.7,24.6z"/>
	<path class="st6" d="M11.9,26.2c0,0.1,0.1,0.1,0.1,0.2C11.9,26.4,11.9,26.3,11.9,26.2l-0.4,0l0,0H11.9z"/>
	<path class="st6" d="M11.7,25.8C11.7,25.8,11.7,25.8,11.7,25.8c0.1,0.1,0.1,0.3,0.2,0.4C11.8,26.1,11.7,25.9,11.7,25.8z"/>
	<path class="st4" d="M12.4,27l1.2,1.3c-0.5-0.6-0.9-1.3-1-2c-0.1-1,0.2-2.1,1-2.8l0.3-0.3l1.3,1.3l-0.4-0.4l-1.8-1.8l-0.3-0.3
		l-0.1,0.1l-0.2,0.2c-0.4,0.4-0.6,0.8-0.8,1.3c0,0,0,0.1,0,0.1c-0.2,0.7-0.2,1.6,0.1,2.3c0.1,0.1,0.1,0.3,0.2,0.4
		c0,0.1,0.1,0.1,0.1,0.2C12.1,26.6,12.2,26.8,12.4,27z"/>
	<path class="st5" d="M13.6,23.4c-0.8,0.8-1.1,1.8-1,2.9c0.1,0.7,0.4,1.4,1,2l1.7,1.7c-1-1-1.2-2.5-0.7-3.7h0
		c0.2-0.4,0.4-0.8,0.7-1.1l0.3-0.3l-0.4-0.4L14,23.1L13.6,23.4z"/>
	<path class="st6" d="M14.6,26.2L14.6,26.2c-0.5,1.2-0.3,2.7,0.7,3.7l0.7,0.7l0.3-0.3c0.2-0.2,0.3-0.3,0.4-0.5
		c0.1-0.1,0.2-0.3,0.2-0.4c0-0.1,0-0.1,0.1-0.2c0-0.1,0.1-0.2,0.1-0.3c0.1-0.3,0.1-0.6,0.1-0.9c0-0.3,0-0.6-0.1-0.8c0,0,0,0,0-0.1
		c0-0.1,0-0.1-0.1-0.2c0,0,0-0.1,0-0.1c0-0.1,0-0.1-0.1-0.2c0,0,0-0.1,0-0.1c0-0.1-0.1-0.2-0.1-0.3v0c-0.1-0.3-0.3-0.5-0.5-0.7
		L16,25.2l-0.4-0.4l-0.3,0.3C15,25.4,14.8,25.8,14.6,26.2z"/>
	<path class="st4" d="M12.6,15.2l-0.2,0.2c-0.4,0.4-0.6,0.8-0.8,1.3c-0.2,0.6-0.2,1.2-0.1,1.7c0.1,0.3,0.2,0.6,0.3,0.9
		c0,0.1,0.1,0.1,0.1,0.2h0c0.1,0.3,0.3,0.5,0.6,0.7l1.1,1.1l0.1,0.1c-0.6-0.6-0.9-1.3-1-2c-0.1-1,0.2-2.1,1-2.9l0.3-0.3l1.3,1.3
		l-0.4-0.4l-2.1-2.1L12.6,15.2z"/>
	<path class="st5" d="M13.6,16.6c-0.8,0.8-1.1,1.8-1,2.9c0.1,0.7,0.4,1.4,1,2l1.7,1.7c-1-1-1.2-2.5-0.7-3.7h0
		c0.2-0.4,0.4-0.8,0.7-1.1l0.3-0.3l-0.4-0.4L14,16.3L13.6,16.6z"/>
	<path class="st6" d="M14.6,19.5L14.6,19.5c-0.5,1.2-0.3,2.7,0.7,3.7l0.7,0.7l0.3-0.3c0.2-0.2,0.3-0.3,0.4-0.5
		c0.1-0.1,0.2-0.3,0.2-0.4c0-0.1,0-0.1,0.1-0.2c0-0.1,0.1-0.2,0.1-0.3c0.2-0.6,0.2-1.2,0-1.8c0-0.1,0-0.1-0.1-0.2
		c0-0.1-0.1-0.2-0.1-0.3c-0.1-0.1-0.1-0.3-0.2-0.4c-0.1-0.3-0.3-0.5-0.5-0.7L16,18.4L15.7,18l-0.3,0.3C15,18.7,14.8,19.1,14.6,19.5z
		"/>
	<path class="st4" d="M12.6,8.4l-0.2,0.2C12,9,11.8,9.4,11.6,9.9c-0.3,0.9-0.2,1.9,0.3,2.8c0.1,0.3,0.3,0.5,0.6,0.7l1.2,1.3
		c-0.6-0.6-0.9-1.3-1-2c-0.1-1,0.2-2.1,1-2.8L14,9.6l1.3,1.3l-0.4-0.4l-2.1-2.1L12.6,8.4z"/>
	<path class="st5" d="M13.6,9.9c-0.8,0.8-1.1,1.8-1,2.8c0.1,0.7,0.4,1.4,1,2c0,0,0,0,0,0l1.7,1.7c-1-1-1.2-2.5-0.7-3.7h0
		c0.2-0.4,0.4-0.8,0.7-1.1l0.3-0.3l-0.4-0.4L14,9.6L13.6,9.9z"/>
	<path class="st6" d="M14.6,12.7L14.6,12.7c-0.5,1.2-0.3,2.7,0.7,3.7l0.7,0.7l0.3-0.3c0.2-0.2,0.3-0.3,0.4-0.5
		c0.1-0.1,0.2-0.3,0.2-0.4c0,0,0-0.1,0.1-0.2c0-0.1,0.1-0.2,0.1-0.3c0.2-0.6,0.2-1.2,0-1.8c0-0.1,0-0.1-0.1-0.2
		c0-0.1-0.1-0.2-0.1-0.3C17,13,17,12.9,16.9,12.7c-0.1-0.3-0.3-0.5-0.5-0.7L16,11.7l-0.4-0.4l-0.3,0.3C15,11.9,14.8,12.3,14.6,12.7z
		"/>
	<path class="st4" d="M12.6,1.7l-0.2,0.2c-0.4,0.4-0.6,0.8-0.8,1.3c-0.3,0.9-0.2,1.9,0.3,2.8c0.1,0.3,0.3,0.5,0.6,0.7L13.6,8
		c-0.6-0.6-0.9-1.3-1-2c-0.1-1,0.2-2.1,1-2.9L14,2.8l1.3,1.3l-0.4-0.4l-2.1-2.1L12.6,1.7z"/>
	<path class="st5" d="M13.6,3.1c-0.8,0.8-1.1,1.8-1,2.9c0.1,0.7,0.4,1.4,1,2c0,0,0,0,0,0l1.7,1.7c-1-1-1.2-2.5-0.7-3.7h0
		c0.2-0.4,0.4-0.8,0.7-1.1l0.3-0.3l-0.4-0.4L14,2.8L13.6,3.1z"/>
	<path class="st6" d="M14.6,6L14.6,6c-0.5,1.2-0.3,2.7,0.7,3.7l0.7,0.7l0.3-0.3c0.2-0.2,0.3-0.3,0.4-0.5C16.9,9.4,17,9.3,17,9.1
		c0-0.1,0-0.1,0.1-0.2c0-0.1,0.1-0.2,0.1-0.3c0.2-0.6,0.2-1.2,0-1.8c0-0.1,0-0.1-0.1-0.2c0-0.1-0.1-0.2-0.1-0.3
		C17,6.3,17,6.1,16.9,6c-0.1-0.3-0.3-0.5-0.5-0.7L16,4.9l-0.4-0.4l-0.3,0.3C15,5.2,14.8,5.6,14.6,6z"/>
	<path class="st4" d="M12.6-5.1l-0.2,0.2C12-4.5,11.8-4,11.6-3.6c-0.3,0.9-0.2,1.9,0.3,2.8C12-0.5,12.2-0.2,12.4,0l1.2,1.3
		c-0.6-0.6-0.9-1.3-1-2c-0.1-1,0.2-2.1,1-2.8L14-3.9l1.3,1.3l-0.4-0.4l-2.1-2.1L12.6-5.1z"/>
	<path class="st5" d="M13.6-3.6c-0.8,0.8-1.1,1.8-1,2.9c0.1,0.7,0.4,1.4,1,2L15.3,3c-1-1-1.2-2.5-0.7-3.7h0c0.2-0.4,0.4-0.8,0.7-1.1
		l0.3-0.3l-0.4-0.4L14-3.9L13.6-3.6z"/>
	<path class="st6" d="M14.6-0.8L14.6-0.8C14.1,0.5,14.4,2,15.3,3L16,3.7l0.3-0.3c0.2-0.2,0.3-0.3,0.4-0.5C16.9,2.7,17,2.5,17,2.4
		c0-0.1,0-0.1,0.1-0.2c0-0.1,0.1-0.2,0.1-0.3c0.2-0.6,0.2-1.2,0-1.8c0-0.1,0-0.1-0.1-0.2c0-0.1-0.1-0.2-0.1-0.3
		C17-0.5,17-0.6,16.9-0.8c-0.1-0.3-0.3-0.5-0.5-0.7L16-1.8l-0.4-0.4l-0.3,0.3C15-1.5,14.8-1.2,14.6-0.8z"/>
	<path class="st7" d="M14.8-30l0.3,0.3l0.1,0.1l0.4,0.4l0.7,0.7c0.1,0.1,0.1,0.1,0.1,0.2c0,0,0,0,0,0c0,0,0.1,0.1,0.1,0.1
		c0,0,0,0,0,0c0,0,0.1,0.1,0.1,0.1c0,0,0,0,0,0c0,0,0,0,0,0c0,0,0,0,0,0.1c0,0,0,0,0,0c0,0,0,0,0,0c0,0,0,0,0,0c0,0,0,0,0,0.1v0h0
		c0.1,0.1,0.1,0.3,0.2,0.4c0,0.1,0.1,0.2,0.1,0.3c0,0.1,0,0.1,0.1,0.2c0.1,0.6,0.1,1.2,0,1.8c0,0.1-0.1,0.2-0.1,0.3
		c0,0.1,0,0.1-0.1,0.2c-0.1,0.2-0.1,0.3-0.2,0.4c-0.1,0.2-0.3,0.4-0.4,0.5L16-23.3L15.3-24l-1.7-1.7L12.4-27
		c-0.2-0.2-0.4-0.5-0.6-0.7h0h0c0,0,0,0,0,0c0,0,0-0.1-0.1-0.1c0,0,0,0,0,0c0,0,0-0.1,0-0.1c0,0,0-0.1-0.1-0.1c0,0,0,0,0,0
		c0,0,0,0,0,0c0-0.1,0-0.1-0.1-0.2c0,0,0-0.1,0-0.1c0,0,0,0,0,0c0,0,0,0,0-0.1c0,0,0,0,0,0c0,0,0-0.1,0-0.1c0,0,0,0,0,0
		c0,0,0-0.1,0-0.1c0,0,0,0,0,0c0,0,0,0,0,0c0,0,0,0,0-0.1c0,0,0,0,0,0c0,0,0,0,0,0c0,0,0,0,0,0c0,0,0,0,0,0c0,0,0,0,0,0c0,0,0,0,0,0
		c0,0,0,0,0,0c0,0,0,0,0-0.1c0,0,0,0,0,0c0,0,0-0.1,0-0.1c0,0,0,0,0-0.1c0,0,0,0,0-0.1c0,0,0-0.1,0-0.1c0,0,0,0,0,0
		c0-0.1,0-0.1,0-0.2c0,0,0,0,0,0c0,0,0-0.1,0-0.1c0,0,0-0.1,0-0.1c0,0,0,0,0,0c0,0,0-0.1,0-0.1c0,0,0,0,0,0c0,0,0,0,0,0c0,0,0,0,0,0
		c0,0,0,0,0-0.1c0,0,0,0,0-0.1c0,0,0,0,0,0c0,0,0,0,0,0c0,0,0,0,0,0c0,0,0,0,0-0.1c0,0,0,0,0,0c0,0,0,0,0-0.1c0,0,0,0,0-0.1
		c0,0,0-0.1,0-0.1c0-0.1,0-0.1,0-0.2c0,0,0-0.1,0-0.1c0,0,0,0,0,0c0,0,0,0,0-0.1c0,0,0,0,0-0.1c0,0,0,0,0,0c0,0,0,0,0-0.1
		c0,0,0,0,0,0c0,0,0,0,0,0c0,0,0,0,0,0c0,0,0-0.1,0.1-0.1c0,0,0-0.1,0-0.1c0,0,0-0.1,0.1-0.1c0,0,0.1-0.1,0.1-0.1c0,0,0,0,0,0
		c0,0,0,0,0,0c0,0,0,0,0,0s0,0,0,0c0-0.1,0.1-0.1,0.1-0.2c0,0,0-0.1,0.1-0.1c0-0.1,0.1-0.1,0.2-0.2c0,0,0,0,0,0l0.3-0.3L14.8-30z
		 M15.2-22.9l0.4,0.4L16-22l0.3,0.3c0.2,0.2,0.4,0.5,0.5,0.7c0.1,0.1,0.1,0.3,0.2,0.4c0,0.1,0.1,0.2,0.1,0.3c0,0.1,0,0.1,0.1,0.2
		c0.1,0.6,0.1,1.2,0,1.8c0,0.1-0.1,0.2-0.1,0.3c0,0.1,0,0.1-0.1,0.2c-0.1,0.2-0.1,0.3-0.2,0.4c-0.1,0.2-0.3,0.4-0.4,0.5L16-16.6
		l-0.7-0.7L13.6-19l-1.2-1.3c-0.2-0.2-0.4-0.5-0.6-0.7h0c-0.5-0.9-0.6-1.9-0.3-2.8c0.2-0.5,0.4-0.9,0.8-1.3l0.2-0.2l0.1-0.1l2.1,2.1
		L15.2-22.9z M15.2-16.1l0.4,0.4l0.4,0.4l0.3,0.3c0.2,0.2,0.4,0.5,0.5,0.7c0.1,0.1,0.1,0.3,0.2,0.4c0,0.1,0.1,0.2,0.1,0.3
		c0,0.1,0,0.1,0.1,0.2c0.1,0.6,0.1,1.2,0,1.8c0,0.1-0.1,0.2-0.1,0.3c0,0.1,0,0.1-0.1,0.2c-0.1,0.2-0.1,0.3-0.2,0.4
		c-0.1,0.2-0.3,0.4-0.4,0.5L16-9.8l-0.7-0.7l-1.7-1.7l-1.2-1.3c-0.2-0.2-0.4-0.5-0.6-0.7h0c-0.5-0.9-0.6-1.9-0.3-2.8
		c0.2-0.5,0.4-0.9,0.8-1.3l0.2-0.2l0.1-0.1l2.1,2.1L15.2-16.1z M15.2-9.4l0.4,0.4L16-8.5l0.3,0.3c0.2,0.2,0.4,0.5,0.5,0.7
		C17-7.4,17-7.2,17.1-7.1c0,0.1,0.1,0.2,0.1,0.3c0,0.1,0,0.1,0.1,0.2c0.1,0.6,0.1,1.2,0,1.8c0,0.1-0.1,0.2-0.1,0.3
		c0,0.1,0,0.1-0.1,0.2c-0.1,0.2-0.1,0.3-0.2,0.4c-0.1,0.2-0.3,0.4-0.4,0.5L16-3.1l-0.7-0.7l-1.7-1.7l-1.2-1.3
		C12.2-7,12-7.2,11.9-7.5h0c-0.5-0.9-0.6-1.9-0.3-2.8c0.2-0.5,0.4-0.9,0.8-1.3l0.2-0.2l0.1-0.1l2.1,2.1L15.2-9.4z M15.2-2.6l0.4,0.4
		L16-1.8l0.3,0.3c0.2,0.2,0.4,0.5,0.5,0.7C17-0.6,17-0.5,17.1-0.4c0,0.1,0.1,0.2,0.1,0.3c0,0.1,0,0.1,0.1,0.2c0.1,0.6,0.1,1.2,0,1.8
		c0,0.1-0.1,0.2-0.1,0.3c0,0.1,0,0.1-0.1,0.2c-0.1,0.2-0.1,0.3-0.2,0.4c-0.1,0.2-0.3,0.4-0.4,0.5L16,3.7L15.3,3l-1.7-1.7L12.4,0
		c-0.2-0.2-0.4-0.5-0.6-0.7h0c-0.5-0.9-0.6-1.9-0.3-2.8C11.8-4,12-4.5,12.4-4.9l0.2-0.2l0.1-0.1l2.1,2.1L15.2-2.6z M15.2,4.1
		l0.4,0.4L16,4.9l0.3,0.3c0.2,0.2,0.4,0.5,0.5,0.7C17,6.1,17,6.3,17.1,6.4c0,0.1,0.1,0.2,0.1,0.3c0,0.1,0,0.1,0.1,0.2
		c0.1,0.6,0.1,1.2,0,1.8c0,0.1-0.1,0.2-0.1,0.3c0,0.1,0,0.1-0.1,0.2c-0.1,0.2-0.1,0.3-0.2,0.4c-0.1,0.2-0.3,0.4-0.4,0.5L16,10.4
		l-0.7-0.7L13.6,8l-1.2-1.3C12.2,6.5,12,6.3,11.9,6h0c-0.5-0.9-0.6-1.9-0.3-2.8c0.2-0.5,0.4-0.9,0.8-1.3l0.2-0.2l0.1-0.1l2.1,2.1
		L15.2,4.1z M15.2,10.9l0.4,0.4l0.4,0.4l0.3,0.3c0.2,0.2,0.4,0.5,0.5,0.7c0.1,0.1,0.1,0.3,0.2,0.4c0,0.1,0.1,0.2,0.1,0.3
		c0,0.1,0,0.1,0.1,0.2c0.1,0.6,0.1,1.2,0,1.8c0,0.1-0.1,0.2-0.1,0.3c0,0.1,0,0.1-0.1,0.2c-0.1,0.2-0.1,0.3-0.2,0.4
		c-0.1,0.2-0.3,0.4-0.4,0.5L16,17.2l-0.7-0.7l-1.7-1.7l-1.2-1.3c-0.2-0.2-0.4-0.5-0.6-0.7h0c-0.5-0.9-0.6-1.9-0.3-2.8
		C11.8,9.4,12,9,12.4,8.6l0.2-0.2l0.1-0.1l2.1,2.1L15.2,10.9z M15.2,17.6l0.4,0.4l0.4,0.4l0.3,0.3c0.2,0.2,0.4,0.5,0.5,0.7
		c0.1,0.1,0.1,0.3,0.2,0.4c0,0.1,0.1,0.2,0.1,0.3c0,0.1,0,0.1,0.1,0.2c0.1,0.6,0.1,1.2,0,1.8c0,0.1-0.1,0.2-0.1,0.3
		c0,0,0,0.1-0.1,0.2c-0.1,0.2-0.1,0.3-0.2,0.4c-0.1,0.2-0.3,0.4-0.4,0.5L16,23.9l-0.7-0.7l-1.7-1.7l-0.1-0.1l-1.1-1.1
		c-0.2-0.2-0.4-0.5-0.6-0.7h0c0-0.1-0.1-0.1-0.1-0.2c-0.1-0.3-0.2-0.6-0.3-0.9c-0.1-0.6-0.1-1.2,0.1-1.7c0.2-0.5,0.4-0.9,0.8-1.3
		l0.2-0.2l0.1-0.1l2.1,2.1L15.2,17.6z M18.1,23c0.4,0.3,0.7,0.7,0.9,1.2c0.1,0.3,0.3,0.6,0.3,0.9c0,0,0,0,0,0
		c0.2,0.8,0.1,1.6-0.1,2.4c0,0,0,0,0,0c0,0,0,0,0,0.1c-0.1,0.2-0.2,0.4-0.3,0.6c-0.1,0.2-0.2,0.3-0.3,0.5c-0.2,0.2-0.3,0.3-0.5,0.5
		c0.1-0.4,0.2-0.8,0.2-1.2c0-0.1,0-0.2,0-0.3c0-0.1,0-0.2,0-0.3c0-0.4-0.2-0.8-0.3-1.1h-0.1h-0.6v0h0.6h0c0,0,0,0,0-0.1
		c-0.2-0.4-0.4-0.7-0.6-1c0-0.3-0.1-0.6-0.3-1c0.2-0.2,0.3-0.4,0.5-0.6c0.1-0.1,0.2-0.2,0.2-0.4c0.1-0.1,0.1-0.2,0.2-0.4h0
		C18,22.9,18,23,18.1,23z M19.4,30c0,0.1,0.1,0.3,0.1,0.4c0.2,0.7,0.2,1.6,0.1,2.4c-0.1,0.6-0.2,1.3-0.4,1.9c-0.1,0.3-0.3,0.7-0.6,1
		c-0.4,0.5-1,0.9-1.6,1.1c-0.6,0.2-1.3,0.3-2,0.2c-0.7-0.1-1.3-0.3-1.8-0.7c-0.1-0.1-0.2-0.1-0.2-0.2L12.9,36c0.5-0.3,0.9-0.6,1.3-1
		c0.1-0.1,0.2-0.2,0.3-0.3c0,0,0,0,0,0c0.2-0.2,0.3-0.4,0.5-0.5c0,0,0,0,0,0c0.1-0.1,0.1-0.2,0.2-0.2c0,0,0,0,0,0c0,0,0,0,0-0.1
		c0-0.1,0.1-0.1,0.1-0.2c0,0,0,0,0,0c0-0.1,0.1-0.2,0.1-0.2c0.1-0.2,0.2-0.3,0.3-0.5c0-0.1,0.1-0.1,0.1-0.2c0.3-0.3,0.5-0.6,0.7-0.9
		c0.1-0.1,0.1-0.3,0.2-0.4c0-0.1,0.1-0.2,0.1-0.3c0,0,0,0,0,0L17,31c0.1-0.1,0.2-0.2,0.3-0.3c0,0,0,0,0.1,0c0.1,0,0.2-0.1,0.3-0.1
		c0.1,0,0.2-0.1,0.3-0.1c0.1-0.1,0.2-0.1,0.3-0.2c0.1-0.1,0.2-0.1,0.3-0.2c0.1-0.1,0.2-0.1,0.3-0.2c0.1-0.1,0.2-0.2,0.3-0.2
		c0.1,0,0.2,0,0.2,0C19.3,29.7,19.3,29.8,19.4,30z M9.8,36.1c-0.2,0-0.3,0-0.5,0C9.2,36,9,36,8.9,35.9c-0.2,0-0.3-0.1-0.5-0.2
		c-0.1,0-0.2-0.1-0.2-0.1c-0.1,0-0.2-0.1-0.2-0.1c-0.2-0.1-0.3-0.2-0.5-0.3c-0.1-0.1-0.3-0.2-0.4-0.4c-0.1-0.1-0.3-0.3-0.4-0.4
		c-0.1-0.1-0.2-0.3-0.3-0.4c0-0.1-0.1-0.2-0.1-0.2c0-0.1-0.1-0.2-0.1-0.2C6.1,33.4,6.1,33.2,6,33c0-0.2-0.1-0.3-0.1-0.5
		c0-0.2,0-0.3,0-0.5c0-0.1,0-0.2,0-0.3l0-0.2c0.8,0.4,1.6,0.6,2.4,0.6c0.1,0,0.2,0,0.4,0c0,0,0.1,0,0.1,0c0,0,0,0,0,0
		c0,0,0,0,0.1,0.1c0.1,0.1,0.3,0.2,0.4,0.3c0.1,0.1,0.1,0.1,0.2,0.2l0.2,0.1C9.9,33,10,33,10.1,33.1c0.2,0.1,0.4,0.2,0.7,0.3
		c0,0,0.1,0,0.1,0c0,0,0.1,0,0.1,0c0.6,0.2,1.3,0.3,1.9,0.3c0.2,0,0.3,0,0.5,0c0.2,0,0.3-0.1,0.5-0.1c0.1,0,0.1,0,0.2-0.1
		c0.1,0,0.1,0,0.2-0.1c0,0,0,0,0.1,0c0,0,0,0,0,0c-0.5,0.6-1,1.1-1.7,1.6c0,0-0.1,0.1-0.1,0.1c-0.5,0.3-1,0.5-1.5,0.7c0,0,0,0-0.1,0
		c0,0,0,0,0,0c-0.2,0.1-0.3,0.1-0.5,0.1C10.2,36.1,10,36.1,9.8,36.1z M6.7,30.8C6.7,30.8,6.7,30.8,6.7,30.8c0,0-0.1,0-0.1-0.1
		c-0.2-0.1-0.5-0.3-0.7-0.4c-0.2-0.2-0.5-0.4-0.7-0.6c0,0,0,0-0.1-0.1c0,0,0,0,0,0c-0.1-0.1-0.3-0.3-0.4-0.4
		c-0.1-0.1-0.1-0.2-0.2-0.2c0-0.1-0.1-0.2-0.1-0.3c-0.1-0.1-0.1-0.3-0.2-0.5C4,28.1,4,28,4,27.8c0-0.2-0.1-0.4-0.1-0.5
		c0-0.2,0-0.4,0-0.5c0-0.1,0-0.2,0-0.3c0-0.1,0-0.2,0.1-0.3c0-0.2,0.1-0.4,0.1-0.5c0.1-0.2,0.1-0.3,0.2-0.5c0.1-0.2,0.2-0.3,0.3-0.5
		c0.1-0.1,0.2-0.3,0.3-0.4C5,24.2,5.1,24,5.3,23.9c0.1-0.1,0.3-0.2,0.4-0.3c0.1-0.1,0.3-0.2,0.4-0.2c0.1,0,0.2-0.1,0.3-0.1l0.2-0.1
		c0,0.1,0,0.3,0,0.4c0,0.1,0,0.3,0,0.4c0,0.3,0.1,0.5,0.2,0.8c0.1,0.3,0.2,0.5,0.3,0.7c0,0.1,0.1,0.2,0.1,0.3c0,0,0,0,0,0
		c0,0,0.1,0.1,0.1,0.1c0,0,0,0,0,0c0,0,0,0.1,0.1,0.1c0,0,0,0,0,0c0,0,0,0,0,0.1c0,0,0,0,0,0c0,0.1,0.1,0.1,0.1,0.2c0,0,0,0,0,0.1
		c0,0,0.1,0.1,0.1,0.1c0,0.1,0.1,0.1,0.1,0.2C7.9,27,8,27.1,8,27.2c0,0,0,0.1-0.1,0.1c0,0.1-0.1,0.1-0.1,0.2c0,0.1-0.1,0.2-0.1,0.3
		c-0.1,0.2-0.1,0.4-0.2,0.6c0,0,0,0.1,0,0.1c0,0.1,0,0.3,0,0.4c0,0.1,0,0.1,0,0.2c0,0.1,0,0.1,0,0.2c0,0.5,0.2,1.1,0.5,1.7
		c0,0,0,0,0,0c0,0.1,0.1,0.1,0.1,0.2C7.6,31.2,7.2,31,6.7,30.8z M10.5,32.3c-0.1-0.1-0.2-0.1-0.3-0.2c-0.1,0-0.1-0.1-0.2-0.1
		c0,0-0.1-0.1-0.1-0.1c-0.2-0.2-0.4-0.3-0.5-0.5c-0.3-0.4-0.6-0.8-0.7-1.3c-0.1-0.2-0.1-0.4-0.1-0.6c0-0.2,0-0.4,0-0.6
		c0-0.1,0-0.3,0.1-0.4c0-0.1,0-0.1,0.1-0.2c0,0,0,0,0,0c0,0,0,0,0,0c0.4,0.4,0.8,0.7,1.2,0.8c0.1,0,0.2,0.1,0.3,0.1
		c0.1,0,0.3,0.1,0.4,0.1c0,0,0,0,0,0c0,0,0,0,0.1,0c0,0,0,0,0,0c0,0,0.1,0,0.1,0c0,0,0,0,0,0c0,0,0,0,0.1,0c0.1,0,0.1,0,0.2,0
		c0,0,0.1,0,0.1,0c0,0,0.1,0,0.1,0c0,0,0.1,0,0.1,0c0,0,0.1,0,0.1,0c0,0,0.1,0,0.1,0c0,0,0.1,0,0.1,0c0,0,0,0,0,0c0,0,0.1,0,0.1,0
		c0,0,0,0,0,0c0,0,0.1,0,0.1-0.1c0,0,0,0,0,0c0.1,0,0.1-0.1,0.2-0.1c0.1,0,0.2-0.1,0.2-0.2c0.1-0.1,0.1-0.1,0.2-0.2c0,0,0,0,0-0.1
		l1.1,1.1l0,0l0.9,1l0.4,0.4l0,0c0.1,0.1,0.2,0.2,0.3,0.3c0,0,0,0,0,0c0,0,0,0.1,0,0.1c0,0-0.1,0.1-0.1,0.1
		c-0.1,0.1-0.1,0.2-0.2,0.3c-0.2,0.2-0.4,0.3-0.6,0.5c0,0-0.1,0.1-0.1,0.1c-0.7,0.4-1.7,0.6-2.6,0.4c-0.2,0-0.4-0.1-0.6-0.2
		C11,32.6,10.8,32.5,10.5,32.3z M9,24L9,24C9.1,24,9.1,24,9,24c0,0,0.1-0.1,0.1-0.1c0,0,0,0,0,0c0,0,0,0,0,0c0,0,0,0,0,0
		c0,0,0-0.1,0.1-0.1c0,0,0,0,0-0.1c0,0,0,0,0-0.1c0.1-0.1,0.2-0.2,0.2-0.3c0.1-0.1,0.2-0.2,0.3-0.3c0,0,0.1-0.1,0.1-0.1
		c0,0,0,0,0.1,0c0,0,0,0,0.1,0c0,0,0.1-0.1,0.1-0.1c0,0,0,0,0,0c0,0,0,0,0.1,0c0,0,0,0,0,0c0,0,0.1,0,0.1-0.1c0,0,0,0,0,0
		c0,0,0,0,0.1,0c0,0,0.1,0,0.1-0.1c0,0,0,0,0,0c0,0,0,0,0,0c0,0,0,0,0,0c0,0,0,0,0,0c0,0,0,0,0,0c0.1,0,0.1-0.1,0.2-0.1c0,0,0,0,0,0
		c0,0,0,0,0.1,0c0,0,0,0,0.1,0c0,0,0,0,0,0c0,0,0,0,0,0c0,0,0,0,0,0c0,0,0,0,0,0c-0.3,0.5-0.5,1-0.6,1.5c0,0.2-0.1,0.5-0.1,0.7
		c0,0.3,0,0.6,0.1,0.9c0,0.2,0.1,0.4,0.2,0.6c0,0.1,0,0.1,0.1,0.2h0.6h0.4c-0.1-0.1-0.1-0.3-0.2-0.4c-0.3-0.7-0.3-1.5-0.1-2.3
		c0,0,0-0.1,0-0.1c0.2-0.5,0.4-0.9,0.8-1.3l0.2-0.2l0.1-0.1l0.3,0.3l1.8,1.8l0.4,0.4l0.4,0.4l0.4,0.4l0.3,0.3
		c0.2,0.2,0.4,0.5,0.5,0.7v0c0.1,0.1,0.1,0.2,0.1,0.3c0,0,0,0.1,0,0.1c0,0.1,0,0.1,0.1,0.2c0,0,0,0,0,0c0,0,0,0.1,0,0.1
		c0,0.1,0,0.1,0.1,0.2c0,0,0,0,0,0.1c0.1,0.3,0.1,0.6,0.1,0.8c0,0.3-0.1,0.6-0.1,0.9c0,0.1-0.1,0.2-0.1,0.3c0,0.1,0,0.1-0.1,0.2
		c-0.1,0.2-0.1,0.3-0.2,0.4c-0.1,0.2-0.3,0.4-0.4,0.5L16,30.6l-0.7-0.7l-1.7-1.7L12.4,27c-0.2-0.2-0.3-0.3-0.4-0.5
		c0-0.1-0.1-0.1-0.1-0.2h-0.4h0h-0.6c0.2,0.5,0.5,1,0.9,1.4l0.3,0.3l0.3,0.3c-0.1,0.1-0.2,0.1-0.3,0.2c-0.1,0-0.1,0.1-0.2,0.1
		c-0.1,0-0.1,0-0.2,0.1c-0.7,0.2-1.5-0.1-2.2-0.8c0,0,0,0,0,0c-0.1-0.1-0.1-0.2-0.2-0.3c0-0.1-0.1-0.1-0.1-0.2C9.1,27,9,26.9,9,26.7
		c0-0.1-0.1-0.1-0.1-0.2c-0.1-0.3-0.2-0.6-0.2-1c0-0.2,0-0.5,0-0.7c0-0.1,0.1-0.3,0.1-0.4C8.9,24.3,9,24.1,9,24z M12.1-32.8
		l-0.3,0.3c-0.2,0.2-0.4,0.4-0.5,0.7c0,0.1-0.1,0.1-0.1,0.2c-0.1,0.2-0.2,0.4-0.3,0.7c0,0.1,0,0.1-0.1,0.2c0,0.1-0.1,0.2-0.1,0.3
		c0,0.1,0,0.2-0.1,0.3c0,0.2-0.1,0.5-0.1,0.7c0,0,0,0.1,0,0.1c0,0,0,0.1,0,0.1v0c0,0,0,0,0,0.1c0,0,0,0.1,0,0.1c0,0,0,0.1,0,0.1
		c0,0,0,0.1,0,0.1c0,0,0,0.1,0,0.1c0,0,0,0.1,0,0.1v0c0,0,0,0.1,0,0.1c0,0.2,0.1,0.4,0.2,0.6h0c0.2,0.5,0.5,1,0.9,1.4l0.3,0.3
		l-0.3,0.3c-0.8,0.8-1.3,1.9-1.3,3.1c0,0.6,0.1,1.2,0.3,1.7h0c0.2,0.5,0.5,1,0.9,1.4l0.3,0.3L11.8-19c-0.8,0.8-1.3,1.9-1.3,3.1
		c0,0.6,0.1,1.2,0.3,1.7h0c0.2,0.5,0.5,1,0.9,1.4l0.3,0.3l-0.3,0.3c-0.8,0.8-1.3,1.9-1.3,3.1c0,0.6,0.1,1.2,0.3,1.7h0
		c0.2,0.5,0.5,1,0.9,1.4l0.3,0.3l-0.3,0.3c-0.8,0.8-1.3,1.9-1.3,3.1c0,0.6,0.1,1.2,0.3,1.7h0c0.2,0.5,0.5,1,0.9,1.4l0.3,0.3
		l-0.3,0.3c-0.8,0.8-1.3,1.9-1.3,3.1c0,0.6,0.1,1.2,0.3,1.7h0c0.2,0.5,0.5,1,0.9,1.4l0.3,0.3L11.8,8C11,8.8,10.5,9.9,10.5,11
		c0,0.6,0.1,1.2,0.3,1.7h0c0.2,0.5,0.5,1,0.9,1.4l0.3,0.3l-0.3,0.3c-0.8,0.8-1.3,1.9-1.3,3.1c0,0.2,0,0.5,0.1,0.7
		c-0.9,0.2-1.7,0.6-2.3,1.1l0.4,0.9c0.1-0.1,0.1-0.1,0.2-0.2C9,20.2,9,20.2,9.1,20.1c0.1-0.1,0.3-0.2,0.5-0.3
		c0.2-0.1,0.3-0.2,0.5-0.2c0.2-0.1,0.4-0.1,0.6-0.2c0.1,0,0.1,0,0.2,0v0c0,0,0,0.1,0,0.1h0c0.2,0.5,0.5,1,0.9,1.4l0.1,0.1l0.2,0.2
		L12,21.2c-0.1,0-0.2,0-0.3,0l0,0c0,0-0.1,0-0.1,0c-0.1,0-0.2,0-0.3,0.1c-0.1,0-0.2,0.1-0.3,0.1c-0.1,0-0.3,0.1-0.4,0.1
		c-0.1,0.1-0.3,0.1-0.4,0.2C10,21.8,9.9,21.9,9.8,22c0,0,0,0,0,0c-0.1,0.1-0.2,0.1-0.3,0.2c0,0-0.1,0-0.1,0.1
		c-0.4,0.3-0.8,0.7-1.1,1.1l0.2,0.2l-0.3-0.2c-0.1,0.1-0.2,0.3-0.3,0.4c-0.1,0.2-0.1,0.3-0.2,0.5c0,0.1-0.1,0.3-0.1,0.4l0,0l0-0.1
		c0-0.1,0-0.2,0-0.3c0-0.1,0-0.2,0-0.3c0-0.1,0-0.2,0-0.3c0-0.6,0.1-1.1,0.3-1.7c0,0,0,0,0,0c0,0,0-0.1,0-0.1c0,0,0-0.1,0-0.1
		c0,0,0,0,0,0c0.1-0.2,0.2-0.4,0.3-0.5c0.1-0.2,0.2-0.3,0.4-0.5l-0.4-0.9c-0.7,0.6-1.2,1.3-1.4,2c-0.1,0.2-0.1,0.4-0.1,0.6
		c-0.2,0-0.4,0.1-0.6,0.1c-0.2,0.1-0.4,0.1-0.5,0.2c-0.2,0.1-0.4,0.2-0.5,0.3L5,22.9L4.9,23c-0.1,0.1-0.2,0.1-0.2,0.2
		c-0.1,0.1-0.3,0.3-0.4,0.4C4.1,23.8,4,24,3.8,24.2c-0.1,0.1-0.1,0.2-0.2,0.3c-0.1,0.1-0.1,0.2-0.1,0.3c-0.1,0.2-0.2,0.4-0.3,0.6
		c-0.1,0.2-0.1,0.5-0.2,0.7C3,26.4,3,26.6,3,26.8c0,0.2,0,0.5,0,0.7c0,0.2,0.1,0.5,0.1,0.7c0.1,0.2,0.1,0.4,0.2,0.6h0
		c0,0.1,0.1,0.2,0.1,0.3c0,0.1,0.1,0.2,0.1,0.3c0.1,0.2,0.2,0.3,0.3,0.5c0.2,0.3,0.5,0.6,0.8,0.8c0.1,0.1,0.3,0.2,0.5,0.3
		c0,0.2-0.1,0.4-0.1,0.5c0,0.2,0,0.4,0,0.5c0,0.2,0,0.4,0,0.6c0.1,0.4,0.2,0.8,0.3,1.2C5.6,34.7,6.2,35.4,7,36
		c0.2,0.1,0.4,0.3,0.6,0.4c0.1,0.1,0.2,0.1,0.3,0.2c0.1,0,0.2,0.1,0.3,0.1c0.2,0.1,0.4,0.1,0.6,0.2c0.2,0,0.4,0.1,0.6,0.1l0,0
		c0.8,0.1,1.5,0,2.1-0.3c0.2-0.1,0.3-0.1,0.5-0.2c0.1,0.1,0.2,0.3,0.4,0.4c0.5,0.5,1.2,0.8,2,1c0.8,0.2,1.7,0.2,2.5-0.1
		c0.9-0.2,1.7-0.7,2.2-1.2l0,0c0.6-0.5,1-1.2,1.2-1.8c0-0.2,0.1-0.3,0.1-0.5c0.2,0,0.3,0,0.5-0.1c0.7-0.1,1.4-0.4,2-0.9
		c0.2-0.1,0.3-0.3,0.5-0.4c0.1-0.1,0.3-0.3,0.4-0.5c0.1-0.2,0.2-0.3,0.4-0.5c0.1-0.2,0.2-0.4,0.3-0.5c0.4-0.8,0.5-1.6,0.5-2.3
		l-1-0.3c0.2,1.2-0.3,2.6-1.3,3.4c-0.5,0.5-1.1,0.8-1.7,0.9c-0.1,0-0.2,0-0.3,0l-0.2,0c0.1-1,0-1.9-0.1-2.7c0,0,0-0.1,0-0.1
		c0,0,0,0,0,0c0-0.1,0-0.2-0.1-0.3c0,0,0,0,0,0c0-0.1,0-0.1-0.1-0.2c0,0,0,0,0-0.1c0-0.1-0.1-0.2-0.1-0.2l-0.1-0.3
		c0-0.1-0.1-0.2-0.1-0.3c-0.1-0.2-0.1-0.3-0.2-0.4c0.1-0.3,0.3-0.5,0.4-0.8c0.2-0.7,0.3-1.5,0.2-2.2c0-0.5-0.2-0.9-0.3-1.3
		c0.1-0.1,0.1-0.1,0.2-0.2c0.1,0,0.2,0.1,0.3,0.1c0,0,0,0,0,0c0.1,0,0.1,0.1,0.2,0.1c0,0,0,0,0.1,0c0.1,0.1,0.2,0.1,0.3,0.2
		c0.6,0.4,1.1,0.9,1.6,1.5c0,0,0,0,0,0c0,0.1,0.1,0.1,0.1,0.2c0.2,0.3,0.4,0.6,0.6,0.9c0,0,0,0,0,0.1c0.1,0.2,0.2,0.4,0.3,0.6
		c0.1,0.2,0.1,0.3,0.2,0.5c0,0.1,0,0.2,0.1,0.3c0,0.1,0,0.2,0,0.3l1,0.3c0-0.7-0.2-1.4-0.5-2c-0.1-0.1-0.2-0.3-0.3-0.4
		c-0.2-0.3-0.4-0.6-0.6-0.8c-0.7-0.9-1.4-1.6-2.3-2.1c-0.2-0.1-0.3-0.2-0.5-0.3c-0.5-0.3-0.8-0.2-1.1-0.1c-0.1,0-0.1,0.1-0.2,0.1
		c-0.2-0.4-0.4-0.7-0.7-1h0c-0.2-0.2-0.5-0.5-0.8-0.6c0-0.2,0.1-0.5,0.1-0.7c0-0.1,0-0.2,0-0.3c0-0.1,0-0.2,0-0.3
		c0-0.4-0.2-0.8-0.3-1.1h0c-0.2-0.5-0.5-1-0.9-1.4l-0.3-0.3l0.3-0.3c0.8-0.8,1.2-1.9,1.2-3.1c0-0.1,0-0.2,0-0.3c0-0.1,0-0.2,0-0.3
		c0-0.4-0.2-0.8-0.3-1.1h0c-0.2-0.5-0.5-1-0.9-1.4L16.7,11l0.3-0.3c0.8-0.8,1.2-1.9,1.2-3.1c0-0.1,0-0.2,0-0.3c0-0.1,0-0.2,0-0.3
		c0-0.4-0.2-0.8-0.3-1.1h0c-0.2-0.5-0.5-1-0.9-1.4l-0.3-0.3L17,4c0.8-0.8,1.2-1.9,1.2-3.1c0-0.1,0-0.2,0-0.3c0-0.1,0-0.2,0-0.3
		c0-0.4-0.2-0.8-0.3-1.1h0c-0.2-0.5-0.5-1-0.9-1.4l-0.3-0.3L17-2.8c0.8-0.8,1.2-1.9,1.2-3.1c0-0.1,0-0.2,0-0.3c0-0.1,0-0.2,0-0.3
		c0-0.4-0.2-0.8-0.3-1.1h0c-0.2-0.5-0.5-1-0.9-1.4l-0.3-0.3L17-9.5c0.8-0.8,1.2-1.9,1.2-3.1c0-0.1,0-0.2,0-0.3c0-0.1,0-0.2,0-0.3
		c0-0.4-0.2-0.8-0.3-1.1h0c-0.2-0.5-0.5-1-0.9-1.4l-0.3-0.3l0.3-0.3c0.8-0.8,1.2-1.9,1.2-3.1c0-0.1,0-0.2,0-0.3c0-0.1,0-0.2,0-0.3
		c0-0.4-0.2-0.8-0.3-1.1h0c-0.2-0.5-0.5-1-0.9-1.4l-0.3-0.3L17-23c0.8-0.8,1.2-1.9,1.2-3.1c0-0.1,0-0.2,0-0.3c0-0.1,0-0.2,0-0.3
		c0-0.4-0.2-0.8-0.3-1.1h0v0c-0.1-0.2-0.2-0.5-0.4-0.7c-0.1-0.2-0.2-0.3-0.4-0.5c0-0.1-0.1-0.1-0.1-0.2l-0.9-1L14-32.2l-0.4-0.4
		c0,0,0,0,0,0C12.8-33.4,12.1-32.8,12.1-32.8z"/>
</g>
</svg>
